<?xml version="1.0" encoding="utf-8"?>
<!-- Generator: Adobe Illustrator 16.0.0, SVG Export Plug-In . SVG Version: 6.00 Build 0)  -->
<!DOCTYPE svg PUBLIC "-//W3C//DTD SVG 1.1//EN" "http://www.w3.org/Graphics/SVG/1.1/DTD/svg11.dtd">
<svg version="1.1" xmlns="http://www.w3.org/2000/svg" xmlns:xlink="http://www.w3.org/1999/xlink" x="0px" y="0px"
	 width="1443.659px" height="703.431px" viewBox="-2613.469 3923.816 1443.659 703.431"
	 enable-background="new -2613.469 3923.816 1443.659 703.431" xml:space="preserve">
<g id="backgrounds">
</g>
<g id="Layer_1">
	<g>
		<path fill="#3D52A1" d="M-2614.273,3974.137c101.28,69.62,473.46,168.784,676.019,48.062
			c179.311-106.868,567.082-157.315,771.132,9.922c0,135.152-2.688,595.126-2.688,595.126l-1443.463,4
			C-2613.273,4631.247-2614.273,4066.585-2614.273,3974.137z"/>
		
			<linearGradient id="SVGID_1_" gradientUnits="userSpaceOnUse" x1="-1891.7358" y1="2003.7861" x2="-1891.7358" y2="1369.5537" gradientTransform="matrix(1 0 0 -1 0 6003.2812)">
			<stop  offset="0" style="stop-color:#1F1F1F;stop-opacity:0.4"/>
			<stop  offset="1" style="stop-color:#FFFFFF"/>
		</linearGradient>
		<path fill="url(#SVGID_1_)" d="M-2624.955,4111.871c392.916,135.911,532.662,26.37,642.173-34.487
			c297.037-165.074,644.562-37.639,824.664,103.837c0,135.155-14.374,448.507-14.374,448.507l-1443.463,4
			C-2615.955,4633.728-2627.637,4231.558-2624.955,4111.871z"/>
	</g>
</g>
</svg>
