<?xml version="1.0" encoding="utf-8"?>
<!-- Generator: Adobe Illustrator 16.0.0, SVG Export Plug-In . SVG Version: 6.00 Build 0)  -->
<!DOCTYPE svg PUBLIC "-//W3C//DTD SVG 1.1//EN" "http://www.w3.org/Graphics/SVG/1.1/DTD/svg11.dtd">
<svg version="1.1" xmlns="http://www.w3.org/2000/svg" xmlns:xlink="http://www.w3.org/1999/xlink" x="0px" y="0px"
	 width="319.461px" height="334.245px" viewBox="312.847 -161.911 319.461 334.245"
	 enable-background="new 312.847 -161.911 319.461 334.245" xml:space="preserve">
<g id="backgrounds">
	<rect fill="#E5E5E5" width="2422" height="2048"/>
	<rect fill="#FFFFFF" width="1440" height="1024"/>
</g>
<g id="Layer_1">
	<rect fill="none" width="1440" height="1024"/>
	<g display="none">
		<rect x="-10" display="inline" fill="#3D52A1" width="1440" height="1024"/>
		<circle display="inline" fill="none" stroke="#F06490" stroke-width="3" cx="-15" cy="-411.626" r="740"/>
		<rect x="53" y="40" display="inline" fill="none" stroke="#FFFFFF" stroke-width="2" width="1344" height="944"/>
		<rect x="53" y="40" display="inline" fill="none" stroke="#FFFFFF" stroke-width="2" width="1344" height="944"/>
		
			<image display="inline" overflow="visible" width="998" height="747" xlink:href="../Foodio-tile.png"  transform="matrix(0.6308 0 0 0.6308 394.9326 121.7979)">
		</image>
		
			<rect x="391" y="116" display="inline" fill="none" stroke="#F06590" stroke-width="12" stroke-miterlimit="10" width="638" height="484"/>
		<rect x="391" y="116" display="inline" fill="none" width="638" height="484"/>
	</g>
	<circle display="none" fill="none" stroke="#F06490" stroke-width="3" cx="-12.312" cy="-409.369" r="740"/>
	<rect x="55.688" y="42.257" display="none" fill="none" stroke="#FFFFFF" stroke-width="2" width="1344" height="944"/>
	<rect x="55.688" y="42.257" display="none" fill="none" stroke="#2AA4C0" stroke-width="2" width="1344" height="944"/>
	<g display="none">
		
			<image display="inline" overflow="visible" width="688" height="530" xlink:href="32E24A75506CFD75.png"  transform="matrix(1 0 0 1 389.5 159.5)">
		</image>
	</g>
	
		<rect x="2.688" y="-105.353" display="none" fill="#FFFFFF" stroke="#EADFE4" stroke-width="5" width="1436.312" height="106.062"/>
	<g display="none">
		
			<text transform="matrix(1 0 0 1 412.9409 -27.5059)" display="inline" fill="#FFFFFF" font-family="'Futura-Bold'" font-size="20">Artwork</text>
	</g>
	
		<image display="none" overflow="visible" width="2500" height="1688" xlink:href="../../../../Downloads/Cville-mac-desktop.png"  transform="matrix(0.4073 0 0 0.4073 216.3936 32.3086)">
	</image>
</g>
</svg>
