<?xml version="1.0" encoding="utf-8"?>
<!-- Generator: Adobe Illustrator 16.0.0, SVG Export Plug-In . SVG Version: 6.00 Build 0)  -->
<!DOCTYPE svg PUBLIC "-//W3C//DTD SVG 1.1//EN" "http://www.w3.org/Graphics/SVG/1.1/DTD/svg11.dtd">
<svg version="1.1" xmlns="http://www.w3.org/2000/svg" xmlns:xlink="http://www.w3.org/1999/xlink" x="0px" y="0px"
	 width="319.461px" height="334.245px" viewBox="-791.465 2212.912 319.461 334.245"
	 enable-background="new -791.465 2212.912 319.461 334.245" xml:space="preserve">
<g id="backgrounds">
</g>
<g id="Layer_1">
	<g>
		<defs>
			<path id="XMLID_4_" d="M-473.235,2381c0,87.262-70.738,158-158,158c-87.26,0-158-70.738-158-158c0-87.26,70.74-158,158-158
				C-543.973,2223-473.235,2293.74-473.235,2381z"/>
		</defs>
		<clipPath id="XMLID_17_">
			<use xlink:href="#XMLID_4_"  overflow="visible"/>
		</clipPath>
		
			<line clip-path="url(#XMLID_17_)" fill="#EADFE4" stroke="#2AA4C0" stroke-width="3" x1="-790.735" y1="2307.226" x2="-472.735" y2="2130"/>
		
			<line clip-path="url(#XMLID_17_)" fill="#EADFE4" stroke="#2AA4C0" stroke-width="3" x1="-790.735" y1="2334.226" x2="-472.735" y2="2157"/>
		
			<line clip-path="url(#XMLID_17_)" fill="#EADFE4" stroke="#2AA4C0" stroke-width="3" x1="-790.735" y1="2361.226" x2="-472.735" y2="2184"/>
		
			<line clip-path="url(#XMLID_17_)" fill="#EADFE4" stroke="#2AA4C0" stroke-width="3" x1="-790.735" y1="2388.226" x2="-472.735" y2="2211"/>
		
			<line clip-path="url(#XMLID_17_)" fill="#EADFE4" stroke="#2AA4C0" stroke-width="3" x1="-790.735" y1="2415.227" x2="-472.735" y2="2238"/>
		
			<line clip-path="url(#XMLID_17_)" fill="#EADFE4" stroke="#2AA4C0" stroke-width="3" x1="-790.735" y1="2442.227" x2="-472.735" y2="2265"/>
		
			<line clip-path="url(#XMLID_17_)" fill="#EADFE4" stroke="#2AA4C0" stroke-width="3" x1="-790.735" y1="2469.227" x2="-472.735" y2="2292"/>
		
			<line clip-path="url(#XMLID_17_)" fill="#EADFE4" stroke="#2AA4C0" stroke-width="3" x1="-790.735" y1="2496.227" x2="-472.735" y2="2319"/>
		
			<line clip-path="url(#XMLID_17_)" fill="#EADFE4" stroke="#2AA4C0" stroke-width="3" x1="-790.735" y1="2523.227" x2="-472.735" y2="2346"/>
		
			<line clip-path="url(#XMLID_17_)" fill="#EADFE4" stroke="#2AA4C0" stroke-width="3" x1="-790.735" y1="2550.227" x2="-472.735" y2="2373"/>
		
			<line clip-path="url(#XMLID_17_)" fill="#EADFE4" stroke="#2AA4C0" stroke-width="3" x1="-790.735" y1="2577.227" x2="-472.735" y2="2400"/>
		
			<line clip-path="url(#XMLID_17_)" fill="#EADFE4" stroke="#2AA4C0" stroke-width="3" x1="-790.735" y1="2604.227" x2="-472.735" y2="2427"/>
		
			<line clip-path="url(#XMLID_17_)" fill="#EADFE4" stroke="#2AA4C0" stroke-width="3" x1="-790.735" y1="2631.227" x2="-472.735" y2="2454"/>
	</g>
</g>
</svg>
