<?xml version="1.0" encoding="utf-8"?>
<!-- Generator: Adobe Illustrator 16.0.0, SVG Export Plug-In . SVG Version: 6.00 Build 0)  -->
<!DOCTYPE svg PUBLIC "-//W3C//DTD SVG 1.1//EN" "http://www.w3.org/Graphics/SVG/1.1/DTD/svg11.dtd">
<svg version="1.1" xmlns="http://www.w3.org/2000/svg" xmlns:xlink="http://www.w3.org/1999/xlink" x="0px" y="0px" width="466px"
	 height="412px" viewBox="-1012.5 874.5 466 412" enable-background="new -1012.5 874.5 466 412" xml:space="preserve">
<g id="backgrounds">
</g>
<g id="Layer_1">
	<g display="none">
		
			<line display="inline" fill="none" stroke="#EAC3D1" stroke-width="3" stroke-miterlimit="10" x1="-727.67" y1="931.317" x2="-631.432" y2="897.107"/>
		<circle display="inline" fill="#EAC3D1" cx="-718.418" cy="897.107" r="3.476"/>
		<path display="inline" fill="none" stroke="#EAC3D1" stroke-width="4" stroke-miterlimit="10" d="M-727.67,959.405
			c9.402,12.989,27.722,14.615,41.954,2.096c12.431-10.935,13.615-32.708,3.102-49.678c-8.768-14.153-15.404-29.372-6.465-41.802
			c10.499-14.602,27.008-3.952,27.008-3.952"/>
		<circle display="inline" fill="#EAC3D1" cx="-641.49" cy="925.517" r="3.477"/>
	</g>
	<g display="none">
	</g>
	<g>
		<line display="none" fill="none" stroke="#D4EEF6" stroke-width="18" x1="-1037.429" y1="1066.28" x2="-771.428" y2="852.28"/>
		<line fill="none" stroke="#D4EEF6" stroke-width="18" x1="-1002.38" y1="1101.329" x2="-736.38" y2="887.329"/>
		<line fill="none" stroke="#D4EEF6" stroke-width="18" x1="-967.332" y1="1136.378" x2="-701.333" y2="922.378"/>
		<line fill="none" stroke="#D4EEF6" stroke-width="18" x1="-932.284" y1="1171.427" x2="-666.284" y2="957.427"/>
		<line fill="none" stroke="#D4EEF6" stroke-width="18" x1="-897.235" y1="1206.476" x2="-631.235" y2="992.476"/>
		<line fill="none" stroke="#D4EEF6" stroke-width="18" x1="-862.187" y1="1241.524" x2="-596.187" y2="1027.524"/>
		<line fill="none" stroke="#D4EEF6" stroke-width="18" x1="-827.139" y1="1276.573" x2="-561.14" y2="1062.573"/>
	</g>
	<g>
		<line fill="none" x1="-977.096" y1="571.708" x2="-977.096" y2="950.565"/>
	</g>
</g>
</svg>
