<?xml version="1.0" encoding="utf-8"?>
<!-- Generator: Adobe Illustrator 16.0.0, SVG Export Plug-In . SVG Version: 6.00 Build 0)  -->
<!DOCTYPE svg PUBLIC "-//W3C//DTD SVG 1.1//EN" "http://www.w3.org/Graphics/SVG/1.1/DTD/svg11.dtd">
<svg version="1.1" xmlns="http://www.w3.org/2000/svg" xmlns:xlink="http://www.w3.org/1999/xlink" x="0px" y="0px"
	 width="1442.688px" height="619.416px" viewBox="-2133.571 94.017 1442.688 619.416"
	 enable-background="new -2133.571 94.017 1442.688 619.416" xml:space="preserve">
<g id="backgrounds">
</g>
<g id="Layer_1">
	<g display="none">
		<circle display="inline" fill="none" stroke="#F06490" stroke-width="3" cx="-15" cy="-411.626" r="740"/>
	</g>
	<circle fill="none" stroke="#F06490" stroke-width="3" cx="-12.312" cy="-409.369" r="740"/>
	<g>
		<path fill="#5676D8" d="M-2130.883,651.41c101.5-99.673,472.5-321.345,675.5-148.51c179.711,153.007,37.5,104.597,242-134.834
			c0-193.5-212.072,2-212.072,2l-705.428,101.971C-2130.883,472.036-2130.883,519.053-2130.883,651.41z"/>
		<path fill="#5676D8" d="M-1455.383,502.9c342,225.547,560,239.432,764.5,0c0-193.5-3.668-320.868-3.668-320.868L-1455.383,502.9
			C-1455.383,502.9-1677.95,356.118-1455.383,502.9z"/>
		<path fill="#3D52A1" d="M-2130.883,571.708c101.5-99.673,472.5-241.644,675.5-68.809c179.711,153.007,555.5,40.597,760-198.835
			c0-193.5,4.5-206.5,4.5-206.5h-1440C-2130.883,97.565-2130.883,439.352-2130.883,571.708z"/>
		<line fill="none" x1="-977.096" y1="571.708" x2="-977.096" y2="950.565"/>
		<linearGradient id="SVGID_1_" gradientUnits="userSpaceOnUse" x1="-1413.5708" y1="647.8618" x2="-1413.5708" y2="94.0166">
			<stop  offset="0" style="stop-color:#1F1F1F;stop-opacity:0.4"/>
			<stop  offset="1" style="stop-color:#4D4C4E;stop-opacity:0.4236"/>
			<stop  offset="1" style="stop-color:#FFFFFF"/>
		</linearGradient>
		<path fill="url(#SVGID_1_)" d="M-2133.571,374.517c0,0,110.77-106,324.135-78s290.297,139.5,499.365,271.644
			c247.98,156.738,436,66.908,616.5-135.644c0-193.5,0-338.5,0-338.5h-1440V374.517z"/>
	</g>
</g>
</svg>
