<?xml version="1.0" encoding="utf-8"?>
<!-- Generator: Adobe Illustrator 16.0.0, SVG Export Plug-In . SVG Version: 6.00 Build 0)  -->
<!DOCTYPE svg PUBLIC "-//W3C//DTD SVG 1.1//EN" "http://www.w3.org/Graphics/SVG/1.1/DTD/svg11.dtd">
<svg version="1.1" id="Layer_1" xmlns="http://www.w3.org/2000/svg" xmlns:xlink="http://www.w3.org/1999/xlink" x="0px" y="0px"
	 width="433.674px" height="436.617px" viewBox="0 0 433.674 436.617" enable-background="new 0 0 433.674 436.617"
	 xml:space="preserve">
<g>
	
		<ellipse transform="matrix(-0.9789 0.2041 -0.2041 -0.9789 -688.3381 581.1711)" display="none" fill="#2AA4C0" cx="-374.146" cy="255.082" rx="412.986" ry="239.278"/>
</g>
<g>
	<circle fill-rule="evenodd" clip-rule="evenodd" fill="#EAF2F4" cx="216.837" cy="219.782" r="216.837"/>
	<path fill-rule="evenodd" clip-rule="evenodd" fill="#D4EEF6" d="M431.523,245.939c-0.342-0.157-0.686-0.312-1.025-0.467
		c-1.035,2.767-2.342,5.464-3.065,8.312c-4.282,16.763-10.034,32.972-17.88,48.406c-0.967,1.903-2.164,3.684-3.408,5.782
		c-1.139-0.754-1.963-1.303-2.936-1.947c-42.158,76.641-107.405,111.468-194.191,107.166c5.119-1.506,10.236-3.011,15.359-4.52
		c0.074-0.397,0.145-0.795,0.22-1.194c-27.952,0.327-54.796-4.584-80.255-16.115c-0.213,0.323-0.423,0.649-0.635,0.969
		c1.831,1.823,3.656,3.645,5.484,5.468c-0.102,0.232-0.203,0.459-0.309,0.696c-4.58-1.987-9.332-3.65-13.703-6.022
		c-13.561-7.35-26.793-15.27-38.458-25.459c-3.606-3.152-6.522-7.088-9.901-10.516c-1.461-1.475-4.178-2.228-4.821-3.891
		c-2.317-5.983-7.091-10.068-10.585-15.109c-6.115-8.818-12.357-17.601-17.695-26.888c-4.525-7.883-7.944-16.412-11.664-24.742
		c-2.547-5.698-4.917-11.488-7.117-17.334c-6.041-16.048-7.848-32.941-9.684-49.817c-0.043-0.401-0.203-0.85-0.082-1.202
		c2.812-8.495-0.262-17.227,1.053-25.798c0.951-6.178,3.897-7.728,9.479-4.829c2.708,1.403,4.495-1.043,6.312-2.267
		c4.454-3,8.437-6.736,13.038-9.459c3.641-2.154,7.846-3.461,11.928-4.744c4.518-1.427,6.455-4.869,5.389-9.58
		c-1.092-4.816-2.537-9.76-2.393-14.604c0.223-7.766,1.395-15.539,2.667-23.22c0.476-2.84,2.159-5.563,3.685-8.112
		c2.211-3.706,4.777-7.206,6.658-11.322c-6.746,2.468-9.438,10.624-17.479,12.064c7.207-14.261,16.622-25.288,32.191-29.877
		c-0.268-0.521-0.537-1.042-0.804-1.563c-7.412,2.62-14.819,5.237-22.227,7.854c-0.087-0.166-0.179-0.334-0.267-0.502
		c3.674-1.79,7.344-3.586,11.016-5.377c-0.094-0.257-0.19-0.513-0.283-0.77c-2.406,0.843-4.814,1.693-7.218,2.537
		c-0.097-0.243-0.192-0.484-0.286-0.729c5.266-2.141,10.438-4.557,15.818-6.343c5.08-1.687,10.373-2.736,15.59-4.003
		c1.027-0.247,2.197-0.473,3.187-0.231c10.589,2.583,21.433,4.48,31.659,8.125c10.729,3.831,20.881,9.31,31.222,14.201
		c1.052,0.501,2.392,1.95,2.354,2.911c-0.129,3.456,2.738,4.143,4.529,3.967c5.229-0.52,7.895,3.335,10.371,6.229
		c7.328,8.57,14.459,17.405,20.695,26.78c7.666,11.522,12.771,24.3,14.561,38.198c0.049,0.368-0.025,0.79-0.166,1.138
		c-0.082,0.199-0.416,0.299-0.997,0.683c-0.618-1.521-1.211-2.979-2.05-5.042c-0.934,4.703-0.457,5.348,3.395,6.581
		c0.822,0.265,1.783,1.285,1.99,2.127c1.969,8.196,4.375,16.352,5.418,24.677c0.541,4.323-1.492,8.944-2.184,13.457
		c-0.273,1.82-0.18,3.719-0.08,5.572c0.178,3.266,3.025,4.947,5.908,3.581c3.194-1.511,3.795-1.126,3.51,2.355
		c-0.065,0.792-0.293,1.575-0.05,2.602c0.993-1.852,1.987-3.7,3.245-6.038c3.014,6.038,1,13.411-3.303,16.715
		c-2.454,1.886-4.234,4.654-6.371,7.084c-0.303-0.166-0.883-0.483-1.457-0.801c-0.327,0.695-1.13,1.761-0.924,2.031
		c3.6,4.562,1.74,9.041,0.377,13.897c1.127-1.528,2.088-3.225,3.418-4.548c1.471-1.46,3.393-2.456,4.905-3.883
		c1.395-1.318,3.175-2.766,3.616-4.462c1.218-4.655,3.137-8.972,2.972-14.244c-0.172-5.536,2.483-11.159,3.908-16.764
		c1.163-0.34,2.46-0.717,3.952-1.153c0.494,0.663,1.244,1.686,2.748,3.716c1.172-4.611,2.093-8.245,3.311-13.064
		c0.461,2.904,0.734,4.636,1.002,6.278c3.941,0.568,5.294-1.062,5.258-4.659c-0.031-3.083,0.758-6.176,0.652-9.248
		c-0.049-1.497-1.311-2.952-2.026-4.426c-0.973,1.194-2.045,2.325-2.864,3.615c-0.299,0.478,0.006,1.339,0.031,2.025
		c-0.695-0.118-1.4-0.229-2.098-0.344c-0.524-4.822-1.047-9.647-1.654-15.244c5.143,1.458,2.656,6.249,5.9,8.201
		c0.196-5.452,0.381-10.631,0.566-15.81c5.377,1.339,4.949,6.444,6.318,10.123c1.562,4.223,1.543,8.289-1.838,12.455
		c-3.582,4.412-1.121,11.611,4.542,15.938c0.632-1.781,1.224-3.45,1.903-5.375c2.111,1.144,4.1,1.952,5.791,3.177
		c2.9,2.101,3.248,7.521,0.518,11.284c-1.758,2.425-3.912,4.649-6.229,6.559c-3.936,3.247-4.557,10.132-0.693,12.281
		c0.859,0.479,2.678,0.21,3.51-0.426c1.793-1.371,3.313-3.133,4.791-4.863c2.209-2.584,4.908-3.136,8.021-2.26
		c3.65,1.027,6.75,0.618,10.199-1.569c3.162-2.01,7.297-2.446,10.953-3.735c6.576-2.314,13.105-4.762,19.664-7.118
		c1.506-0.542,3.037-1.2,4.592-1.299c0.706-0.043,1.489,1.142,2.238,1.768c-0.004,0.616-0.006,1.226-0.014,1.843
		c3.885-2.307,7.768-4.61,11.75-6.977c0.635,0.73,1.332,1.531,2.803,3.221c-0.252-3.159-0.349-5.199-0.587-7.221
		c-0.284-2.336-1.312-4.615,1.406-6.522c0.829-0.582,0.84-2.749,0.752-4.158c-0.29-4.706-0.663-9.414-1.239-14.095
		c-3.652-29.605-11.207-58.074-24.452-84.954c-6.614-13.428-12.696-27.118-19.139-40.635c-4.806-10.097-9.784-20.11-14.724-30.146
		c-0.342-0.686-0.887-1.478-1.542-1.777c-4.084-1.896-8.231-3.67-12.362-5.476c-2.753-1.202-5.457-2.542-8.278-3.569
		c-6.935-2.522-13.825-5.227-20.905-7.273c-17.265-4.994-34.987-4.477-52.735-4.048c-17.044,0.413-33.584,3.598-50.255,6.897
		c-15.441,3.054-28.799,9.944-42.01,17.93c21.68-4.367,43.023-4.588,63.648,4.717c-11.318-2.414-22.576-5.456-34.318-4.116
		c22.145,4.343,42.146,13.016,59.053,28.358c-13.275-7.879-26.42-16.09-42.588-18.583c0.859,1.112,1.433,1.851,2.211,2.857
		c-3.587-0.616-6.729-1.153-9.848-1.688c-2.07,4.867-6.672,3.277-10.019,3.42c-6.109,0.257-12.258-0.924-18.401-1.083
		c-11.787-0.309-22.94,2.695-33.781,7.057c-4.577,1.842-9.148,3.719-14.849,6.036c1.136-1.916,1.626-3.157,2.463-4.076
		c2.45-2.665,5.013-5.23,7.583-7.784c20.188-20.081,43.295-35.71,70.014-45.814c32.473-12.276,65.9-15.501,100.262-11.009
		c21.787,2.848,43.049,7.324,62.629,17.702c8.911,4.721,17.451,10.149,26.389,14.816c3.764,1.966,2.09,3.402,10.243,7.014
		C374.719,51.998,446.996,123.24,431.523,245.939z M76.4,290.913c0.816,5.067,1.027,10.317,2.541,15.161
		c12.809,41.027,41.899,65.574,81.598,78.345c23.4,7.525,47.438,7.743,71.469,1.941c32.264-7.8,58.412-25.182,78.75-51.056
		c16.795-21.371,27.084-45.653,29.025-73.077c0.107-1.497-0.299-3.029-0.471-4.544c-0.7-0.12-1.398-0.241-2.098-0.356
		c-0.387,1.696-1.104,3.392-1.098,5.089c0.02,4.371-3.312,5.666-6.309,7.018c-9.114,4.115-18.319,8.037-27.514,11.957
		c-2.295,0.978-4.655,2.103-7.08,2.418c-7.096,0.924-13.163,3.994-18.409,8.59c-2.98,2.613-5.868,3.253-9.157,1.275
		c-2.424-1.458-4.172-0.818-6.029,0.935c-3.074,2.888-6.143,5.809-9.471,8.382c-1.203,0.932-3.167,1.29-4.76,1.226
		c-4.268-0.172-6.762,2.651-5.73,7.954c5.866-3.469,11.478-6.786,16.523-9.771c2.55,1.75,4.639,3.181,6.802,4.66
		c-1.07,2.124-4.099,2.5-7.411,0.785c-1.07-0.552-3.055-0.835-3.831-0.229c-6.241,4.857-12.853,8.932-20.187,12.003
		c-2.579,1.079-4.581,3.706-6.58,5.873c-0.637,0.689-0.008,2.635-0.656,3.2c-1.443,1.259-3.242,2.266-5.061,2.896
		c-1.826,0.636-3.852,0.688-5.79,0.994c-0.197-0.397-0.397-0.792-0.595-1.188c4.043-3.389,8.088-6.773,12.133-10.164
		c-8.4,4.704-16.326,9.954-24.732,14.254c-8.642,4.414-17.967,7.03-27.729,8.026c-11.9,1.216-23.402,0.487-28.297-2.425
		c2.891,0.394,5.326,0.668,7.738,1.057c11.67,1.896,23.012,0.463,34.078-3.453c1.072-0.38,2.107-1.189,2.869-2.06
		c2.068-2.37,3.76-5.104,6.008-7.271c2.518-2.428,5.655-4.211,8.208-6.609c2.94-2.766,5.538-5.901,8.427-9.03
		c-1.422-1.117-2.186-1.565-2.755-2.192c-2.525-2.783-6.163-2.777-8.611-0.026c-2.659,2.989-5.423,5.88-8.091,8.856
		c-0.585,0.653-0.949,1.499-1.187,1.883c1.599,0.982,2.745,1.684,3.89,2.389c-0.826,1.023-1.478,2.32-2.525,2.995
		c-1.047,0.673-2.602,0.502-3.746,1.079c-3.023,1.516-5.793,3.967-9.588,2.072c0.959-1.865,1.819-3.524,3.048-5.916
		c-5.669,2.308-10.452,4.506-15.414,6.188c-3.876,1.314-8.024,2.665-11.739-1c2.182-0.324,4.326-0.471,6.377-0.99
		c2.902-0.736,7.451-0.992,8.24-2.792c1.76-4.018,5.447-4.476,8.135-6.633c0.599-0.481,1.146-1.034,1.998-1.814
		c-5.828-0.865-11.1-1.807-16.412-2.327c-1.258-0.121-2.654,1.178-3.986,1.822c0.137,0.36,0.271,0.724,0.413,1.082
		c2.734,0.859,5.465,1.716,8.198,2.573c-0.066,0.42-0.133,0.844-0.199,1.265c-11.143,2.352-22.349,2.239-33.099-1.986
		c-8.287-3.259-15.634-8.195-19.907-17.083c2.744,0.369,4.949,0.667,7.152,0.969c0.105-0.428,0.216-0.856,0.32-1.279
		c-1.864-0.784-3.686-1.811-5.632-2.234c-0.798-0.169-2.344,0.761-2.698,1.563c-0.373,0.849,0.002,2.294,0.516,3.218
		c1.645,2.949,3.556,5.749,5.235,8.684c0.354,0.626,0.157,1.57,0.255,2.931c-5.385-3.237-11.627-4.43-12.791-11.96
		c-3.307,4.766,0.605,7.999,0.947,11.733c-5.843-3.539-6.541-9.84-9.109-15.159c0.079,1.915,0.165,3.83,0.268,6.33
		c-6.049-3.504-7.6-9.692-11.809-14.949c2.633-0.689,4.809-1.262,7.555-1.979c-2.643-1.658-5.088-2.758-6.942-4.488
		c-1.763-1.642-3.974-3.889-4.088-5.973c-0.192-3.595-2.161-5.172-4.386-7.205c-6.029,6.508-0.539,12.252,0.258,17.869
		c-0.921-0.972-2.008-2.11-3.247-3.416c-0.94,1.49-1.485,2.362-2.035,3.259c-0.399-0.785-0.804-1.566-1.456-2.849
		c-0.541,1.38-0.885,2.273-1.492,3.828c-0.522-4.669-1.287-8.619-1.292-12.57c-0.006-2.622-0.536-4.258-3.028-5.285
		c-1.934-0.795-2.891-1.92-1.668-4.396c1.832-3.697-0.557-9.39-4.168-10.853c-2.87-1.165-5.422-2.413-6.345-5.894
		c-0.366-1.375-2.135-2.375-3.265-3.549c-0.334,0.205-0.672,0.409-1.007,0.615c1.164,3.796,2.33,7.595,3.481,11.354
		c-3.062,1.048-6.113-3.415-8.877,1.114c1.49,1.508,3.199,2.807,4.318,4.493c1.033,1.555,2.213,3.671,1.928,5.29
		c-0.378,2.147-0.068,3.12,1.377,4.786c1.285,1.489,4.801,4.095,1.955,6.078c-3.756,2.619-2.951,5.198-1.891,8.365
		c0.535,1.613,1.006,3.25,1.6,5.188c-1.701,0.189-2.863,0.323-4.168,0.473c0.342,2.328,0.635,4.37,0.85,5.839
		c1.755-0.502,2.674-1.037,3.555-0.974c4.441,0.319,4.865,4.455,5.967,7.295c2.498,6.436,6.092,11.99,10.746,16.998
		c1.879,2.018,3.582,4.217,5.174,6.467c1.299,1.837,2.288,3.892,3.479,5.812c1.078,1.742,2.238,3.435,3.365,5.15
		c-6.818-11.816-11.604-24.326-13.613-37.766c-0.445-2.998,0.819-6.254,1.299-9.389c0.355,0.052,0.713,0.102,1.072,0.151
		c0.496,2.303,0.994,4.606,1.492,6.907c0.135-0.041,0.271-0.082,0.411-0.127C76.257,299.393,76.327,295.153,76.4,290.913z
		 M92.206,188.461c-0.329,0.223-0.659,0.447-0.986,0.67c4.983,1.555,9.999,3.032,14.954,4.683
		c13.088,4.364,25.283,10.476,36.192,18.993c13.228,10.33,23.954,22.824,32.39,37.34c1.557,2.676,3.742,4.988,5.791,7.666
		c0.161-0.139-0.419,0.353-0.996,0.844c1.797,0.533,3.358,0.217,4.912-0.127c2.072-0.461,2.808,0.479,2.48,2.414
		c-0.617,3.604-3.235,3.397-6.17,2.639c0.596,5.021,1.24,9.61,1.654,14.219c0.197,2.25,1.15,3.118,3.352,2.929
		c7.939-0.681,15.895-1.191,23.811-2.076c1.287-0.145,2.855-1.619,3.496-2.885c0.938-1.854,1.426-4.05,1.624-6.15
		c0.386-4.136,0.239-8.325,0.673-12.454c0.637-6.045,2.411-12.082,2.248-18.08c-0.518-19.345-3.947-38.19-11.539-56.151
		c-9.916-23.466-24.836-42.718-45.783-57.586c-11.812-8.382-33.751-6.017-43.492,1.401c-5.925,4.515-10.717,9.856-8.712,18.158
		c2.861,11.839,8.731,22.115,17.063,30.939c3.83,4.051,3.975,3.898-0.264,7.302c-0.37,0.297-0.557,0.821-0.887,1.189
		c-1.758,1.957-3.402,1.773-4.929-0.298c-1.53-2.09-2.688-4.666-4.661-6.17c-5.453-4.149-8.557-9.801-10.35-16.026
		c-2.467-8.583-9.414-16.374-4.873-26.38c-4.994,6.154-7.994,12.966-9.258,20.508c-0.598,3.562-0.755,7.207-1.472,10.742
		c-1.243,6.137,1.02,11.789,2.093,17.603C90.831,185.75,91.645,187.082,92.206,188.461z M352.326,142.945
		c-5.852-9.596-11.132-18.257-16.411-26.919c-0.481,0.207-0.96,0.415-1.438,0.624c2.376,3.544,4.26,7.178,2.665,11.438
		c-0.04,0.112,0.353,0.345,0.456,0.563c3.039,6.438,6.191,12.823,9.034,19.348c1.345,3.079,2.099,6.419,3.118,9.642
		c-0.488,0.193-0.977,0.389-1.464,0.582c-4.478-7.482-8.993-14.943-13.421-22.457c-5.83-9.902-12.854-19.123-16.639-21.063
		c3.102,6.078,5.998,11.469,8.627,16.985c2.621,5.519,5.04,11.143,7.436,16.768c2.236,5.257,4.318,10.575,6.471,15.868
		c-0.232,0.093-0.469,0.183-0.705,0.275c-0.727-1.035-1.462-2.072-2.191-3.109c-0.333,0.173-0.668,0.345-1.004,0.52
		c1.895,4.657,3.789,9.313,5.686,13.978c0.104-0.962,0.207-1.896,0.309-2.833c0.611,0.022,1.225,0.042,1.837,0.061
		c0.944,2.321,2.039,4.595,2.804,6.974c1.872,5.85,2.686,12.252,5.607,17.498c3.635,6.532,4.592,13.275,5.157,20.361
		c0.304,3.814,0.874,7.605,1.321,11.411c0.5-0.062,1.002-0.124,1.5-0.185c1.828-11.402,1.723-22.717-3.008-34.594
		c4.838,2.172,6.459,5.065,6.893,8.969c0.679,6.066,1.559,12.113,2.355,18.166c2.773-8.642-0.486-16.884-1.473-26.053
		c3.081-0.155,5.886-0.294,7.881-0.396c1.127-2.348,1.602-5.315,3.314-6.546c5.662-4.065,5.777-5.977-0.322-9.413
		c-0.153-0.082-0.143-0.453-0.207-0.69c0.367,0.017,0.732,0.03,1.102,0.044c0.228-2.639,1.361-5.619,0.52-7.854
		c-2.656-7.042-3.455-14.677-8.803-20.903c-6.48-7.547-11.684-16.186-17.514-24.302c-1.654-2.306-3.568-4.432-5.364-6.642
		c-0.467,0.241-0.929,0.48-1.396,0.72C347.378,127.175,349.701,134.568,352.326,142.945z M158.721,277.812
		c-0.916-8.911-4.674-14.733-10.488-19.401c-1.262-1.018-3.719-2.378-3.546-3.057c1.031-4.082-2.548-4.456-4.438-5.907
		c-8.741-6.694-18.766-7.43-28.998-5.021c-4.651,1.091-9.039,3.469-13.396,5.583c-2.992,1.452-2.023,3.228,0.252,4.702
		c3.882,2.522,7.791,5.002,11.597,7.639c0.752,0.521,1.56,1.73,1.46,2.502c-0.111,0.799-1.195,1.868-2.033,2.07
		c-1.473,0.357-3.168,0.475-4.615,0.095c-2.686-0.714-5.264-1.852-8.162-2.915c2.758,4.153,5.277,7.951,8.248,12.43
		c3.741-1.734,7.563-3.395,11.285-5.268c3.453-1.739,6.123-1.443,8.572,1.723c1.646,2.127,3.018,2.188,4.951,0.515
		c0.785-0.675,2.049-1.403,2.93-1.238c5.381,1.005,10.709,2.28,16.061,3.429C151.619,276.383,154.85,277.016,158.721,277.812z
		 M160.249,251.132c0.552-0.191,1.104-0.379,1.657-0.567c0.137-1.922,1.14-4.525,0.254-5.648c-3.764-4.802-7.539-9.89-12.33-13.534
		c-8.034-6.111-16.635-11.565-25.414-16.576c-5.037-2.872-10.833-4.479-16.404-6.323c-2.003-0.661-4.33-0.348-6.506-0.481
		c-0.16,0.67-0.321,1.341-0.477,2.011c2.023,0.872,4.016,1.838,6.081,2.604c4.461,1.66,8.991,3.139,13.411,4.896
		c0.697,0.272,0.963,1.618,1.428,2.474c-0.806,0.322-1.585,0.76-2.418,0.924c-0.553,0.106-1.176-0.189-2.234-0.396
		c1.803,2.859,3.19,5.438,4.943,7.735c1.477,1.937,3.102,4.047,5.156,5.196c3.924,2.188,8.19,3.76,12.322,5.57
		c2.482,1.089,4.979,2.143,8.047,3.467c-0.366-2.185-0.576-3.454-0.789-4.722c0.239-0.168,0.484-0.336,0.729-0.502
		C151.889,241.881,156.066,246.506,160.249,251.132z M86.035,215.824c-4.135-4.705-6.078-5.117-10.578-2.988
		c-2.181,1.027-4.527,3.218-6.477,2.9c-3.295-0.534-5.493,0.859-8.062,2.07c-2.798,1.316-3.048,3.117-1.323,5.388
		c1.738,2.286,3.732,4.389,5.361,6.75c2.025,2.933,5.783,4.073,9.12,2.474c-1.696-2.819,0.685-11.22,3.714-12.999
		c0.424-0.249,0.943-0.326,1.402-0.525C81.324,217.945,83.451,216.986,86.035,215.824z M320.611,341.34
		c0.402,0.309,0.807,0.616,1.206,0.923c0.884-0.921,1.837-1.784,2.636-2.772c9.679-11.924,16.496-25.455,22.066-39.653
		c1.553-3.96,2.747-8.073,3.794-12.196c0.255-1.001-0.728-2.313-1.14-3.485c-0.365,0.121-0.73,0.246-1.092,0.366
		c-0.621,2.157-1.197,4.329-1.867,6.471c-0.905,2.868-1.506,5.911-2.891,8.529c-4.028,7.605-8.425,15.008-12.595,22.539
		c-1.98,3.575-3.752,7.26-5.646,10.881C323.613,335.754,322.104,338.541,320.611,341.34z M306.828,261.595
		c-0.154-0.274-0.31-0.546-0.461-0.821c-3.788,1.539-7.585,3.073-11.371,4.624c-2.979,1.226-6.404,1.907-8.801,3.853
		c-2.894,2.351-5.463,2.949-8.917,1.961c-1.521-0.434-3.683-0.469-4.913,0.32c-2.161,1.379-4.311,3.249-5.598,5.427
		c-1.995,3.374-4.302,4.622-7.246,3.146c-1.023,1.149-1.861,2.089-2.896,3.249c5.494,1.734,8.808-0.399,12.223-2.979
		c1.845-1.396,4.275-2.119,6.541-2.836c2.658-0.842,5.658-0.881,8.083-2.105c4.231-2.137,8.106-4.967,12.187-7.412
		C299.344,265.815,303.102,263.732,306.828,261.595z M371.898,207.755c0.725,2.386,1.352,4.247,1.848,6.139
		c0.754,2.88,1.414,5.786,2.273,9.32c0.44-0.302-0.406-0.013-0.439,0.352c-0.131,1.396,0.004,2.817,0.033,4.236
		c1.002-0.231,2.228-0.169,2.96-0.74c2.745-2.141,4.036-4.836,3.284-8.532c-0.311-1.514,0.611-3.261,0.88-4.915
		c0.088-0.515-0.009-1.12-0.21-1.608c-1.562-3.766-3.1-7.546-4.819-11.241c-0.415-0.895-1.487-1.486-2.257-2.216
		c-0.342,0.072-0.684,0.15-1.027,0.229C375.139,202.674,375.215,206.298,371.898,207.755z M161.235,276.61
		c0.365,0.279,0.731,0.554,1.095,0.833c2.022-2.737,3.24-1.061,5.053,0.387c1.145,0.912,3.396,0.935,4.959,0.561
		c0.564-0.135,1.266-3.037,0.707-3.914c-2.228-3.519-4.936-6.736-7.465-10.065c-0.502,0.235-1.006,0.464-1.508,0.694
		c-0.021,2.776-0.043,5.555-0.055,7.221C162.797,274.211,162.016,275.413,161.235,276.61z M329.23,257.342
		c6.777-1.655,8.865-3.884,8.294-9.547c-3.155,1.282-6.29,2.141-8.849,3.867C327.962,252.143,328.977,255.182,329.23,257.342z
		 M332.574,358.691c0.354,0.289,0.71,0.578,1.07,0.863c6.321-6.662,12.92-13.093,17.912-20.868c-0.439-0.368-0.885-0.739-1.33-1.108
		C344.342,344.613,338.457,351.651,332.574,358.691z M324.104,251.314c-0.219-0.352-0.433-0.701-0.65-1.054
		c-3.809,2.463-7.617,4.925-11.43,7.388c0.283,0.447,0.566,0.896,0.846,1.346C316.912,256.925,322.238,256.985,324.104,251.314z
		 M163.15,311.013c-9.438,4.565-18.053,1.188-27.01-3.052C143.614,315.341,155.203,316.267,163.15,311.013z M67.312,247.135
		c-0.135-4.367-3.618-7.239-7.021-6.175C62.614,243.005,64.673,244.816,67.312,247.135z M197.157,291.576
		c0.067,0.427,0.137,0.855,0.208,1.282c3.375,1.417,7.572,0.499,8.572-2.251C202.859,290.946,200.008,291.26,197.157,291.576z
		 M229.516,286.212c-2.423,0.985-4.843,1.969-7.266,2.954c0.143,0.352,0.287,0.704,0.429,1.055
		C225.496,290.187,228.633,290.99,229.516,286.212z M146.307,285.812c0.061-0.177,0.119-0.354,0.18-0.538
		c-2.518-0.872-5.014-1.825-7.568-2.565c-0.654-0.188-1.508,0.315-2.27,0.499c0.572,0.654,1.07,1.766,1.734,1.873
		C140.996,285.495,143.664,285.593,146.307,285.812z M219.391,306.254c-2.859,1.16-4.664,1.896-6.762,2.748
		c0.414,1.271,0.781,2.391,1.334,4.091C215.93,310.617,217.365,308.809,219.391,306.254z M139.381,305.252
		c-0.18,0.333-0.365,0.666-0.545,1.002c1.246,0.893,2.422,1.933,3.777,2.608c0.483,0.24,1.402-0.392,2.123-0.625
		c-0.364-0.666-0.58-1.694-1.129-1.919C142.281,305.764,140.802,305.584,139.381,305.252z M365.648,318.373
		c-4.336-0.417-4.56-0.011-3.14,5.838C363.679,322.037,364.627,320.273,365.648,318.373z M353.74,298.535
		c-0.414-0.158-0.829-0.318-1.244-0.477c-1.07,2.774-2.135,5.548-3.203,8.321c0.389,0.153,0.781,0.303,1.17,0.453
		C351.556,304.067,352.647,301.302,353.74,298.535z M377.549,158.108c0.161-0.084,0.32-0.165,0.48-0.246
		c-1.082-2.661-2.164-5.321-3.246-7.982c-0.158,0.087-0.316,0.172-0.476,0.257C375.389,152.794,376.469,155.451,377.549,158.108z"/>
</g>
</svg>
