<?xml version="1.0" encoding="utf-8"?>
<!-- Generator: Adobe Illustrator 16.0.0, SVG Export Plug-In . SVG Version: 6.00 Build 0)  -->
<!DOCTYPE svg PUBLIC "-//W3C//DTD SVG 1.1//EN" "http://www.w3.org/Graphics/SVG/1.1/DTD/svg11.dtd">
<svg version="1.1" id="Layer_1" xmlns="http://www.w3.org/2000/svg" xmlns:xlink="http://www.w3.org/1999/xlink" x="0px" y="0px"
	 width="719.952px" height="460.478px" viewBox="0 0 719.952 460.478" enable-background="new 0 0 719.952 460.478"
	 xml:space="preserve">
<g>
	
		<ellipse transform="matrix(-0.9789 0.2041 -0.2041 -0.9789 1103.0469 98.5852)" display="none" fill="#2AA4C0" cx="546.438" cy="106.187" rx="412.986" ry="239.278"/>
</g>
<g>
	<polygon display="none" fill="#FFFFFF" points="174.711,449.54 166.963,449.932 162.893,456.535 160.127,449.287 152.588,447.458 
		158.627,442.586 158.037,434.851 164.535,439.089 171.711,436.139 169.688,443.629 	"/>
	<polygon fill="#FFFFFF" points="586.563,47.281 578.815,47.673 574.746,54.276 571.979,47.028 564.44,45.199 570.479,40.327 
		569.89,32.592 576.388,36.83 583.563,33.88 581.54,41.37 	"/>
	<polygon display="none" fill="#FFFFFF" points="81.07,464.533 67.262,471.613 65.271,486.997 54.271,476.057 39.021,478.915 
		46.029,465.073 38.598,451.453 53.929,453.84 64.586,442.566 67.051,457.883 	"/>
	<g>
		<polygon fill="#FFFFFF" points="564.73,354.808 568.134,363.039 564.73,371.661 562.461,363.234 		"/>
		<polyline fill="#FFFFFF" points="556.871,364.369 565.297,362.1 573.725,364.369 		"/>
	</g>
	<g>
		<polygon fill="#FFFFFF" points="652.084,127.549 643.223,126.644 637.246,119.559 645.74,121.557 		"/>
		<polyline fill="#FFFFFF" points="647.393,116.097 645.395,124.592 639.402,130.936 		"/>
	</g>
	<g display="none">
		<polygon display="inline" fill="#FFFFFF" points="38.506,363.234 37.931,354.346 43.928,347.277 43.365,355.985 		"/>
		<polyline display="inline" fill="#FFFFFF" points="49.023,356.71 40.314,356.147 33.064,351.288 		"/>
	</g>
	<g display="none">
		<polygon display="inline" fill="#FFFFFF" points="88.343,401.169 88.541,401.411 93.66,407.692 94.932,415.696 94.98,416.004 
			94.783,415.761 89.664,409.479 88.391,401.478 		"/>
		<polygon display="inline" fill="#FFFFFF" points="98.954,405.003 98.648,405.063 90.699,406.622 84.604,411.964 84.368,412.17 
			84.676,412.109 92.627,410.55 98.719,405.208 		"/>
	</g>
	<g>
		<polygon fill="#FFFFFF" points="46.279,34.017 46.478,34.259 51.597,40.54 52.868,48.544 52.917,48.852 52.72,48.608 
			47.601,42.327 46.327,34.325 		"/>
		<polygon fill="#FFFFFF" points="56.891,37.851 56.585,37.911 48.636,39.47 42.54,44.812 42.305,45.018 42.612,44.957 
			50.563,43.397 56.655,38.056 		"/>
	</g>
	<g>
		<polygon fill="#FFFFFF" points="618.908,223.845 622.312,232.076 618.908,240.698 616.639,232.271 		"/>
		<polyline fill="#FFFFFF" points="611.049,233.406 619.475,231.137 627.902,233.406 		"/>
		<polyline fill="#FFFFFF" points="611.049,233.137 619.475,235.406 627.902,233.137 		"/>
	</g>
	<g>
		<polygon fill="#FFFFFF" points="83.801,256.474 87.205,264.705 83.801,273.327 81.531,264.9 		"/>
		<polyline fill="#FFFFFF" points="75.941,266.035 84.368,263.766 92.795,266.035 		"/>
		<polyline fill="#FFFFFF" points="75.941,265.766 84.368,268.035 92.795,265.766 		"/>
	</g>
	<g display="none">
		<polygon display="inline" fill="#FFFFFF" points="133.107,365.973 136.512,374.204 133.107,382.826 130.838,374.399 		"/>
		<polyline display="inline" fill="#FFFFFF" points="125.248,375.534 133.675,373.265 142.102,375.534 		"/>
		<polyline display="inline" fill="#FFFFFF" points="125.248,375.265 133.675,377.534 142.102,375.265 		"/>
	</g>
	<g>
		<polygon fill="#FFFFFF" points="119.814,34.143 123.219,42.374 119.814,50.996 117.546,42.569 		"/>
		<polyline fill="#FFFFFF" points="111.955,43.704 120.383,41.435 128.809,43.704 		"/>
		<polyline fill="#FFFFFF" points="111.955,43.435 120.383,45.704 128.809,43.435 		"/>
	</g>
</g>
</svg>
