<?xml version="1.0" encoding="utf-8"?>
<!-- Generator: Adobe Illustrator 16.0.0, SVG Export Plug-In . SVG Version: 6.00 Build 0)  -->
<!DOCTYPE svg PUBLIC "-//W3C//DTD SVG 1.1//EN" "http://www.w3.org/Graphics/SVG/1.1/DTD/svg11.dtd">
<svg version="1.1" id="Layer_1" xmlns="http://www.w3.org/2000/svg" xmlns:xlink="http://www.w3.org/1999/xlink" x="0px" y="0px"
	 width="205.489px" height="161.295px" viewBox="0 0 205.489 161.295" enable-background="new 0 0 205.489 161.295"
	 xml:space="preserve">
<g>
	<path fill="none" stroke="#EAC3D1" stroke-width="3" stroke-miterlimit="10" d="M197.261,24.767
		c-4.99-8.453-49.121,8.354-98.574,37.538s-85.498,59.693-80.512,68.147"/>
	<path fill="none" stroke="#F06490" stroke-width="3" stroke-miterlimit="10" d="M188.407,29.991
		c-4.498-7.617-44.264,7.527-88.828,33.826c-44.562,26.299-77.045,53.791-72.549,61.41"/>
	<circle fill="#FFFFFF" stroke="#EADFE4" stroke-miterlimit="10" cx="107.72" cy="77.61" r="65.333"/>
	<g>
		<path display="none" fill="none" stroke="#2AA4C0" stroke-width="3" stroke-miterlimit="10" d="M42.657,71.583
			c-22.869,19.9-34.561,39.839-28.047,51.79c9.873,18.114,57.844,11.017,107.146-15.855c49.301-26.872,81.264-63.341,71.389-81.455
			c-6.162-11.308-27.166-12.79-54.072-5.774"/>
	</g>
	<path fill="none" stroke="#F06490" stroke-width="3" stroke-miterlimit="10" d="M27.03,125.228
		c4.494,7.616,44.264-7.528,88.828-33.827c44.562-26.298,77.043-53.791,72.549-61.409"/>
	<path fill="none" stroke="#EAC3D1" stroke-width="3" stroke-miterlimit="10" d="M18.175,130.452
		c4.99,8.451,49.123-8.354,98.576-37.537c49.453-29.185,85.498-59.695,80.51-68.148"/>
</g>
</svg>
