<?xml version="1.0" encoding="utf-8"?>
<!-- Generator: Adobe Illustrator 16.0.0, SVG Export Plug-In . SVG Version: 6.00 Build 0)  -->
<!DOCTYPE svg PUBLIC "-//W3C//DTD SVG 1.1//EN" "http://www.w3.org/Graphics/SVG/1.1/DTD/svg11.dtd">
<svg version="1.1" id="Layer_1" xmlns="http://www.w3.org/2000/svg" xmlns:xlink="http://www.w3.org/1999/xlink" x="0px" y="0px"
	 width="754.924px" height="461.97px" viewBox="0 0 754.924 461.97" enable-background="new 0 0 754.924 461.97"
	 xml:space="preserve">
<polygon fill="#2AA4C0" points="647.58,66.663 630.579,56.974 612.122,63.479 617.049,46.63 603.797,33.194 623.844,32.472 
	634.108,17.661 641.571,34.062 661.17,38.346 645.736,49.205 "/>
<ellipse transform="matrix(0.9789 0.2041 -0.2041 0.9789 55.1033 -72.1927)" fill="none" stroke="#2AA4C0" stroke-miterlimit="10" cx="377.462" cy="230.983" rx="382.253" ry="221.472"/>
<polygon fill="#2AA4C0" points="190.015,464.073 147.728,458.781 119.394,490.614 111.361,448.761 72.329,431.649 109.651,411.077 
	113.862,368.669 144.962,397.807 186.598,388.707 168.496,427.288 "/>
<polygon fill="#2AA4C0" points="191.471,20.495 182.067,16.51 173.452,21.995 174.338,11.819 166.458,5.32 176.409,3.02 
	180.154,-6.483 185.419,2.27 195.614,2.896 188.916,10.606 "/>
<polygon fill="#2AA4C0" points="120.465,60.592 109.755,49.661 94.678,52.284 101.766,38.721 94.61,25.192 109.7,27.741 
	120.355,16.756 122.594,31.895 136.335,38.633 122.628,45.442 "/>
<polygon fill="#EAC3D1" points="556.877,367.125 569.87,342.641 557.068,318.056 584.37,322.849 603.796,303.076 607.676,330.521 
	632.483,342.887 607.579,355.057 603.485,382.473 584.215,362.547 "/>
</svg>
