<?xml version="1.0" encoding="utf-8"?>
<!-- Generator: Adobe Illustrator 16.0.0, SVG Export Plug-In . SVG Version: 6.00 Build 0)  -->
<!DOCTYPE svg PUBLIC "-//W3C//DTD SVG 1.1//EN" "http://www.w3.org/Graphics/SVG/1.1/DTD/svg11.dtd">
<svg version="1.1" id="Layer_1" xmlns="http://www.w3.org/2000/svg" xmlns:xlink="http://www.w3.org/1999/xlink" x="0px" y="0px"
	 width="612px" height="1738.961px" viewBox="0 0 612 1738.961" enable-background="new 0 0 612 1738.961" xml:space="preserve">
<path display="none" fill-rule="evenodd" clip-rule="evenodd" fill="#FFFFFF" d="M378.914,58.611
	c82.242,0,148.913,66.67,148.913,148.913c0,14.358-2.038,28.239-5.83,41.376c21.841-23.797,35.178-55.526,35.178-90.374
	c0-73.838-59.857-133.696-133.695-133.696c-39.396,0-74.808,17.042-99.275,44.153C341.141,62.291,359.598,58.611,378.914,58.611z"/>
<path display="none" fill="#090405" stroke="#090405" d="M211.426,716.914c-0.257,0.102-0.531,0.156-0.827,0.156
	c-0.68,0-1.234-0.246-1.664-0.738c-0.43-0.477-0.645-1.062-0.645-1.758H205.9c0,1.352,0.449,2.5,1.348,3.445
	c0.906,0.953,2.023,1.43,3.352,1.43c0.77,0,1.467-0.184,2.11-0.511C212.38,718.169,211.964,717.425,211.426,716.914z"/>
<path display="none" fill="#090405" stroke="#090405" d="M205.241,717.628c0.65-0.819,0.995-1.766,0.995-2.854v-11.895h-2.402
	v11.895c0,0.222-0.039,0.428-0.096,0.628C204.363,716.018,204.846,716.805,205.241,717.628z"/>
<path display="none" d="M216.033,714.452c0.977-0.906,2.113-1.359,3.41-1.359c1.43,0,2.629,0.555,3.598,1.664
	c0.93,1.047,1.395,2.293,1.395,3.738v5.172h-2.402v-5.172c0-0.812-0.296-1.516-0.889-2.109c-0.585-0.594-1.287-0.891-2.105-0.891
	c-0.811,0-1.513,0.297-2.105,0.891c-0.593,0.594-0.889,1.297-0.889,2.109"/>
<text transform="matrix(1 0 0 1 205.75 718.9375)" display="none" fill="#383E99" stroke="#383E99" font-family="'SFNewRepublic-Bold'" font-size="24">J</text>
<rect x="217.462" y="710.706" display="none" fill="#383E99" width="3.576" height="1.435"/>
<rect x="222.757" y="702.456" display="none" fill="#383E99" stroke="#383E99" width="3.333" height="17.25"/>
</svg>
