<?xml version="1.0" encoding="utf-8"?>
<!-- Generator: Adobe Illustrator 16.0.0, SVG Export Plug-In . SVG Version: 6.00 Build 0)  -->
<!DOCTYPE svg PUBLIC "-//W3C//DTD SVG 1.1//EN" "http://www.w3.org/Graphics/SVG/1.1/DTD/svg11.dtd">
<svg version="1.1" id="Layer_1" xmlns="http://www.w3.org/2000/svg" xmlns:xlink="http://www.w3.org/1999/xlink" x="0px" y="0px"
	 width="716px" height="254px" viewBox="0 0 716 254" enable-background="new 0 0 716 254" xml:space="preserve">
<rect y="-1554" display="none" fill="#3D52A0" width="719" height="1554"/>
<g id="Moon">
	<path fill="#ACD7DD" d="M-709.176,885.465c133.621-452.323,552.162-782.396,1047.795-782.396
		c496.392,0,915.455,331.088,1048.405,784.479"/>
	<g>
		<ellipse fill="#5EAAB6" cx="225.026" cy="213.031" rx="52.408" ry="16.501"/>
		<path fill="#CAE1E5" d="M172.967,213.003c0,0,0.02,0.226,0.057,0.662c0.051,0.429,0.193,0.967,0.524,1.716
			c0.366,0.718,0.968,1.529,1.827,2.35c0.854,0.828,2.013,1.601,3.365,2.346c2.721,1.482,6.355,2.67,10.618,3.475
			c4.258,0.833,9.132,1.34,14.433,1.741c5.3,0.423,11.036,0.793,17.131,1.11c6.062,0.298,12.575,0.689,19.273,0.556
			c6.701-0.138,13.684-0.875,20.413-2.921c3.354-1.002,6.662-2.336,9.604-4.138c1.444-0.925,2.814-1.97,3.836-3.172
			c0.5-0.604,0.908-1.243,1.17-1.874c0.098-0.319,0.24-0.628,0.255-0.934c0.01-0.153,0.072-0.302,0.048-0.451l-0.005-0.221v-0.108
			l0-0.055c0.003,0.05-0.005-0.188,0.007,0.099l-0.099-0.673l-0.024-0.168l-0.041-0.076l-0.071-0.146
			c-0.021-0.049-0.038-0.098-0.053-0.146l-0.108-0.202c-0.079-0.136-0.125-0.273-0.221-0.407c-0.344-0.54-0.816-1.061-1.359-1.551
			c-1.098-0.981-2.514-1.798-3.985-2.507c-1.469-0.729-3.039-1.343-4.647-1.87c-1.603-0.544-3.227-1.05-4.886-1.461
			c-6.616-1.711-13.419-2.598-20.004-3.105c-6.604-0.473-12.996-0.641-19.102-0.607c-6.055,0.021-11.811,0.344-17.108,0.671
			c-5.304,0.331-10.182,0.815-14.438,1.642c-4.261,0.794-7.891,1.98-10.611,3.452c-1.353,0.739-2.511,1.507-3.367,2.327
			c-0.861,0.814-1.465,1.621-1.835,2.334c-0.332,0.727-0.489,1.319-0.537,1.725c-0.038,0.407-0.058,0.617-0.058,0.617
			L172.967,213.003z M172.268,213.031c0,0,0.017-0.24,0.048-0.706c0.044-0.464,0.205-1.145,0.561-1.969
			c0.405-0.795,0.994-1.728,1.875-2.652c0.876-0.927,2.002-1.856,3.344-2.771c2.681-1.836,6.197-3.642,10.381-5.359
			c2.097-0.847,4.359-1.679,6.78-2.452c2.426-0.737,5-1.467,7.719-2.053c5.44-1.219,11.418-1.875,17.791-2.159
			c6.32-0.278,13.057-0.106,19.956,0.72c6.902,0.808,14.007,2.125,21.065,4.413c3.523,1.168,7.034,2.601,10.361,4.704
			c1.646,1.078,3.266,2.293,4.674,3.924c0.696,0.822,1.342,1.741,1.824,2.813c0.125,0.26,0.211,0.559,0.312,0.837l0.141,0.429
			l0.105,0.513l0.089,0.514l0.037,0.253l0.002,0.17l0.01,0.68c-0.13,2.842-1.556,4.604-3.021,6.032
			c-1.484,1.411-3.149,2.396-4.823,3.26c-1.666,0.88-3.377,1.593-5.105,2.205c-1.721,0.629-3.45,1.193-5.185,1.691
			c-3.466,1.02-6.945,1.812-10.39,2.583c-3.447,0.756-6.873,1.445-10.268,2.016c-6.804,1.165-13.419,1.897-19.784,1.884
			c-6.333,0.012-12.33-0.598-17.769-1.721c-2.722-0.547-5.294-1.264-7.724-1.978c-2.419-0.765-4.685-1.581-6.779-2.427
			c-4.183-1.708-7.695-3.512-10.375-5.336c-1.341-0.909-2.467-1.834-3.345-2.754c-0.884-0.918-1.475-1.846-1.884-2.636
			c-0.358-0.802-0.533-1.537-0.574-1.977c-0.033-0.438-0.049-0.662-0.049-0.662L172.268,213.031z"/>
	</g>
	<g>
		<ellipse fill="#2AA4C0" cx="501.91" cy="196.53" rx="64.088" ry="18.328"/>
		<path fill="#2AA4C0" d="M438.171,196.5c0,0,0.025,0.271,0.074,0.797c0.021,0.268,0.137,0.527,0.217,0.877
			c0.125,0.334,0.289,0.739,0.533,1.156c0.96,1.706,3.259,3.697,6.651,5.308c1.696,0.81,3.653,1.543,5.833,2.181
			c2.171,0.662,4.57,1.22,7.159,1.676c5.174,0.929,11.076,1.537,17.508,1.999c6.431,0.485,13.395,0.903,20.787,1.229
			c7.362,0.312,15.237,0.688,23.342,0.5c8.108-0.193,16.54-1.013,24.758-3.24c2.049-0.562,4.085-1.188,6.087-1.91
			c1.988-0.757,3.938-1.608,5.794-2.593c1.835-1.011,3.584-2.178,4.996-3.543c0.668-0.698,1.298-1.432,1.657-2.2
			c0.118-0.186,0.186-0.378,0.247-0.568c0.063-0.188,0.159-0.373,0.17-0.56c0.021-0.186,0.09-0.366,0.088-0.547l-0.001-0.268
			l0.003-0.133l0.002-0.065c0.004,0.053-0.005-0.211,0.01,0.102l-0.116-0.812c-0.012-0.169-0.06-0.18-0.087-0.252
			c-0.031-0.061-0.058-0.12-0.081-0.181c-0.018-0.101-0.144-0.294-0.228-0.456c-0.083-0.168-0.172-0.335-0.309-0.497
			c-0.432-0.666-1.117-1.281-1.821-1.861c-1.476-1.145-3.261-2.082-5.12-2.881c-3.725-1.625-7.772-2.752-11.811-3.721
			c-8.122-1.887-16.388-2.869-24.394-3.432c-8.021-0.529-15.785-0.713-23.188-0.666c-7.357,0.024-14.336,0.416-20.769,0.777
			c-6.432,0.421-12.339,0.985-17.51,1.914c-2.588,0.451-4.986,1.005-7.156,1.665c-2.179,0.635-4.135,1.364-5.831,2.169
			c-3.392,1.602-5.691,3.577-6.659,5.273c-0.99,1.702-0.769,2.817-0.837,2.792L438.171,196.5z M437.472,196.53
			c0.07,0.036-0.187-1.261,0.875-3.169c1.03-1.901,3.358-4.066,6.715-6.028c1.677-0.986,3.597-1.967,5.731-2.936
			c2.143-0.948,4.499-1.891,7.054-2.796c5.11-1.797,11.012-3.514,17.569-4.734c6.553-1.305,13.736-1.983,21.377-2.282
			c7.592-0.292,15.667-0.104,23.953,0.771c8.289,0.854,16.828,2.263,25.346,4.695c2.125,0.627,4.25,1.325,6.355,2.128
			c2.098,0.832,4.18,1.771,6.218,2.885c2.022,1.142,4.012,2.454,5.813,4.194c0.88,0.903,1.747,1.866,2.391,3.108
			c0.178,0.287,0.318,0.613,0.444,0.95c0.128,0.34,0.269,0.629,0.355,1.068l0.13,0.61c0.035,0.192,0.088,0.439,0.08,0.546
			l0.028,0.819c0.01,0.381-0.005,0.185-0.007,0.306l-0.016,0.138l-0.033,0.275l-0.073,0.547c-0.055,0.361-0.189,0.697-0.289,1.042
			c-0.092,0.353-0.263,0.651-0.412,0.965c-0.149,0.314-0.309,0.617-0.506,0.88c-0.717,1.141-1.639,1.984-2.555,2.77
			c-1.865,1.52-3.891,2.603-5.937,3.532c-2.039,0.946-4.119,1.722-6.213,2.395c-2.09,0.68-4.184,1.305-6.29,1.836
			c-8.422,2.092-16.795,3.663-24.981,4.887c-8.201,1.218-16.166,1.964-23.799,1.938c-7.606,0.003-14.805-0.649-21.359-1.829
			c-3.279-0.579-6.391-1.321-9.33-2.088c-2.933-0.805-5.686-1.666-8.242-2.561c-2.554-0.9-4.909-1.84-7.05-2.785
			c-2.133-0.967-4.052-1.942-5.729-2.924c-3.356-1.952-5.688-4.101-6.725-5.992c-0.265-0.465-0.442-0.908-0.583-1.301
			c-0.098-0.408-0.222-0.77-0.239-1.031c-0.044-0.526-0.067-0.799-0.067-0.799L437.472,196.53z"/>
	</g>
	<g>
		<ellipse fill="#2AA4C0" cx="225.026" cy="218.648" rx="52.408" ry="16.501"/>
		<g>
			<path fill="#2AA4C0" d="M172.967,218.62c0,0,0.02,0.226,0.057,0.662c0.051,0.429,0.193,0.967,0.524,1.716
				c0.366,0.718,0.968,1.529,1.827,2.35c0.854,0.828,2.013,1.601,3.365,2.346c2.721,1.482,6.355,2.67,10.618,3.475
				c4.258,0.833,9.132,1.34,14.433,1.741c5.3,0.423,11.036,0.793,17.131,1.11c6.062,0.298,12.575,0.689,19.273,0.556
				c6.701-0.138,13.684-0.875,20.413-2.921c3.354-1.002,6.662-2.336,9.604-4.138c1.444-0.925,2.814-1.97,3.836-3.172
				c0.5-0.604,0.908-1.243,1.17-1.874c0.098-0.319,0.24-0.628,0.255-0.934c0.01-0.153,0.072-0.302,0.048-0.451l-0.005-0.221v-0.108
				l0-0.055c0.003,0.05-0.005-0.188,0.007,0.099l-0.099-0.673l-0.024-0.168l-0.041-0.076l-0.071-0.146
				c-0.021-0.049-0.038-0.098-0.053-0.146l-0.108-0.202c-0.079-0.136-0.125-0.273-0.221-0.407c-0.344-0.54-0.816-1.061-1.359-1.551
				c-1.098-0.981-2.514-1.798-3.985-2.507c-1.469-0.729-3.039-1.343-4.647-1.87c-1.603-0.544-3.227-1.05-4.886-1.461
				c-6.616-1.711-13.419-2.598-20.004-3.105c-6.604-0.473-12.996-0.641-19.102-0.607c-6.055,0.021-11.811,0.344-17.108,0.671
				c-5.304,0.331-10.182,0.815-14.438,1.642c-4.261,0.794-7.891,1.98-10.611,3.452c-1.353,0.739-2.511,1.507-3.367,2.327
				c-0.861,0.814-1.465,1.621-1.835,2.334c-0.332,0.727-0.489,1.319-0.537,1.725c-0.038,0.407-0.058,0.617-0.058,0.617
				L172.967,218.62z M172.268,218.648c0,0,0.017-0.24,0.048-0.706c0.044-0.464,0.205-1.145,0.561-1.969
				c0.405-0.795,0.994-1.728,1.875-2.652c0.876-0.927,2.002-1.856,3.344-2.771c2.681-1.836,6.197-3.642,10.381-5.359
				c2.097-0.847,4.359-1.679,6.78-2.452c2.426-0.737,5-1.467,7.719-2.053c5.44-1.219,11.418-1.875,17.791-2.159
				c6.32-0.278,13.057-0.106,19.956,0.72c6.902,0.808,14.007,2.125,21.065,4.413c3.523,1.168,7.034,2.601,10.361,4.704
				c1.646,1.078,3.266,2.293,4.674,3.924c0.696,0.822,1.342,1.741,1.824,2.813c0.125,0.26,0.211,0.559,0.312,0.837l0.141,0.429
				l0.105,0.513l0.089,0.514l0.037,0.253l0.002,0.17l0.01,0.68c-0.13,2.842-1.556,4.604-3.021,6.032
				c-1.484,1.411-3.149,2.396-4.823,3.26c-1.666,0.88-3.377,1.593-5.105,2.205c-1.721,0.629-3.45,1.193-5.185,1.691
				c-3.466,1.02-6.945,1.812-10.39,2.583c-3.447,0.756-6.873,1.445-10.268,2.016c-6.804,1.165-13.419,1.897-19.784,1.884
				c-6.333,0.012-12.33-0.598-17.769-1.721c-2.722-0.547-5.294-1.264-7.724-1.978c-2.419-0.765-4.685-1.581-6.779-2.427
				c-4.183-1.708-7.695-3.512-10.375-5.336c-1.341-0.909-2.467-1.834-3.345-2.754c-0.884-0.918-1.475-1.846-1.884-2.636
				c-0.358-0.802-0.533-1.537-0.574-1.977c-0.033-0.438-0.049-0.662-0.049-0.662L172.268,218.648z"/>
		</g>
	</g>
	<g>
		<g>
			<path fill="#DAF0F2" d="M420.364,187.146c0,0,0.025,0.29,0.072,0.852c0.064,0.553,0.252,1.273,0.681,2.244
				c0.477,0.934,1.25,1.994,2.358,3.063c1.103,1.078,2.588,2.093,4.326,3.075c1.748,0.972,3.788,1.864,6.075,2.652
				c2.28,0.807,4.813,1.491,7.547,2.083c5.466,1.195,11.737,2.001,18.575,2.621c6.837,0.644,14.252,1.154,22.125,1.515
				c7.84,0.343,16.233,0.686,24.863,0.366c8.63-0.33,17.607-1.371,26.289-4.005c4.324-1.306,8.616-2.958,12.453-5.279
				c1.89-1.181,3.694-2.517,5.075-4.093c0.678-0.792,1.246-1.637,1.625-2.498c0.105-0.213,0.149-0.438,0.23-0.65
				c0.088-0.213,0.134-0.43,0.16-0.646c0.022-0.216,0.109-0.426,0.086-0.641l0.002-0.316l0.004-0.158l0.002-0.078
				c0.004,0.042-0.004-0.205,0.009,0.074l-0.114-0.866l-0.029-0.216l-0.052-0.124l-0.093-0.24l-0.076-0.24l-0.144-0.292
				c-0.105-0.195-0.17-0.396-0.297-0.586c-0.463-0.771-1.094-1.498-1.815-2.175c-1.457-1.355-3.307-2.462-5.224-3.428
				c-1.917-0.983-3.957-1.812-6.043-2.525c-2.08-0.729-4.188-1.402-6.337-1.955c-8.573-2.284-17.366-3.485-25.882-4.182
				c-8.535-0.659-16.806-0.875-24.69-0.798c-7.835,0.059-15.267,0.543-22.105,1.062c-6.837,0.578-13.114,1.339-18.577,2.535
				c-2.733,0.586-5.265,1.268-7.543,2.071c-2.285,0.785-4.324,1.674-6.071,2.642c-1.738,0.976-3.223,1.986-4.328,3.057
				c-1.111,1.063-1.885,2.119-2.366,3.048c-0.431,0.948-0.633,1.724-0.694,2.253c-0.049,0.532-0.074,0.807-0.074,0.807
				L420.364,187.146z M419.666,187.174c0,0,0.021-0.305,0.063-0.896c0.058-0.589,0.263-1.451,0.718-2.497
				c0.516-1.011,1.276-2.192,2.407-3.366c1.124-1.177,2.577-2.35,4.304-3.501c1.727-1.152,3.724-2.293,5.959-3.414
				c2.247-1.093,4.73-2.164,7.427-3.206c5.396-2.068,11.664-3.986,18.642-5.37c6.974-1.469,14.633-2.244,22.783-2.578
				c8.098-0.323,16.715-0.103,25.545,0.909c8.832,0.996,17.927,2.63,26.943,5.489c4.498,1.461,8.982,3.243,13.208,5.854
				c2.092,1.334,4.146,2.84,5.913,4.845c0.874,1.01,1.679,2.135,2.28,3.438c0.157,0.316,0.262,0.678,0.389,1.015l0.176,0.52
				l0.128,0.607l0.111,0.607l0.048,0.301l0.006,0.218l0.026,0.873c-0.134,3.368-1.842,5.605-3.665,7.403
				c-1.843,1.785-3.943,3.061-6.062,4.18c-2.114,1.135-4.296,2.061-6.501,2.859c-2.197,0.819-4.404,1.573-6.634,2.195
				c-4.447,1.295-8.913,2.311-13.341,3.256c-4.431,0.93-8.835,1.748-13.196,2.41c-8.735,1.351-17.23,2.131-25.373,2.073
				c-8.111-0.031-15.788-0.781-22.763-2.125c-3.491-0.657-6.796-1.503-9.917-2.362c-3.112-0.913-6.028-1.896-8.727-2.922
				c-2.695-1.037-5.177-2.105-7.423-3.195c-2.234-1.118-4.23-2.255-5.956-3.402c-1.727-1.145-3.18-2.312-4.306-3.482
				c-1.133-1.166-1.895-2.344-2.416-3.35c-0.456-1.023-0.676-1.94-0.73-2.505c-0.042-0.562-0.064-0.852-0.064-0.852L419.666,187.174
				z"/>
		</g>
	</g>
	<g>
		<path fill="#DAF0F2" d="M172.967,213.003c0,0,0.02,0.226,0.057,0.662c0.051,0.429,0.193,0.967,0.524,1.716
			c0.366,0.718,0.968,1.529,1.827,2.35c0.854,0.828,2.013,1.601,3.365,2.346c2.721,1.482,6.355,2.67,10.618,3.475
			c4.258,0.833,9.132,1.34,14.433,1.741c5.3,0.423,11.036,0.793,17.131,1.11c6.062,0.298,12.575,0.689,19.273,0.556
			c6.701-0.138,13.684-0.875,20.413-2.921c3.354-1.002,6.662-2.336,9.604-4.138c1.444-0.925,2.814-1.97,3.836-3.172
			c0.5-0.604,0.908-1.243,1.17-1.874c0.098-0.319,0.24-0.628,0.255-0.934c0.01-0.153,0.072-0.302,0.048-0.451l-0.005-0.221v-0.108
			l0-0.055c0.003,0.05-0.005-0.188,0.007,0.099l-0.099-0.673l-0.024-0.168l-0.041-0.076l-0.071-0.146
			c-0.021-0.049-0.038-0.098-0.053-0.146l-0.108-0.202c-0.079-0.136-0.125-0.273-0.221-0.407c-0.344-0.54-0.816-1.061-1.359-1.551
			c-1.098-0.981-2.514-1.798-3.985-2.507c-1.469-0.729-3.039-1.343-4.647-1.87c-1.603-0.544-3.227-1.05-4.886-1.461
			c-6.616-1.711-13.419-2.598-20.004-3.105c-6.604-0.473-12.996-0.641-19.102-0.607c-6.055,0.021-11.811,0.344-17.108,0.671
			c-5.304,0.331-10.182,0.815-14.438,1.642c-4.261,0.794-7.891,1.98-10.611,3.452c-1.353,0.739-2.511,1.507-3.367,2.327
			c-0.861,0.814-1.465,1.621-1.835,2.334c-0.332,0.727-0.489,1.319-0.537,1.725c-0.038,0.407-0.058,0.617-0.058,0.617
			L172.967,213.003z M172.268,213.031c0,0,0.017-0.24,0.048-0.706c0.044-0.464,0.205-1.145,0.561-1.969
			c0.405-0.795,0.994-1.728,1.875-2.652c0.876-0.927,2.002-1.856,3.344-2.771c2.681-1.836,6.197-3.642,10.381-5.359
			c2.097-0.847,4.359-1.679,6.78-2.452c2.426-0.737,5-1.467,7.719-2.053c5.44-1.219,11.418-1.875,17.791-2.159
			c6.32-0.278,13.057-0.106,19.956,0.72c6.902,0.808,14.007,2.125,21.065,4.413c3.523,1.168,7.034,2.601,10.361,4.704
			c1.646,1.078,3.266,2.293,4.674,3.924c0.696,0.822,1.342,1.741,1.824,2.813c0.125,0.26,0.211,0.559,0.312,0.837l0.141,0.429
			l0.105,0.513l0.089,0.514l0.037,0.253l0.002,0.17l0.01,0.68c-0.13,2.842-1.556,4.604-3.021,6.032
			c-1.484,1.411-3.149,2.396-4.823,3.26c-1.666,0.88-3.377,1.593-5.105,2.205c-1.721,0.629-3.45,1.193-5.185,1.691
			c-3.466,1.02-6.945,1.812-10.39,2.583c-3.447,0.756-6.873,1.445-10.268,2.016c-6.804,1.165-13.419,1.897-19.784,1.884
			c-6.333,0.012-12.33-0.598-17.769-1.721c-2.722-0.547-5.294-1.264-7.724-1.978c-2.419-0.765-4.685-1.581-6.779-2.427
			c-4.183-1.708-7.695-3.512-10.375-5.336c-1.341-0.909-2.467-1.834-3.345-2.754c-0.884-0.918-1.475-1.846-1.884-2.636
			c-0.358-0.802-0.533-1.537-0.574-1.977c-0.033-0.438-0.049-0.662-0.049-0.662L172.268,213.031z"/>
	</g>
	<g>
		<ellipse fill="#2AA4C0" cx="484.91" cy="187.236" rx="64.088" ry="18.328"/>
		<path fill="#2AA4C0" d="M421.171,187.206c0,0,0.025,0.271,0.074,0.798c0.021,0.267,0.137,0.526,0.217,0.876
			c0.125,0.334,0.289,0.739,0.533,1.156c0.96,1.706,3.259,3.697,6.651,5.308c1.696,0.81,3.653,1.543,5.833,2.18
			c2.171,0.663,4.57,1.221,7.159,1.676c5.174,0.93,11.076,1.538,17.508,2c6.431,0.486,13.395,0.903,20.787,1.23
			c7.362,0.312,15.237,0.687,23.342,0.499c8.108-0.193,16.54-1.013,24.758-3.24c2.049-0.562,4.085-1.187,6.087-1.91
			c1.988-0.757,3.938-1.608,5.794-2.593c1.835-1.012,3.584-2.178,4.996-3.543c0.668-0.698,1.298-1.432,1.657-2.2
			c0.118-0.186,0.186-0.378,0.247-0.567c0.063-0.189,0.159-0.373,0.17-0.561c0.021-0.186,0.09-0.366,0.088-0.547l-0.001-0.268
			l0.003-0.133l0.002-0.065c0.004,0.052-0.005-0.212,0.01,0.102l-0.116-0.812c-0.012-0.169-0.06-0.18-0.087-0.252
			c-0.031-0.061-0.058-0.12-0.081-0.181c-0.018-0.101-0.144-0.294-0.228-0.456c-0.083-0.168-0.172-0.336-0.309-0.497
			c-0.432-0.666-1.117-1.281-1.821-1.861c-1.476-1.145-3.261-2.082-5.12-2.881c-3.725-1.625-7.772-2.752-11.811-3.721
			c-8.122-1.887-16.388-2.87-24.394-3.432c-8.021-0.529-15.785-0.713-23.188-0.666c-7.357,0.024-14.336,0.416-20.769,0.777
			c-6.432,0.421-12.339,0.985-17.51,1.913c-2.588,0.452-4.986,1.006-7.156,1.666c-2.179,0.635-4.135,1.364-5.831,2.169
			c-3.392,1.601-5.691,3.577-6.659,5.273c-0.99,1.702-0.769,2.817-0.837,2.792L421.171,187.206z M420.472,187.236
			c0.07,0.036-0.187-1.261,0.875-3.169c1.03-1.901,3.358-4.066,6.715-6.028c1.677-0.986,3.597-1.967,5.731-2.936
			c2.143-0.948,4.499-1.891,7.054-2.796c5.11-1.797,11.012-3.515,17.569-4.734c6.553-1.305,13.736-1.983,21.377-2.282
			c7.592-0.292,15.667-0.104,23.953,0.771c8.289,0.854,16.828,2.262,25.346,4.695c2.125,0.627,4.25,1.325,6.355,2.128
			c2.098,0.833,4.18,1.771,6.218,2.885c2.022,1.142,4.012,2.454,5.813,4.194c0.88,0.903,1.747,1.865,2.391,3.107
			c0.178,0.288,0.318,0.614,0.444,0.951c0.128,0.34,0.269,0.629,0.355,1.068l0.13,0.61c0.035,0.192,0.088,0.439,0.08,0.546
			l0.028,0.819c0.01,0.38-0.005,0.185-0.007,0.306l-0.016,0.138l-0.033,0.274l-0.073,0.548c-0.055,0.361-0.189,0.697-0.289,1.042
			c-0.092,0.354-0.263,0.652-0.412,0.965c-0.149,0.314-0.309,0.617-0.506,0.88c-0.717,1.141-1.639,1.983-2.555,2.769
			c-1.865,1.521-3.891,2.604-5.937,3.533c-2.039,0.945-4.119,1.722-6.213,2.395c-2.09,0.68-4.184,1.305-6.29,1.836
			c-8.422,2.092-16.795,3.664-24.981,4.887c-8.201,1.218-16.166,1.964-23.799,1.938c-7.606,0.003-14.805-0.649-21.359-1.83
			c-3.279-0.578-6.391-1.32-9.33-2.087c-2.933-0.805-5.686-1.666-8.242-2.561c-2.554-0.9-4.909-1.84-7.05-2.785
			c-2.133-0.966-4.052-1.942-5.729-2.925c-3.356-1.951-5.688-4.1-6.725-5.992c-0.265-0.464-0.442-0.907-0.583-1.3
			c-0.098-0.408-0.222-0.77-0.239-1.031c-0.044-0.526-0.067-0.799-0.067-0.799L420.472,187.236z"/>
	</g>
	<path fill-rule="evenodd" clip-rule="evenodd" fill="#DAF0F2" d="M275.807,204.65c1.379-0.37,1.695,0.75,2.236,1.522
		c1.818,2.595,1.807,5.317,0.016,7.999c-0.35,0.522-0.742,1.067-0.893,1.655c-0.787,3.109-2.803,5.051-5.875,6.045
		c-3.26,1.688-6.164,3.979-9.607,5.356c-5.488,1.159-11.059,1.973-16.445,3.578c-1.879,0.279-3.816,0.183-5.639,0.824
		c-1.535-0.177-2.955,0.367-4.416,0.653c-0.869-0.337-1.707-0.157-2.536,0.151c-4.143,0.508-8.301,0.16-12.451,0.236
		c-4.012-0.076-8.045,0.049-11.982-1.354c4.861-0.467,8.867-2.714,13.039-4.875c2.822-1.462,6.389-1.618,9.648-2.223
		c1.908-0.354,3.632-0.741,5.124-2.18c3.475-3.355,8.131-4.046,12.699-4.759c4.443-0.693,4.5-0.812,4.559-5.026
		c0.016-1.237-0.471-2.749,0.783-3.816c0.785,0.03,1.566,0.031,2.256-0.425c3.219,0.097,6.312-0.143,9.328-1.572
		c1.93-0.915,4.105-1.594,6.402-1.251C273.35,205.384,274.619,205.24,275.807,204.65z"/>
	
		<path fill-rule="evenodd" clip-rule="evenodd" fill="#DAF0F2" stroke="#DAF0F2" stroke-width="7" stroke-linecap="round" stroke-linejoin="round" stroke-miterlimit="10" d="
		M543.725,177.581c1.719,0.001,3.439,0.002,5.158,0.003c1.295,0.605,2.588,1.21,3.883,1.815c0.158,1.38-0.709,3.228,2.059,3.418
		c1.246,2.356,3.766,3.646,0.098,7.208c-9.752,9.477-22.223,13.755-35.59,16.729c-18.098,4.026-36.346,5.822-54.6,0.402
		c-1.328-0.394-3.404-0.11-3.562-1.651c-0.131-1.298,1.863-1.349,2.959-1.915c10.324-5.333,21.777-8.502,32.812-12.357
		c7.42-2.592,15.828-3.046,23.799-4.436c1.291-0.225,2.605-0.34,4.41-0.57c-1.283-0.754-2.162-1.271-3.297-1.938
		c5.334-3.854,11.635-5.258,18.045-6.437C541.174,177.763,542.449,177.672,543.725,177.581z"/>
	<path fill="#ACD7DD" d="M137.53,121.449c0,0,11.213-30.992,18.213-32.992s61.25-8.25,66.25,1.75s21.815,24.92,21.815,24.92"/>
	<path fill="#2AA4C0" d="M590.893,252.645c-19.021,30.864,184.979,33.25,183.979,61.883c-1.416,40.506-120,23.913-120,52.698
		c0,39.935,73,3.206,72,14.07s-67,17.618-88,27.741s-96,6.774-101,47.123c-0.727,18.317,45,46.349,118.502,45.349
		c113.498,2,206.826-67,188.162-158S609.914,221.78,590.893,252.645z"/>
	<path fill="#ACD7DD" d="M588.299,148.623c0,0-2.666-32.851-8.893-36.621c-6.229-3.771-56.924-24.069-64.379-15.736
		c-7.455,8.332-27.604,18.305-27.604,18.305"/>
</g>
<path fill="#FFFFFF" d="M635.966-159.231C622.431-77.608,545.29-22.413,463.667-35.95c-2.802-0.464-5.564-1.021-8.303-1.633
	c21.919,24.352,51.912,41.74,86.747,47.519c81.623,13.535,158.764-41.662,172.299-123.283
	c13.071-78.815-37.959-153.441-114.979-170.665C628.872-251.305,643.725-206.018,635.966-159.231z"/>
<polygon fill="#2AA4C0" points="116.388,-2.907 74.101,-8.199 45.767,23.634 37.734,-18.22 -1.298,-35.331 36.024,-55.903 
	40.235,-98.312 71.335,-69.174 112.971,-78.273 94.869,-39.692 "/>
</svg>
