<?xml version="1.0" encoding="utf-8"?>
<!-- Generator: Adobe Illustrator 16.0.0, SVG Export Plug-In . SVG Version: 6.00 Build 0)  -->
<!DOCTYPE svg PUBLIC "-//W3C//DTD SVG 1.1//EN" "http://www.w3.org/Graphics/SVG/1.1/DTD/svg11.dtd">
<svg version="1.1" id="Layer_1" xmlns="http://www.w3.org/2000/svg" xmlns:xlink="http://www.w3.org/1999/xlink" x="0px" y="0px"
	 width="716px" height="518.595px" viewBox="0 0 716 518.595" enable-background="new 0 0 716 518.595" xml:space="preserve">
<radialGradient id="SVGID_1_" cx="361.126" cy="261.208" r="317.2826" gradientUnits="userSpaceOnUse">
	<stop  offset="0" style="stop-color:#000000;stop-opacity:0"/>
	<stop  offset="0.2534" style="stop-color:#030303;stop-opacity:0.1521"/>
	<stop  offset="0.4296" style="stop-color:#0C0C0C;stop-opacity:0.2578"/>
	<stop  offset="0.5823" style="stop-color:#1B1B1B;stop-opacity:0.3494"/>
	<stop  offset="0.7218" style="stop-color:#313131;stop-opacity:0.4331"/>
	<stop  offset="0.8521" style="stop-color:#4D4D4D;stop-opacity:0.5112"/>
	<stop  offset="0.974" style="stop-color:#707070;stop-opacity:0.5844"/>
	<stop  offset="1" style="stop-color:#787878;stop-opacity:0.6"/>
</radialGradient>
<rect x="-1.749" y="-2.722" fill="url(#SVGID_1_)" width="725.749" height="527.859"/>
<path fill-rule="evenodd" clip-rule="evenodd" fill="#EAC3D1" stroke="#EAC3D1" stroke-width="5" stroke-linecap="round" stroke-linejoin="round" stroke-miterlimit="10" d="
	M133.634,54.959c0,0-19.901,58.44-9.52,62.652c10.38,4.212,45.282-45.41,45.282-45.41"/>
<g id="Moon">
	<path fill="#ACD7DD" d="M-1513.176,1167.569c133.621-452.323,552.162-782.396,1047.795-782.396
		c496.392,0,915.455,331.088,1048.405,784.479"/>
</g>
<g>
	
		<path fill="#EAC3D1" stroke="#EAC3D1" stroke-width="5" stroke-linecap="round" stroke-linejoin="round" stroke-miterlimit="10" d="
		M40.197,337.712c0.823-1.263,1.871-2.51,3.187-3.729c0,0,24.299-28.836,19.328-33.538c-4.68-4.423-32.295,13.457-35.536,15.581
		c-3.199-6.323-16.675-32.157-22.214-29.824c-5.576,2.348-1.293,31.157-0.226,37.805c-6.63-0.276-36.44-1.179-37.109,4.866
		c-0.706,6.387,30.083,17.602,33.836,18.944c-2.988,9.543-9.418,31.995-4.438,34.017c6.34,2.572,27.659-27.737,27.659-27.737
		l-0.611-0.709c0,0,29.36,23.665,33.952,18.592c4.592-5.072-16.563-35.497-16.563-35.497L40.197,337.712z"/>
	
		<path fill="#EAC3D1" stroke="#EAC3D1" stroke-width="5" stroke-linecap="round" stroke-linejoin="round" stroke-miterlimit="10" d="
		M193.745,437.955c-0.608-0.934-1.384-1.855-2.355-2.756c0,0-17.96-21.313-14.286-24.789c3.459-3.27,23.87,9.946,26.267,11.517
		c2.364-4.674,12.324-23.769,16.419-22.045c4.121,1.735,0.956,23.029,0.167,27.943c4.9-0.204,26.934-0.871,27.429,3.597
		c0.522,4.721-22.236,13.011-25.011,14.003c2.209,7.053,6.962,23.648,3.28,25.143c-4.686,1.901-20.443-20.502-20.443-20.502
		l0.452-0.523c0,0-21.701,17.492-25.096,13.742c-3.394-3.75,12.243-26.238,12.243-26.238L193.745,437.955z"/>
	<g>
		<g>
			<path fill="#EAC3D1" d="M67.979,411.272c9.673,0,9.673-15,0-15S58.307,411.272,67.979,411.272L67.979,411.272z"/>
		</g>
	</g>
	<g>
		<g>
			<path fill="#EAC3D1" d="M120.053,443.914c3.849,1.889,8.33,3.03,12.288,0.665c2.158-1.29,3.418-3.214,4.241-5.529
				c0.659-1.854,0.382-3.768,0.08-5.638c-0.501-3.102-2.75-5.751-5.256-7.46c-1.384-0.944-3.583-1.51-5.245-1.435
				c-2.769,0.125-4.86,1.207-6.96,2.95c-1.458,1.21-2.197,3.478-2.197,5.304c0,1.981,0.796,3.903,2.197,5.304
				c1.4,1.399,3.322,2.196,5.303,2.196c2.134,0,3.715-0.879,5.303-2.196c0.069-0.06,0.14-0.117,0.213-0.172
				c-0.506,0.392-1.012,0.782-1.518,1.173c0.201-0.145,0.407-0.271,0.631-0.376c-0.597,0.253-1.194,0.505-1.792,0.757
				c0.232-0.098,0.464-0.165,0.713-0.199c-0.665,0.09-1.33,0.179-1.994,0.269c0.165-0.015,0.324-0.016,0.488-0.001
				c-0.665-0.089-1.329-0.178-1.994-0.268c0.224,0.03,0.435,0.088,0.644,0.172c-0.597-0.252-1.194-0.504-1.792-0.756
				c0.209,0.094,0.402,0.209,0.587,0.344c-0.506-0.391-1.012-0.781-1.518-1.172c0.272,0.212,0.507,0.454,0.719,0.726
				c-0.391-0.506-0.782-1.012-1.173-1.518c0.236,0.317,0.43,0.655,0.591,1.017c-0.252-0.598-0.504-1.195-0.756-1.792
				c0.18,0.428,0.306,0.867,0.369,1.327c-0.089-0.664-0.179-1.329-0.268-1.994c0.038,0.332,0.041,0.66-0.003,0.992
				c0.089-0.665,0.178-1.33,0.268-1.994c-0.036,0.215-0.09,0.42-0.171,0.622c0.252-0.597,0.504-1.194,0.756-1.791
				c-0.074,0.164-0.16,0.314-0.268,0.458c0.391-0.506,0.782-1.012,1.173-1.518c-0.096,0.116-0.198,0.219-0.314,0.313
				c0.506-0.391,1.012-0.781,1.518-1.173c-0.127,0.095-0.258,0.172-0.4,0.239c0.597-0.252,1.194-0.504,1.792-0.756
				c-0.196,0.081-0.393,0.135-0.602,0.171c0.665-0.089,1.329-0.179,1.994-0.268c-0.341,0.045-0.677,0.037-1.019-0.001
				c0.665,0.089,1.329,0.179,1.994,0.268c-0.704-0.1-1.372-0.32-2.028-0.591c0.597,0.253,1.194,0.505,1.792,0.757
				c-0.276-0.12-0.548-0.246-0.818-0.378c-1.861-0.914-3.726-1.321-5.779-0.757c-1.875,0.516-3.5,1.771-4.482,3.447
				C115.411,436.984,116.384,442.114,120.053,443.914L120.053,443.914z"/>
		</g>
	</g>
	<g>
		<g>
			<path fill="#EAC3D1" d="M331.088,470.682c0,1.16,0,2.321,0,3.482c0,4.088,3.412,7.5,7.5,7.5s7.5-3.412,7.5-7.5
				c0-0.272,0-0.544,0-0.815c0-4.089-3.412-7.5-7.5-7.5s-7.5,3.411-7.5,7.5c0,0.271,0,0.543,0,0.815c0,4.088,3.412,7.5,7.5,7.5
				s7.5-3.412,7.5-7.5c0-1.161,0-2.322,0-3.482c0-4.088-3.412-7.5-7.5-7.5S331.088,466.594,331.088,470.682L331.088,470.682z"/>
		</g>
	</g>
	<g>
		<g>
			<path fill="#EAC3D1" d="M272.086,467.136c9.673,0,9.673-15,0-15S262.413,467.136,272.086,467.136L272.086,467.136z"/>
		</g>
	</g>
	<g>
		<g>
			<path fill="#EAC3D1" d="M94.213,72.647c-0.667,0-1.333,0-2,0c-4.089,0-7.5,3.412-7.5,7.5s3.411,7.5,7.5,7.5c0.667,0,1.333,0,2,0
				c4.089,0,7.5-3.412,7.5-7.5S98.302,72.647,94.213,72.647L94.213,72.647z"/>
		</g>
	</g>
	<g>
		<g>
			<path fill="#EAC3D1" d="M11.158,226.836c-0.064,0.064-0.132,0.125-0.204,0.182c0.507-0.391,1.013-0.781,1.519-1.172
				c-0.289,0.218-0.602,0.379-0.933,0.523c0.598-0.252,1.194-0.504,1.792-0.756c-1.734,0.731-3.724,1.325-4.959,2.877
				c-1.455,1.829-1.134,1.337-2.042,3.5c-0.323,0.771-0.286,1.65-0.393,2.469c-0.151,1.167,0.196,2.555,0.624,3.675
				c0.356,1.271,1,2.373,1.929,3.31c1.373,1.372,3.346,2.243,5.304,2.196c3.339-0.081,6.233-1.443,8.079-4.288
				c0.7-1.08,0.807-2.182,1.258-3.29c-0.252,0.597-0.504,1.194-0.756,1.791c0.051-0.104,0.105-0.194,0.174-0.288
				c-0.391,0.506-0.782,1.013-1.173,1.519c0.05-0.062,0.105-0.117,0.168-0.166c-0.506,0.391-1.012,0.781-1.519,1.173
				c0.069-0.055,0.143-0.102,0.221-0.141c3.556-2.005,4.732-6.775,2.69-10.261c-2.088-3.564-6.699-4.7-10.261-2.69
				c-0.698,0.393-1.368,0.884-1.906,1.479c-1.276,1.409-1.393,1.851-2.103,3.597c-0.158,0.39-0.2,0.81-0.344,1.203
				c0.252-0.597,0.504-1.194,0.756-1.791c-0.046,0.104-0.096,0.199-0.158,0.295c0.391-0.506,0.782-1.012,1.173-1.518
				c-0.077,0.097-0.153,0.173-0.249,0.251c0.506-0.391,1.012-0.782,1.519-1.173c-0.073,0.053-0.15,0.097-0.232,0.134
				c0.597-0.252,1.194-0.504,1.791-0.756c-0.22,0.087-0.433,0.134-0.667,0.166c0.665-0.089,1.329-0.179,1.994-0.268
				c-0.151,0.016-0.303,0.023-0.455,0.022c2.411,1.835,4.821,3.671,7.232,5.506c-0.153-0.401-0.281-0.799-0.346-1.225
				c0.09,0.664,0.179,1.329,0.269,1.993c-0.019-0.199-0.021-0.387,0.006-0.586c-0.09,0.664-0.179,1.329-0.268,1.993
				c0.025-0.121,0.059-0.229,0.106-0.343c-0.252,0.597-0.504,1.194-0.756,1.791c0.032-0.066,0.07-0.131,0.113-0.19
				c-0.391,0.506-0.781,1.012-1.173,1.518c0.094-0.117,0.193-0.214,0.312-0.308c-0.506,0.391-1.012,0.782-1.518,1.173
				c0.23-0.161,0.478-0.28,0.736-0.392c-0.598,0.252-1.194,0.504-1.792,0.756c2.007-0.835,3.445-1.374,5.048-2.883
				c2.976-2.804,2.824-7.782,0-10.607C18.811,223.883,14.131,224.035,11.158,226.836L11.158,226.836z"/>
		</g>
	</g>
	<g>
		<g>
			<path fill="#EAC3D1" d="M22.511,130.877c-0.144,0.438-0.279,0.877-0.374,1.329c-0.433,2.063-0.343,2.799-0.052,4.832
				c0.276,1.938,1.702,3.786,3.021,5.137c2.856,2.923,7.742,2.864,10.607,0c2.914-2.915,2.855-7.685,0-10.607
				c-0.203-0.207-0.396-0.419-0.578-0.646c0.391,0.506,0.781,1.013,1.173,1.519c-0.138-0.189-0.256-0.378-0.357-0.588
				c0.252,0.597,0.504,1.194,0.756,1.791c-0.077-0.196-0.127-0.384-0.157-0.593c0.089,0.665,0.179,1.329,0.268,1.994
				c-0.015-0.225-0.005-0.438,0.021-0.662c-0.089,0.665-0.178,1.329-0.268,1.994c0.087-0.518,0.241-1.015,0.405-1.512
				c1.274-3.886-1.442-8.182-5.238-9.227C27.652,124.516,23.785,126.996,22.511,130.877L22.511,130.877z"/>
		</g>
	</g>
	<g>
		<g>
			<path fill="#EAC3D1" d="M419.807,478.182c-1.808-3.36-5.448-5.045-9.143-5.048c-4.089-0.004-7.5,3.414-7.5,7.5
				c0,4.091,3.412,7.496,7.5,7.5c0.246,0,0.489,0.008,0.733,0.035c-0.664-0.09-1.329-0.179-1.993-0.269
				c0.265,0.037,0.517,0.098,0.766,0.194c-0.597-0.252-1.194-0.504-1.791-0.756c0.193,0.085,0.367,0.187,0.537,0.312
				c-0.506-0.391-1.012-0.781-1.519-1.173c0.144,0.121,0.268,0.249,0.385,0.395c-0.391-0.506-0.781-1.012-1.172-1.518
				c0.091,0.129,0.17,0.258,0.245,0.396c1.935,3.597,6.829,4.701,10.261,2.69c1.677-0.981,2.932-2.607,3.447-4.481
				C421.111,481.967,420.773,479.978,419.807,478.182L419.807,478.182z"/>
		</g>
	</g>
	
		<path fill="#EAC3D1" stroke="#EAC3D1" stroke-width="5" stroke-linecap="round" stroke-linejoin="round" stroke-miterlimit="10" d="
		M210.805,84.016c1.505-0.062,3.129,0.071,4.885,0.438c0,0,37.58,3.11,38.535-3.666c0.896-6.377-29.673-18.535-33.282-19.947
		c3.303-6.27,16.56-32.217,11.45-35.382c-5.143-3.185-26.149,16.989-30.95,21.71c-3.615-5.565-20.142-30.391-25.458-27.435
		c-5.615,3.123,3.072,34.72,4.15,38.556c-9.51,3.09-31.538,10.85-30.302,16.082c1.575,6.657,38.631,6.486,38.631,6.486l0.225-0.909
		c0,0-2.291,37.64,4.505,38.445c6.794,0.806,19.347-34.06,19.347-34.06L210.805,84.016z"/>
</g>
<g>
	
		<circle fill="#EAC3D1" stroke="#EAC3D1" stroke-width="5" stroke-linecap="round" stroke-linejoin="round" stroke-miterlimit="10" cx="476.074" cy="98.438" r="41.979"/>
	
		<circle fill="none" stroke="#EAC3D1" stroke-width="5" stroke-linecap="round" stroke-linejoin="round" stroke-miterlimit="10" cx="492.516" cy="117.378" r="41.979"/>
	
		<circle fill="none" stroke="#EAC3D1" stroke-width="5" stroke-linecap="round" stroke-linejoin="round" stroke-miterlimit="10" cx="498.074" cy="94.893" r="41.979"/>
</g>
<circle fill="#EAC3D1" cx="85.819" cy="110.523" r="7.839"/>
<circle fill="#EAC3D1" cx="163.099" cy="87.006" r="7.839"/>
<circle fill="#EAC3D1" cx="239.595" cy="79.166" r="7.839"/>
<circle fill="#EAC3D1" cx="307.432" cy="87.006" r="7.839"/>
<circle fill="#EAC3D1" cx="386.001" cy="94.846" r="7.839"/>
<circle fill="#EAC3D1" cx="593.296" cy="190.575" r="7.839"/>
<circle fill="#EAC3D1" cx="520.602" cy="142.71" r="7.839"/>
<circle fill="#EAC3D1" cx="462.752" cy="119.346" r="7.839"/>
<circle fill="#EAC3D1" cx="26.606" cy="174.896" r="7.839"/>
<circle fill="#EAC3D1" cx="34.445" cy="264.244" r="7.839"/>
<circle fill="#EAC3D1" cx="77.979" cy="360.128" r="7.839"/>
<circle fill="#EAC3D1" cx="135.456" cy="402.631" r="7.839"/>
<circle fill="#EAC3D1" cx="299.592" cy="458.807" r="7.839"/>
<circle fill="#EAC3D1" cx="393.84" cy="466.646" r="7.84"/>
<circle fill="#EAC3D1" cx="212" cy="443.128" r="7.839"/>
<path fill="#EAC3D1" stroke="#EAC3D1" stroke-width="5" stroke-linecap="round" stroke-linejoin="round" stroke-miterlimit="10" d="
	M37.469,261.146c-0.608-0.934-1.384-1.855-2.355-2.756c0,0-17.96-21.313-14.286-24.789c3.459-3.27,23.87,9.946,26.267,11.517
	c2.364-4.674,12.324-23.769,16.419-22.045c4.121,1.735,0.956,23.029,0.167,27.943c4.9-0.204,26.934-0.871,27.429,3.597
	c0.522,4.721-22.236,13.011-25.011,14.003c2.209,7.053,6.962,23.648,3.28,25.143c-4.686,1.901-20.443-20.502-20.443-20.502
	l0.452-0.523c0,0-21.701,17.492-25.096,13.742c-3.394-3.75,12.243-26.238,12.243-26.238L37.469,261.146z"/>
<rect x="-58.321" y="235.6" fill="#5D5E5E" width="920" height="1175.378"/>
</svg>
