<?xml version="1.0" encoding="utf-8"?>
<!-- Generator: Adobe Illustrator 16.0.0, SVG Export Plug-In . SVG Version: 6.00 Build 0)  -->
<!DOCTYPE svg PUBLIC "-//W3C//DTD SVG 1.1//EN" "http://www.w3.org/Graphics/SVG/1.1/DTD/svg11.dtd">
<svg version="1.1" id="Layer_1" xmlns="http://www.w3.org/2000/svg" xmlns:xlink="http://www.w3.org/1999/xlink" x="0px" y="0px"
	 width="716px" height="518.595px" viewBox="0 0 716 518.595" enable-background="new 0 0 716 518.595" xml:space="preserve">
<rect x="-1" y="-5.313" fill="#FFFFFF" stroke="#FFFFFF" stroke-miterlimit="10" width="728" height="532.908"/>
<polygon fill="#3D52A0" stroke="#FFFFFF" stroke-miterlimit="10" points="381.5,-9.405 -1.5,-9.405 -1.5,143.595 "/>
<polygon fill="#3D52A0" stroke="#FFFFFF" stroke-miterlimit="10" points="727,130.595 727,-9.405 462.777,-9.405 "/>
<circle fill="#F06490" cx="1.251" cy="459.552" r="69.728"/>
<circle fill="#F06490" cx="719" cy="223.651" r="41.979"/>
<line fill="none" stroke="#EAC3D1" stroke-width="8" stroke-miterlimit="10" x1="505.147" y1="-16.405" x2="719" y2="95.919"/>
<line fill="none" stroke="#EAC3D1" stroke-width="8" stroke-miterlimit="10" x1="336.157" y1="-13.542" x2="3" y2="117.173"/>
<text transform="matrix(1 0 0 1 98.8223 148.502)"><tspan x="0" y="0" fill="#3D52A0" font-family="'Raleway-Regular'" font-size="30.2429">The</tspan><tspan x="53.832" y="0" fill="#3D52A0" font-family="'Raleway-BoldItalic'" font-size="30.2429">  </tspan><tspan x="68.105" y="-2" fill="#F06490" font-family="'PlantagenetCherokee'" font-size="100">3</tspan><tspan x="110.305" y="10" fill="#F06490" font-family="'PlantagenetCherokee'" font-size="60"> things</tspan><tspan x="292.104" y="10" fill="#3D52A0" font-family="'PlantagenetCherokee'" font-size="30.2429">  </tspan><tspan x="307.95" y="0" fill="#3D52A0" font-family="'Raleway-Regular'" font-size="30.2429">I value most are: </tspan></text>
<path d="M275.086,447.157"/>
<text transform="matrix(1.0074 0 0 1 212.4141 447.1562)"><tspan x="0" y="0" fill="#F06490" stroke="#F06490" stroke-miterlimit="10" font-family="'Delhi'" font-size="60">Passion</tspan><tspan x="243.236" y="0" fill="#F06490" stroke="#F06490" stroke-miterlimit="10" font-family="'ChelseaIII'" font-size="30.2429"> </tspan><tspan x="252.309" y="0" fill="#3D52A0" font-family="'Times-Italic'" font-size="30.2429">- (noun)</tspan><tspan x="-89.462" y="36.291" fill="#3D52A0" font-family="'Times-Roman'" font-size="30.2429" letter-spacing="27.793">				</tspan><tspan x="54.538" y="36.291" fill="#3D52A0" font-family="'Times-Roman'" font-size="30.2429">an intense desire or enthusiasm </tspan></text>
<text transform="matrix(1 0 0 1 53.0005 261.6289)"><tspan x="0" y="0" fill="#F06490" font-family="'WarisOver'" font-size="60">HARD WORK</tspan><tspan x="245.039" y="0" fill="#3D52A0" stroke="#F06490" stroke-miterlimit="10" font-family="'DKPetitFour'" font-size="60" letter-spacing="-11">	</tspan><tspan x="252" y="0" fill="#3D52A0" stroke="#F06490" stroke-miterlimit="10" font-family="'DKPetitFour'" font-size="60" letter-spacing="18">		</tspan><tspan x="146.701" y="72" fill="#3D52A0" font-family="'Raleway-Regular'" font-size="60">  </tspan></text>
<text transform="matrix(1 0 0 1 137.1958 342.4326)"><tspan x="0" y="0" fill="#3D52A0" stroke="#F06490" stroke-miterlimit="10" font-family="'DKPetitFour'" font-size="50">creativity</tspan><tspan x="194.795" y="0" fill="#3D52A0" font-family="'Raleway-Regular'" font-size="30.2429"> &amp; above all else: </tspan></text>
<path fill-rule="evenodd" clip-rule="evenodd" fill="#EAC3D1" stroke="#EAC3D1" stroke-width="5" stroke-linecap="round" stroke-linejoin="round" stroke-miterlimit="10" d="
	M138.865,475.036c0,0-61.649-3.266-62.881,7.87c-1.231,11.134,56.01,31.233,56.01,31.233"/>
</svg>
