<?xml version="1.0" encoding="utf-8"?>
<!-- Generator: Adobe Illustrator 16.0.0, SVG Export Plug-In . SVG Version: 6.00 Build 0)  -->
<!DOCTYPE svg PUBLIC "-//W3C//DTD SVG 1.1//EN" "http://www.w3.org/Graphics/SVG/1.1/DTD/svg11.dtd">
<svg version="1.1" id="Layer_1" xmlns="http://www.w3.org/2000/svg" xmlns:xlink="http://www.w3.org/1999/xlink" x="0px" y="0px"
	 width="716px" height="518px" viewBox="0 0 716 518" enable-background="new 0 0 716 518" xml:space="preserve">
<rect y="-518" display="none" fill="#3D52A0" width="719" height="1554"/>
<circle fill="#EAC3D1" cx="78.572" cy="260.627" r="39.667"/>
<circle fill="#EAC3D1" cx="638.572" cy="260.627" r="39.667"/>
<rect x="-4" y="-524.908" display="none" fill="#3D52A0" stroke="#FFFFFF" stroke-miterlimit="10" width="728" height="524.908"/>
<circle fill="#EAC3D1" cx="61.5" cy="-104.203" r="138.5"/>
<circle fill="#EAC3D1" cx="1.703" cy="459.566" r="79.728"/>
<circle fill="none" stroke="#EADFE4" stroke-width="6" stroke-miterlimit="10" cx="1.703" cy="459.566" r="102.728"/>
<circle fill="#EAC3D1" cx="719.451" cy="539.293" r="79.728"/>
<circle fill="#F06490" cx="711.01" cy="532.838" r="41.979"/>
<circle fill="#F06490" cx="711.01" cy="532.838" r="41.979"/>
<circle fill="none" stroke="#F06490" stroke-miterlimit="10" cx="727.451" cy="551.779" r="41.979"/>
<circle fill="none" stroke="#F06490" stroke-miterlimit="10" cx="727.451" cy="551.779" r="41.979"/>
<circle fill="none" stroke="#F06490" stroke-miterlimit="10" cx="733.01" cy="529.293" r="41.979"/>
<circle fill="#EAC3D1" cx="1.251" cy="458.551" r="79.728"/>
<circle fill="none" stroke="#EADFE4" stroke-width="6" stroke-miterlimit="10" cx="1.251" cy="458.551" r="102.728"/>
<circle fill="#F06490" cx="1.251" cy="458.551" r="69.728"/>
<circle fill="#F06490" cx="719" cy="388.824" r="41.979"/>
<path d="M275.086,446.156"/>
<g>
	<circle fill="#EAC3D1" cx="730.776" cy="28.214" r="79.728"/>
	<circle fill="#F06490" cx="728.72" cy="38.639" r="41.979"/>
	<circle fill="none" stroke="#F06490" stroke-miterlimit="10" cx="738.437" cy="15.516" r="41.979"/>
	<circle fill="none" stroke="#F06490" stroke-miterlimit="10" cx="738.437" cy="15.516" r="41.979"/>
	<circle fill="none" stroke="#F06490" stroke-miterlimit="10" cx="715.81" cy="20.476" r="41.98"/>
</g>
<path fill="none" stroke="#EAC3D1" stroke-width="8" stroke-miterlimit="10" d="M708.338,476.645"/>
<path fill="none" stroke="#EAC3D1" stroke-width="8" stroke-miterlimit="10" d="M708.338,476.941"/>
<g>
	<circle fill="#EAC3D1" cx="403.445" cy="515.698" r="41.98"/>
	<path fill="none" stroke="#EAC3D1" stroke-miterlimit="10" d="M363.701,468.875c12.185-19.719,38.053-25.832,57.777-13.646
		c19.723,12.188,25.833,38.057,13.647,57.779c-12.187,19.723-38.056,25.834-57.778,13.648
		C357.624,514.469,351.515,488.6,363.701,468.875z"/>
	<path fill="none" stroke="#EAC3D1" stroke-miterlimit="10" d="M347.152,485.084c12.186-19.721,38.055-25.832,57.777-13.648
		c19.724,12.188,25.833,38.059,13.647,57.779c-12.186,19.725-38.054,25.834-57.778,13.648
		C341.076,530.678,334.966,504.809,347.152,485.084z"/>
</g>
<g display="none">
	
		<rect x="76.481" y="54.605" display="inline" fill="#FFFFFF" stroke="#FFFFFF" stroke-miterlimit="10" width="558.854" height="390.94"/>
	<text transform="matrix(1 0 0 1 296.1113 100.542)" display="inline" font-family="'SFNewRepublic-Bold'" font-size="30">About me</text>
	<rect x="107.663" y="139.542" display="inline" fill="none" width="504" height="296"/>
	<text transform="matrix(1 0 0 1 107.6631 147.6816)" display="inline"><tspan x="0" y="0" font-family="'Raleway-Regular'" font-size="18">I’m a passionate web designer and developer who lives for </tspan><tspan x="0" y="21.601" font-family="'Raleway-Regular'" font-size="18">creating and building beautiful yet effortlessly usable we</tspan><tspan x="483.019" y="21.601" font-family="'Raleway-Regular'" font-size="18">-</tspan><tspan x="0" y="43.2" font-family="'Raleway-Regular'" font-size="18">sites and applications. </tspan><tspan x="0" y="86.4" font-family="'Raleway-Regular'" font-size="18">I recently graduated from the University of Virginia in May </tspan><tspan x="0" y="108" font-family="'Raleway-Regular'" font-size="18">2018, and am currently open to full-time employment op</tspan><tspan x="472.06" y="108" font-family="'Raleway-Regular'" font-size="18">-</tspan><tspan x="0" y="129.601" font-family="'Raleway-Regular'" font-size="18">portunies.</tspan><tspan x="0" y="172.8" font-family="'Raleway-Regular'" font-size="18">I love everything about working with digital products, but </tspan><tspan x="0" y="194.4" font-family="'Raleway-Regular'" font-size="18">what fascinates me the most is how the digital space allows </tspan><tspan x="0" y="216" font-family="'Raleway-Regular'" font-size="18">us to share information and our own creations in unimag</tspan><tspan x="466.915" y="216" font-family="'Raleway-Regular'" font-size="18">-</tspan><tspan x="0" y="237.601" font-family="'Raleway-Regular'" font-size="18">inable ways.  </tspan></text>
</g>
</svg>
