<?xml version="1.0" encoding="utf-8"?>
<!-- Generator: Adobe Illustrator 16.0.0, SVG Export Plug-In . SVG Version: 6.00 Build 0)  -->
<!DOCTYPE svg PUBLIC "-//W3C//DTD SVG 1.1//EN" "http://www.w3.org/Graphics/SVG/1.1/DTD/svg11.dtd">
<svg version="1.1" id="Layer_1" xmlns="http://www.w3.org/2000/svg" xmlns:xlink="http://www.w3.org/1999/xlink" x="0px" y="0px"
	 width="724.66px" height="335.294px" viewBox="0 0 724.66 335.294" enable-background="new 0 0 724.66 335.294"
	 xml:space="preserve">
<g>
	<g>
		<path fill="#EADFE4" d="M401.565,240.775c-20.696,6.451-29.491,29.324-35.43,52.022c18.119-8.671,23.31-10.579,39.897-11.593
			c55.709-3.404,112.229-14.816,50.596-111.562"/>
		<path fill="#EADFE4" d="M482.416,194.456c-48.733-77.397-109.986,31.125-107.502,47.763c6.798-7.968,25.68-22.031,33.729-15.69
			c-3.797,17.233-8.258,17.367-4.486,22.703c6.151-1.524,7.254-2.025,32.045,3.485c-3.436,8.739,13.527,11.808,3.037,15.261
			C451.337,280.667,524.06,260.598,482.416,194.456z"/>
		<path fill="#EAC3D1" d="M413.498,260.551c8.121-3.051,24.402-13.797,21.727-21.859c-7.613-8.127-12.627,17.111-46.172,3.227
			c11.712-11.524,14.734-15.098,20.066-27.344c1.274-19.601,35.787-70.661,71.887-24.323
			C527.576,250.029,425.763,267.175,413.498,260.551z"/>
		<path fill="#F06490" d="M485.474,197.292c-31.331-49.758-59.614,12.45-58.02,23.148c4.373-5.123,15.57-13.282,20.742-9.202
			c-0.367,10.305-15.121,13.265-13.036,21.27c5.387-4.468,11.483-4.672,20.603,2.238c-0.773,3.531-4.434,6.481-10.398,6.785
			C453.146,249.688,512.25,239.816,485.474,197.292z"/>
	</g>
	<path fill="#2AA4C0" d="M599.25,194.015c0,0,13.135,76.399-18.368,92.641c-31.502,16.245-38.767,19.132-38.767,19.132
		l-18.41-72.814L599.25,194.015z"/>
	<path fill="#2AA4C0" d="M557.106,116.647c0,0-54.624-55-86.126-38.753c-31.5,16.24-38.066,20.485-38.066,20.485l48.646,57.225
		L557.106,116.647z"/>
	<path fill="#2AA4C0" d="M704.491,91.655l0.212-1.308l-1.189-0.586c-14.04-6.821-88.617-39.814-154.328-5.93
		c-72.881,37.581-88.51,46.547-88.51,46.547s-4.229,48.531,11.842,79.697c16.07,31.163,58.06,55.858,58.06,55.858
		s16.369-7.531,89.247-45.113C685.537,186.938,701.904,107.051,704.491,91.655z"/>
	<circle fill="#FFFFFF" cx="571.469" cy="159.049" r="35.333"/>
</g>
<polygon fill="#FFFFFF" points="287.203,283.229 281.407,278.072 273.873,279.925 276.985,272.819 272.895,266.227 280.616,266.99 
	285.622,261.062 287.281,268.642 294.464,271.571 287.769,275.491 "/>
<polygon fill="#FFFFFF" points="279.876,176.772 272.664,173.914 266.221,178.235 266.71,170.493 260.609,165.7 268.125,163.773 
	270.797,156.49 274.952,163.042 282.705,163.334 277.757,169.31 "/>
<polygon fill="#FFFFFF" points="203.043,123.264 195.295,123.655 191.226,130.259 188.459,123.011 180.92,121.182 186.959,116.31 
	186.37,108.574 192.868,112.812 200.043,109.862 198.02,117.353 "/>
<polygon fill="#FFFFFF" points="71.036,262.17 66.247,256.067 58.504,256.553 62.828,250.112 59.974,242.898 67.436,245.021 
	73.414,240.077 73.702,247.83 80.25,251.988 72.967,254.656 "/>
<polygon fill="#FFFFFF" points="184.772,240.961 177.671,230.168 164.756,229.903 172.823,219.814 169.086,207.448 181.174,212.003 
	191.78,204.627 191.183,217.532 201.474,225.341 189.017,228.759 "/>
<polygon fill="#FFFFFF" points="109.403,138.257 95.595,145.337 93.604,160.721 82.604,149.78 67.354,152.639 74.362,138.797 
	66.931,125.177 82.262,127.563 92.919,116.29 95.384,131.606 "/>
<g>
	<polygon fill="#FFFFFF" points="337.513,222.794 340.917,231.025 337.513,239.647 335.244,231.221 	"/>
	<polyline fill="#FFFFFF" points="329.653,232.355 338.08,230.086 346.507,232.355 	"/>
</g>
<g>
	<polygon fill="#FFFFFF" points="162.583,291.39 162.008,282.501 168.004,275.433 167.442,284.141 	"/>
	<polyline fill="#FFFFFF" points="173.1,284.865 164.391,284.303 157.142,279.443 	"/>
</g>
<g>
	<polygon fill="#FFFFFF" points="228.936,179.611 220.075,178.706 214.098,171.621 222.593,173.619 	"/>
	<polyline fill="#FFFFFF" points="224.245,168.159 222.247,176.654 216.254,182.998 	"/>
</g>
<g>
	<polygon fill="#FFFFFF" points="66.839,36.958 66.264,28.069 72.26,21.001 71.698,29.709 	"/>
	<polyline fill="#FFFFFF" points="77.356,30.434 68.647,29.871 61.398,25.012 	"/>
</g>
<g>
	<polygon fill="#FFFFFF" points="150.072,192.086 149.764,192.04 141.749,190.85 135.416,185.793 135.172,185.598 135.48,185.645 
		143.496,186.836 149.828,191.892 	"/>
	<polygon fill="#FFFFFF" points="139.648,196.404 139.834,196.153 144.659,189.645 145.562,181.591 145.596,181.279 
		145.411,181.531 140.586,188.042 139.684,196.094 	"/>
</g>
<g>
	<polygon fill="#FFFFFF" points="116.676,74.893 116.874,75.135 121.993,81.416 123.265,89.42 123.313,89.728 123.116,89.484 
		117.997,83.203 116.724,75.201 	"/>
	<polygon fill="#FFFFFF" points="127.287,78.727 126.981,78.787 119.032,80.346 112.937,85.688 112.701,85.894 113.009,85.833 
		120.96,84.273 127.052,78.932 	"/>
</g>
<g>
	<polygon fill="#FFFFFF" points="260.042,221.659 263.446,229.891 260.042,238.513 257.773,230.086 	"/>
	<polyline fill="#FFFFFF" points="252.183,231.221 260.609,228.951 269.036,231.221 	"/>
	<polyline fill="#FFFFFF" points="252.183,230.951 260.609,233.221 269.036,230.951 	"/>
</g>
<g>
	<polygon fill="#FFFFFF" points="161.44,39.696 164.844,47.928 161.44,56.55 159.171,48.123 	"/>
	<polyline fill="#FFFFFF" points="153.581,49.258 162.008,46.988 170.435,49.258 	"/>
	<polyline fill="#FFFFFF" points="153.581,48.988 162.008,51.258 170.435,48.988 	"/>
</g>
<text transform="matrix(1 0 0 1 278.7192 123.9268)" display="none"><tspan x="0" y="0" display="inline" fill="#FFFFFF" font-family="'SFNewRepublic'" font-size="20">Let’s take off together</tspan><tspan x="97.998" y="36" display="inline" fill="#FFFFFF" font-family="'Arvo'" font-size="30"> </tspan></text>
<g display="none">
	<path display="inline" fill="#FFFFFF" d="M521.662,187.448c0,8.787-6.076,15.908-13.569,15.908H258.565
		c-7.494,0-13.569-7.121-13.569-15.908v-18.561c0-8.787,6.075-15.909,13.569-15.909h249.527c7.493,0,13.569,7.122,13.569,15.909
		V187.448z"/>
	<text transform="matrix(1 0 0 1 284.8809 185.751)" display="inline"><tspan x="0" y="0" fill="#3D52A0" font-family="'Raleway-Bold'" font-size="27.4716">see my work </tspan><tspan x="172.684" y="4.157" fill="#3D52A0" font-family="'Raleway-Medium'" font-size="40">&gt;</tspan><tspan x="193.084" y="0" fill="#3D52A0" font-family="'Raleway-Bold'" font-size="40"> </tspan><tspan x="202.684" y="0" fill="#3D52A0" font-family="'Raleway-Bold'" font-size="27.4716"> </tspan></text>
</g>
</svg>
