<?xml version="1.0" encoding="utf-8"?>
<!-- Generator: Adobe Illustrator 16.0.0, SVG Export Plug-In . SVG Version: 6.00 Build 0)  -->
<!DOCTYPE svg PUBLIC "-//W3C//DTD SVG 1.1//EN" "http://www.w3.org/Graphics/SVG/1.1/DTD/svg11.dtd">
<svg version="1.1" id="Layer_1" xmlns="http://www.w3.org/2000/svg" xmlns:xlink="http://www.w3.org/1999/xlink" x="0px" y="0px"
	 width="833.959px" height="389.98px" viewBox="0 0 833.959 389.98" enable-background="new 0 0 833.959 389.98"
	 xml:space="preserve">
<g>
	<polygon fill="#FFFFFF" points="58.51,209.171 49.649,208.266 43.672,201.181 52.167,203.179 	"/>
	<polyline fill="#FFFFFF" points="53.819,197.719 51.821,206.214 45.828,212.558 	"/>
</g>
<g>
	<polygon fill="#FFFFFF" points="690.836,69.905 690.879,69.822 692.02,67.657 694.095,66.357 694.175,66.308 694.131,66.391 
		692.99,68.557 690.916,69.855 	"/>
	<polyline fill="#FFFFFF" points="692.938,67.606 690.732,66.544 690.647,66.504 690.7,66.581 692.072,68.607 694.278,69.67 
		694.363,69.711 694.311,69.633 692.938,67.606 	"/>
</g>
<g>
	<polygon fill="#FFFFFF" points="579.225,315.785 579.268,315.702 580.408,313.537 582.483,312.237 582.563,312.188 582.52,312.271 
		581.379,314.437 579.305,315.735 	"/>
	<polyline fill="#FFFFFF" points="581.326,313.486 579.121,312.424 579.036,312.384 579.089,312.461 580.461,314.487 
		582.667,315.55 582.752,315.591 582.699,315.513 581.326,313.486 	"/>
</g>
<g>
	<polygon fill="#FFFFFF" points="537.906,214.356 537.95,214.273 539.091,212.108 541.166,210.809 541.246,210.759 541.201,210.842 
		540.061,213.008 537.986,214.307 	"/>
	<polyline fill="#FFFFFF" points="540.008,212.058 537.803,210.995 537.719,210.955 537.771,211.032 539.144,213.059 
		541.35,214.121 541.434,214.162 541.381,214.084 540.008,212.058 	"/>
</g>
<g>
	<polygon fill="#FFFFFF" points="645.002,206.938 645.045,206.854 646.186,204.689 648.261,203.39 648.341,203.34 648.297,203.423 
		647.156,205.589 645.082,206.888 	"/>
	<polyline fill="#FFFFFF" points="647.104,204.639 644.898,203.576 644.813,203.536 644.866,203.613 646.238,205.64 
		648.444,206.702 648.529,206.743 648.477,206.665 647.104,204.639 	"/>
</g>
<g>
	<polygon fill="#FFFFFF" points="125.144,337.999 125.188,337.916 126.328,335.751 128.402,334.451 128.482,334.401 
		128.438,334.484 127.298,336.65 125.225,337.949 	"/>
	<polyline fill="#FFFFFF" points="127.245,335.7 125.041,334.638 124.955,334.598 125.008,334.675 126.381,336.701 128.586,337.764 
		128.672,337.805 128.618,337.727 127.245,335.7 	"/>
</g>
<g>
	<polygon fill="#FFFFFF" points="227.254,277.178 227.298,277.095 228.438,274.93 230.514,273.63 230.594,273.58 230.549,273.663 
		229.408,275.829 227.334,277.128 	"/>
	<polyline fill="#FFFFFF" points="229.355,274.879 227.15,273.816 227.066,273.776 227.119,273.854 228.491,275.88 230.697,276.942 
		230.781,276.983 230.729,276.905 229.355,274.879 	"/>
</g>
<g>
	<polygon fill="#FFFFFF" points="55.322,130.569 55.365,130.486 56.506,128.321 58.581,127.021 58.661,126.972 58.617,127.055 
		57.477,129.221 55.402,130.52 	"/>
	<polyline fill="#FFFFFF" points="57.424,128.271 55.219,127.208 55.134,127.168 55.187,127.245 56.559,129.271 58.765,130.334 
		58.85,130.375 58.797,130.297 57.424,128.271 	"/>
</g>
<g>
	<polygon fill="#FFFFFF" points="178.115,110.299 178.158,110.216 179.299,108.051 181.374,106.751 181.454,106.701 181.41,106.784 
		180.27,108.95 178.195,110.249 	"/>
	<polyline fill="#FFFFFF" points="180.217,108 178.012,106.938 177.927,106.897 177.979,106.975 179.352,109.001 181.558,110.063 
		181.643,110.104 181.59,110.026 180.217,108 	"/>
</g>
<g>
	<polygon fill="#FFFFFF" points="121.428,208.542 121.472,208.459 122.612,206.294 124.688,204.994 124.768,204.944 
		124.723,205.027 123.582,207.193 121.508,208.492 	"/>
	<polyline fill="#FFFFFF" points="123.529,206.243 121.324,205.181 121.24,205.141 121.293,205.218 122.665,207.244 
		124.871,208.307 124.955,208.348 124.902,208.27 123.529,206.243 	"/>
</g>
<g>
	<polygon fill="#FFFFFF" points="443.914,352.67 443.957,352.587 445.098,350.422 447.173,349.122 447.253,349.072 447.209,349.155 
		446.068,351.321 443.994,352.62 	"/>
	<polyline fill="#FFFFFF" points="446.016,350.371 443.811,349.309 443.726,349.269 443.778,349.346 445.15,351.372 
		447.356,352.435 447.441,352.476 447.389,352.397 446.016,350.371 	"/>
</g>
<g>
	<polygon fill="#FFFFFF" points="289.074,357.299 289.119,357.216 290.26,355.051 292.334,353.751 292.414,353.701 292.369,353.784 
		291.229,355.95 289.155,357.249 	"/>
	<polyline fill="#FFFFFF" points="291.176,355 288.972,353.938 288.887,353.897 288.939,353.975 290.312,356.001 292.518,357.063 
		292.603,357.104 292.549,357.026 291.176,355 	"/>
</g>
<g>
	<polygon fill="#FFFFFF" points="363.691,266.094 363.736,266.011 364.877,263.846 366.951,262.546 367.031,262.496 
		366.986,262.579 365.846,264.745 363.772,266.044 	"/>
	<polyline fill="#FFFFFF" points="365.793,263.795 363.589,262.732 363.504,262.692 363.557,262.77 364.93,264.796 367.135,265.858 
		367.22,265.899 367.166,265.821 365.793,263.795 	"/>
</g>
<g>
	<polygon fill="#FFFFFF" points="505.566,278.977 505.609,278.894 506.75,276.729 508.825,275.429 508.905,275.379 508.861,275.462 
		507.721,277.628 505.646,278.927 	"/>
	<polyline fill="#FFFFFF" points="507.668,276.678 505.463,275.615 505.378,275.575 505.431,275.652 506.803,277.679 
		509.009,278.741 509.094,278.782 509.041,278.704 507.668,276.678 	"/>
</g>
<g>
	<polygon fill="#FFFFFF" points="617.662,122.01 617.707,121.927 618.848,119.762 620.922,118.462 621.002,118.412 620.957,118.495 
		619.816,120.661 617.743,121.96 	"/>
	<polyline fill="#FFFFFF" points="619.764,119.711 617.56,118.648 617.475,118.608 617.527,118.686 618.9,120.712 621.105,121.774 
		621.19,121.815 621.137,121.737 619.764,119.711 	"/>
</g>
<g>
	<polygon fill="#FFFFFF" points="569.57,48.16 569.613,48.077 570.754,45.912 572.829,44.612 572.909,44.562 572.865,44.646 
		571.725,46.812 569.65,48.11 	"/>
	<polyline fill="#FFFFFF" points="571.672,45.861 569.467,44.799 569.382,44.759 569.435,44.836 570.807,46.862 573.013,47.925 
		573.098,47.966 573.045,47.888 571.672,45.861 	"/>
</g>
</svg>
