<?xml version="1.0" encoding="utf-8"?>
<!-- Generator: Adobe Illustrator 16.0.0, SVG Export Plug-In . SVG Version: 6.00 Build 0)  -->
<!DOCTYPE svg PUBLIC "-//W3C//DTD SVG 1.1//EN" "http://www.w3.org/Graphics/SVG/1.1/DTD/svg11.dtd">
<svg version="1.1" id="Layer_1" xmlns="http://www.w3.org/2000/svg" xmlns:xlink="http://www.w3.org/1999/xlink" x="0px" y="0px"
	 width="691.621px" height="506.646px" viewBox="0 0 691.621 506.646" enable-background="new 0 0 691.621 506.646"
	 xml:space="preserve">
<g>
	<polygon fill="#FFFFFF" points="123.046,25.375 117.25,20.219 109.715,22.071 112.828,14.966 108.738,8.373 116.459,9.137 
		121.465,3.209 123.123,10.788 130.307,13.718 123.611,17.638 	"/>
	<polygon fill="#FFFFFF" points="670.297,24.566 663.084,21.708 656.641,26.029 657.131,18.287 651.029,13.494 658.545,11.567 
		661.217,4.284 665.373,10.836 673.125,11.128 668.178,17.104 	"/>
	<polygon fill="#FFFFFF" points="321.642,14.689 313.894,15.081 309.824,21.685 307.058,14.437 299.519,12.607 305.558,7.735 
		304.968,0 311.466,4.238 318.642,1.288 316.618,8.778 	"/>
	<polygon fill="#FFFFFF" points="518.498,14.689 510.75,15.081 506.682,21.685 503.914,14.437 496.375,12.607 502.414,7.735 
		501.824,0 508.322,4.238 515.498,1.288 513.475,8.778 	"/>
	<polygon fill="#FFFFFF" points="468.437,500.659 463.646,494.557 455.904,495.042 460.229,488.602 457.374,481.388 464.836,483.51 
		470.814,478.566 471.102,486.319 477.65,490.478 470.367,493.146 	"/>
	<polygon fill="#FFFFFF" points="205.131,506.646 198.029,495.853 185.115,495.588 193.182,485.499 189.444,473.133 
		201.533,477.688 212.139,470.312 211.541,483.217 221.832,491.025 209.375,494.443 	"/>
	<polygon fill="#FFFFFF" points="48.005,413.682 34.197,420.762 32.205,436.146 21.207,425.205 5.956,428.063 12.964,414.222 
		5.533,400.602 20.863,402.988 31.521,391.715 33.986,407.031 	"/>
	<g>
		<polygon fill="#FFFFFF" points="329.501,480.052 332.904,488.283 329.501,496.905 327.232,488.479 		"/>
		<polyline fill="#FFFFFF" points="321.642,489.613 330.068,487.344 338.495,489.613 		"/>
	</g>
	<g>
		<polygon fill="#FFFFFF" points="625.66,480.052 629.064,488.283 625.66,496.905 623.392,488.479 		"/>
		<polyline fill="#FFFFFF" points="617.801,489.613 626.229,487.344 634.654,489.613 		"/>
	</g>
	<g>
		<polygon fill="#FFFFFF" points="401.42,26.238 400.845,17.35 406.842,10.281 406.279,18.989 		"/>
		<polyline fill="#FFFFFF" points="411.938,19.714 403.229,19.151 395.979,14.292 		"/>
	</g>
	<g>
		<polygon fill="#FFFFFF" points="605.57,17.189 596.711,16.284 590.732,9.199 599.229,11.197 		"/>
		<polyline fill="#FFFFFF" points="600.881,5.737 598.883,14.232 592.889,20.576 		"/>
	</g>
	<g>
		<polygon fill="#FFFFFF" points="689.019,76.697 680.158,75.792 674.181,68.707 682.676,70.705 		"/>
		<polyline fill="#FFFFFF" points="684.328,65.245 682.33,73.74 676.337,80.084 		"/>
	</g>
	<g>
		<polygon fill="#FFFFFF" points="5.441,312.383 4.865,303.494 10.862,296.426 10.301,305.134 		"/>
		<polyline fill="#FFFFFF" points="15.958,305.858 7.249,305.296 0,300.437 		"/>
	</g>
	<g>
		<polygon fill="#FFFFFF" points="681.01,447.619 681.208,447.861 686.327,454.143 687.599,462.146 687.647,462.454 687.45,462.211 
			682.331,455.93 681.058,447.928 		"/>
		<polygon fill="#FFFFFF" points="691.621,451.453 691.315,451.514 683.366,453.072 677.271,458.414 677.035,458.62 677.343,458.56 
			685.294,457 691.386,451.658 		"/>
	</g>
	<g>
		<polygon fill="#FFFFFF" points="13.215,3.425 13.412,3.667 18.531,9.948 19.803,17.952 19.852,18.26 19.654,18.017 14.535,11.735 
			13.262,3.733 		"/>
		<polygon fill="#FFFFFF" points="23.826,7.259 23.52,7.319 15.57,8.878 9.475,14.22 9.24,14.426 9.547,14.365 17.498,12.806 
			23.59,7.464 		"/>
	</g>
	<g>
		<polygon fill="#FFFFFF" points="74.66,481.187 78.064,489.418 74.66,498.04 72.392,489.613 		"/>
		<polyline fill="#FFFFFF" points="66.801,490.748 75.229,488.479 83.654,490.748 		"/>
		<polyline fill="#FFFFFF" points="66.801,490.479 75.229,492.748 83.654,490.479 		"/>
	</g>
	<g>
		<polygon fill="#FFFFFF" points="673.613,181.42 677.018,189.651 673.613,198.273 671.344,189.847 		"/>
		<polyline fill="#FFFFFF" points="665.754,190.981 674.181,188.712 682.607,190.981 		"/>
		<polyline fill="#FFFFFF" points="665.754,190.712 674.181,192.981 682.607,190.712 		"/>
	</g>
	<g>
		<polygon fill="#FFFFFF" points="26.201,172.993 29.605,181.225 26.201,189.847 23.933,181.42 		"/>
		<polyline fill="#FFFFFF" points="18.342,182.555 26.77,180.285 35.195,182.555 		"/>
		<polyline fill="#FFFFFF" points="18.342,182.285 26.77,184.555 35.195,182.285 		"/>
	</g>
	<g>
		<polygon fill="#FFFFFF" points="676.449,337.298 679.854,345.529 676.449,354.151 674.181,345.725 		"/>
		<polyline fill="#FFFFFF" points="668.59,346.859 677.018,344.59 685.443,346.859 		"/>
		<polyline fill="#FFFFFF" points="668.59,346.59 677.018,348.859 685.443,346.59 		"/>
	</g>
	<g>
		<polygon fill="#FFFFFF" points="229.691,5.865 233.096,14.097 229.691,22.719 227.422,14.292 		"/>
		<polyline fill="#FFFFFF" points="221.832,15.427 230.259,13.157 238.686,15.427 		"/>
		<polyline fill="#FFFFFF" points="221.832,15.157 230.259,17.427 238.686,15.157 		"/>
	</g>
</g>
</svg>
