<?xml version="1.0" encoding="utf-8"?>
<!-- Generator: Adobe Illustrator 16.0.0, SVG Export Plug-In . SVG Version: 6.00 Build 0)  -->
<!DOCTYPE svg PUBLIC "-//W3C//DTD SVG 1.1//EN" "http://www.w3.org/Graphics/SVG/1.1/DTD/svg11.dtd">
<svg version="1.1" id="Layer_1" xmlns="http://www.w3.org/2000/svg" xmlns:xlink="http://www.w3.org/1999/xlink" x="0px" y="0px"
	 width="833.959px" height="389.98px" viewBox="0 0 833.959 389.98" enable-background="new 0 0 833.959 389.98"
	 xml:space="preserve">
<polygon fill="#FFFFFF" points="204.51,345.888 198.713,340.731 191.18,342.584 194.291,335.479 190.201,328.886 197.922,329.649 
	202.928,323.722 204.588,331.301 211.771,334.23 205.076,338.15 "/>
<polygon fill="#FFFFFF" points="380.479,333.131 373.268,330.272 366.824,334.594 367.313,326.852 361.213,322.059 368.729,320.132 
	371.4,312.849 375.556,319.4 383.309,319.692 378.361,325.668 "/>
<polygon fill="#FFFFFF" points="40.844,54.164 33.631,51.306 27.188,55.627 27.678,47.885 21.576,43.092 29.092,41.165 
	31.764,33.882 35.92,40.434 43.672,40.726 38.725,46.701 "/>
<polygon fill="#FFFFFF" points="692.506,246.008 684.758,246.399 680.688,253.003 677.922,245.755 670.383,243.926 676.422,239.054 
	675.832,231.318 682.33,235.557 689.506,232.606 687.482,240.097 "/>
<polygon fill="#FFFFFF" points="525.143,81.779 520.354,75.677 512.61,76.162 516.934,69.722 514.08,62.508 521.542,64.63 
	527.521,59.687 527.809,67.439 534.357,71.598 527.073,74.266 "/>
<polygon fill="#FFFFFF" points="653.844,46.491 641.25,43.611 631.742,52.354 630.586,39.489 619.332,33.146 631.213,28.071 
	633.768,15.408 642.264,25.14 655.098,23.658 648.467,34.744 "/>
<polygon fill="#FFFFFF" points="108.725,127.507 119.667,120.638 120.207,107.731 130.121,116.011 142.563,112.538 137.753,124.526 
	144.902,135.287 132.013,134.416 123.985,144.538 120.834,132.012 "/>
<polygon fill="#FFFFFF" points="580.895,143.551 590.473,145.014 597.104,137.95 598.676,147.51 607.441,151.637 598.834,156.084 
	597.619,165.698 590.729,158.887 581.211,160.699 585.561,152.043 "/>
<polygon fill="#FFFFFF" points="804.06,96.021 796.959,85.228 784.044,84.963 792.11,74.874 788.373,62.508 800.462,67.062 
	811.067,59.687 810.471,72.592 820.762,80.4 808.305,83.818 "/>
<polygon fill="#FFFFFF" points="555.083,351.503 541.275,358.583 539.283,373.967 528.285,363.026 513.034,365.885 520.042,352.043 
	512.611,338.423 527.941,340.81 538.6,329.536 541.064,344.853 "/>
<g>
	<polygon fill="#FFFFFF" points="654.531,326.167 657.935,334.398 654.531,343.021 652.262,334.594 	"/>
	<polyline fill="#FFFFFF" points="646.672,335.729 655.098,333.459 663.525,335.729 	"/>
</g>
<g>
	<polygon fill="#FFFFFF" points="291.32,301.507 290.744,292.618 296.741,285.55 296.18,294.258 	"/>
	<polyline fill="#FFFFFF" points="301.837,294.982 293.128,294.42 285.879,289.561 	"/>
</g>
<g>
	<polygon fill="#FFFFFF" points="590.549,247.408 579.019,246.23 571.24,237.011 582.295,239.61 	"/>
	<polyline fill="#FFFFFF" points="584.445,232.506 581.845,243.561 574.046,251.815 	"/>
</g>
<g>
	<polygon fill="#FFFFFF" points="167.734,226.029 167.853,226.318 170.896,233.827 169.756,241.851 169.713,242.16 169.596,241.87 
		166.552,234.36 167.691,226.338 	"/>
	<polygon fill="#FFFFFF" points="176.748,232.815 176.438,232.784 168.381,231.933 160.984,235.245 160.699,235.374 161.01,235.404 
		169.068,236.255 176.463,232.943 	"/>
</g>
<g>
	<polygon fill="#FFFFFF" points="707.406,127.098 707.098,127.052 699.082,125.861 692.75,120.805 692.506,120.609 692.814,120.656 
		700.83,121.848 707.162,126.903 	"/>
	<polyline fill="#FFFFFF" points="697.92,123.054 697.018,131.105 696.982,131.416 697.168,131.165 701.992,124.656 
		702.895,116.603 702.93,116.291 702.744,116.543 697.92,123.054 	"/>
</g>
<g>
	<polygon fill="#FFFFFF" points="449.559,253.697 449.756,253.939 454.875,260.221 456.146,268.225 456.195,268.532 
		455.998,268.289 450.879,262.008 449.605,254.006 	"/>
	<polygon fill="#FFFFFF" points="460.17,257.531 459.863,257.592 451.914,259.15 445.818,264.492 445.584,264.698 445.891,264.638 
		453.842,263.078 459.934,257.736 	"/>
</g>
</svg>
