<?xml version="1.0" encoding="utf-8"?>
<!-- Generator: Adobe Illustrator 16.0.0, SVG Export Plug-In . SVG Version: 6.00 Build 0)  -->
<!DOCTYPE svg PUBLIC "-//W3C//DTD SVG 1.1//EN" "http://www.w3.org/Graphics/SVG/1.1/DTD/svg11.dtd">
<svg version="1.1" xmlns="http://www.w3.org/2000/svg" xmlns:xlink="http://www.w3.org/1999/xlink" x="0px" y="0px" width="500px"
	 height="500px" viewBox="0 0 500 500" enable-background="new 0 0 500 500" xml:space="preserve">
<g id="BACKGROUND_2">
	<g opacity="0.3">
		<defs>
			<rect id="SVGID_1_" opacity="0.3" width="500" height="500"/>
		</defs>
		<clipPath id="SVGID_2_">
			<use xlink:href="#SVGID_1_"  overflow="visible"/>
		</clipPath>
		<g clip-path="url(#SVGID_2_)">
			<g>
				<g>
					<defs>
						<rect id="SVGID_3_" x="-125" width="750" height="500"/>
					</defs>
					<clipPath id="SVGID_4_">
						<use xlink:href="#SVGID_3_"  overflow="visible"/>
					</clipPath>
					<path clip-path="url(#SVGID_4_)" fill="#ACDAF1" d="M534.83,221.892c0-12.807-10.382-23.188-23.188-23.188
						c-5.374,0-10.316,1.833-14.248,4.901c-6.531-11.289-18.729-18.89-32.708-18.89c-6.474,0-12.564,1.631-17.89,4.5
						c0.052-0.79,0.088-1.585,0.088-2.389c0-19.694-15.965-35.659-35.658-35.659c-7.949,0-15.288,2.603-21.217,7
						c-6.856-14.179-21.376-23.96-38.182-23.96c-23.41,0-42.388,18.978-42.388,42.388c0,2.58,0.243,5.102,0.685,7.556
						c-3.242-1.258-6.764-1.954-10.45-1.954c-15.975,0-28.925,12.95-28.925,28.925c0,2.035,0.212,4.021,0.612,5.937
						c-3.883-1.937-8.258-3.032-12.892-3.032c-8.574,0-16.272,3.733-21.569,9.658c-3.458-10.81-13.583-18.639-25.542-18.639
						c-4.015,0-7.821,0.889-11.24,2.47c-8.194-24.937-31.652-42.949-59.33-42.949c-30.23,0-55.441,21.48-61.21,50.009
						c-5.863-4.341-13.117-6.91-20.972-6.91c-14.05,0-26.18,8.213-31.856,20.098c-7.717-9.415-19.436-15.425-32.56-15.425
						c-16.613,0-30.972,9.629-37.814,23.608c-4.516-2.916-9.891-4.615-15.666-4.615c-15.975,0-28.925,12.95-28.925,28.925v90.994
						H534.83V222.486h-0.016C534.819,222.288,534.83,222.091,534.83,221.892z"/>
					<path clip-path="url(#SVGID_4_)" fill="#BBE1F3" d="M626.22,212.823c-5.648,0-10.963,1.433-15.599,3.954
						c-4.36-22.047-23.653-38.805-47.023-39.112c-23.963-0.315-44.087,16.773-48.376,39.541c-3.99-2.567-8.735-4.063-13.832-4.063
						c-14.143,0-25.608,11.465-25.608,25.608c0,0.823,0.043,1.636,0.119,2.439c-3.127-2.35-7.001-3.759-11.214-3.759
						c-4.245,0-8.147,1.431-11.287,3.814c-3.308-11.269-13.718-19.5-26.057-19.5c-8.801,0-16.62,4.189-21.583,10.679
						c-7.233-8.604-18.072-14.078-30.193-14.078c-21.779,0-39.435,17.656-39.435,39.435c0,1.58,0.104,3.136,0.284,4.668
						c-6.304-2.99-13.352-4.668-20.793-4.668c-17.987,0-33.68,9.78-42.081,24.306c-6.898-11.846-19.726-19.814-34.422-19.814
						c-21.989,0-39.815,17.826-39.815,39.815c0,2.459,0.235,4.862,0.662,7.198c-5.872-4.292-13.106-6.832-20.937-6.832
						c-9.353,0-17.856,3.62-24.199,9.529c0.167-0.955,0.271-1.932,0.271-2.935c0-9.39-7.611-17.001-17-17.001
						c-4.687,0-8.929,1.897-12.004,4.965c-1.501-14.564-13.809-25.924-28.771-25.924c-5.245,0-10.159,1.403-14.4,3.844
						c-7.157-10.578-19.266-17.532-32.999-17.532c-6.692,0-12.994,1.659-18.529,4.576c0.022-0.439,0.034-0.881,0.034-1.325
						c0-14.81-12.006-26.816-26.815-26.816c-5.015,0-9.705,1.38-13.72,3.775c-0.586-8.857-7.937-15.866-16.943-15.866
						c-2.887,0-5.604,0.725-7.985,1.995c-7.859-15.022-23.583-25.28-41.71-25.28c-20.143,0-37.322,12.66-44.034,30.455
						c-3.526-1.706-7.483-2.663-11.663-2.663c-14.81,0-26.815,12.005-26.815,26.815v250.573h817.168V245.517
						C658.914,227.46,644.276,212.823,626.22,212.823z M146.238,324.313l-0.361-0.156c0.187-0.097,0.373-0.193,0.556-0.297
						C146.368,324.012,146.301,324.162,146.238,324.313z"/>
					<path clip-path="url(#SVGID_4_)" fill="#CCE8F6" d="M637.403,337.37c0-16.503-13.378-29.881-29.881-29.881
						c-6.983,0-13.402,2.401-18.49,6.416c-1.111-10.714-10.166-19.068-21.174-19.068c-3.288,0-6.39,0.768-9.17,2.099
						c-5.238-17.23-21.246-29.771-40.188-29.771c-20.545,0-37.633,14.754-41.276,34.242c-5.04-3.878-11.349-6.189-18.199-6.189
						c-16.503,0-29.882,13.379-29.882,29.882c0,4.661,1.068,9.072,2.973,13.005c-3.815-2.621-8.433-4.158-13.411-4.158
						c-6.695,0-12.738,2.778-17.051,7.24c-2.684-23-22.224-40.852-45.943-40.852c-22.847,0-41.813,16.563-45.578,38.332
						c-4.85-4.83-11.537-7.817-18.923-7.817c-5.941,0-11.428,1.935-15.872,5.204c-4.776-20.468-23.125-35.719-45.047-35.719
						c-6.804,0-13.258,1.48-19.077,4.118c0.091-1.035,0.146-2.081,0.146-3.139c0-19.488-15.798-35.286-35.285-35.286
						c-15.253,0-28.243,9.679-33.169,23.229c-6.158-5.242-14.134-8.413-22.855-8.413c-17.087,0-31.335,12.146-34.586,28.276
						c-4.849-4.824-11.532-7.807-18.913-7.807c-8.942,0-16.856,4.38-21.728,11.108c-3.432-6.489-10.242-10.915-18.094-10.915
						c-4.544,0-8.729,1.499-12.125,4.005c-1.829-17.77-16.844-31.629-35.097-31.629c-13.766,0-25.683,7.889-31.498,19.388
						c-5.225-7.509-13.913-12.427-23.753-12.427c-15.975,0-28.925,12.95-28.925,28.925c0,0.791,0.041,1.572,0.103,2.347
						c-3.883-3.584-9.071-5.775-14.772-5.775c-12.033,0-21.789,9.755-21.789,21.788v207.826h774.639V352.105
						C635.985,347.756,637.403,342.73,637.403,337.37z"/>
					<path clip-path="url(#SVGID_4_)" fill="#DCF0F8" d="M401.358,424.282c0.403-1.833,0.622-3.735,0.622-5.689
						c0-14.588-11.826-26.413-26.414-26.413c-12.984,0-23.773,9.372-25.989,21.72c-5.955-3.967-13.104-6.282-20.797-6.282
						c-18.798,0-34.371,13.805-37.136,31.83c-2.468-1.535-5.371-2.436-8.49-2.436c-2.017,0-3.938,0.387-5.717,1.063
						c-2.301-14.559-14.902-25.691-30.108-25.691c-4.241,0-8.278,0.867-11.947,2.432c-3.007-21.531-21.486-38.106-43.846-38.106
						c-11.316,0-21.636,4.251-29.465,11.235c-0.014-9.485-7.419-17.217-16.761-17.795c0.138-1.123,0.217-2.264,0.217-3.423
						c0-15.405-12.488-27.894-27.893-27.894c-4.377,0-8.518,1.011-12.204,2.808c-3.696-12.675-15.394-21.938-29.262-21.938
						c-13.517,0-24.971,8.8-28.966,20.98c-5.097-3.517-11.274-5.581-17.935-5.581c-17.466,0-31.625,14.159-31.625,31.625
						c0,2.718,0.344,5.355,0.989,7.873l-9.624,2.578V543.32H414.18V420.992L401.358,424.282z"/>
					<path clip-path="url(#SVGID_4_)" fill="#EDF7FC" d="M189.712,472.858c-3.857,0-7.521,0.82-10.834,2.286
						c0.092-0.788,0.152-1.586,0.152-2.399c0-11.302-9.162-20.464-20.464-20.464c-4.214,0-8.129,1.276-11.384,3.459
						c-0.718-8.728-8.016-15.591-16.929-15.591c-0.612,0-1.216,0.036-1.812,0.099c0.482-2.323,0.737-4.729,0.737-7.196
						c0-19.487-15.798-35.285-35.285-35.285c-11.213,0-21.197,5.236-27.66,13.391c-1.679-9.914-10.284-17.472-20.675-17.472
						c-2.003,0-3.933,0.298-5.767,0.821c1.125-2.271,1.773-4.818,1.773-7.524c0-9.389-7.611-17-17-17
						c-2.358,0-4.604,0.48-6.645,1.349c-0.313-15.703-13.132-28.339-28.911-28.339c-5.06,0-9.814,1.303-13.952,3.586
						c-7.702-10.633-20.21-17.557-34.344-17.557c-18.465,0-34.164,11.811-39.976,28.287c-4.425-3.222-9.87-5.127-15.763-5.127
						c-14.81,0-26.815,12.006-26.815,26.815V526.49h331.555c14.81,0,26.815-12.006,26.815-26.816
						C216.528,484.864,204.522,472.858,189.712,472.858z"/>
					<path clip-path="url(#SVGID_4_)" fill="#FFFFFF" d="M107.118,486.769c-4.742,0-9.237,1.04-13.283,2.895
						c-0.82-12.604-11.298-22.576-24.11-22.576c-3.126,0-6.112,0.601-8.854,1.681c-0.229-11.103-9.285-20.037-20.443-20.037
						c-3.625,0-7.024,0.951-9.978,2.604c-1.137-8.964-8.775-15.9-18.048-15.9c-8.711,0-15.983,6.121-17.777,14.294
						c-5.91-3.615-12.856-5.7-20.292-5.7c-19.018,0-34.843,13.633-38.259,31.657c-2.861-1.042-5.949-1.61-9.17-1.61
						c-14.81,0-26.815,12.006-26.815,26.815c0,14.247,11.112,25.894,25.142,26.758l0,0.002h0.013c0.55,0.033,1.102,0.056,1.66,0.056
						s1.11-0.022,1.659-0.056h189.071l0,0h20.158c0.579-1.992,0.969-4.063,1.15-6.195c0.077-0.903,0.125-1.814,0.125-2.737
						C139.067,501.072,124.763,486.769,107.118,486.769z"/>
					<path clip-path="url(#SVGID_4_)" fill="#EDF7FC" d="M642.551,486.207c0-11.714-9.497-21.211-21.212-21.211
						c-2.219,0-4.357,0.345-6.368,0.977c0-0.001,0-0.002,0-0.003c0-15.35-12.444-27.793-27.794-27.793
						c-3.983,0-7.768,0.845-11.193,2.354c-2.418-6.845-8.927-11.758-16.6-11.758c-1.844,0-3.619,0.285-5.289,0.81
						c0.991-2.488,1.542-5.2,1.542-8.043c0-12.018-9.742-21.76-21.76-21.76c-4.753,0-9.146,1.528-12.727,4.115
						c0.057-0.571,0.088-1.15,0.088-1.737c0-9.731-7.889-17.62-17.62-17.62c-3.991,0-7.66,1.343-10.614,3.579
						c-2.417-11.613-12.708-20.341-25.039-20.341c-11.018,0-20.406,6.967-24.007,16.733c-5.814-3.245-12.511-5.103-19.643-5.103
						c-22.297,0-40.372,18.075-40.372,40.372c0,5.575,1.131,10.888,3.175,15.718c-0.423-0.024-0.842-0.063-1.271-0.063
						c-11.714,0-21.211,9.496-21.211,21.211c0,1.276,0.133,2.52,0.349,3.734c-4.614-3.409-10.319-5.428-16.496-5.428
						c-8.889,0-16.795,4.178-21.883,10.67c-5.19-8.763-14.735-14.642-25.658-14.642c-16.398,0-29.7,13.244-29.8,29.62
						c-2.818-2.167-6.337-3.47-10.166-3.47c-9.23,0-16.712,7.482-16.712,16.712c0,9.23,7.482,16.712,16.712,16.712
						c0.105,0,0.207-0.013,0.313-0.016h37.961c0.561,0.032,1.124,0.051,1.692,0.051s1.133-0.019,1.692-0.051h321.668l-0.339-3.298
						C634.439,505.94,642.551,497.029,642.551,486.207z"/>
					<path clip-path="url(#SVGID_4_)" fill="#FFFFFF" d="M640.601,496.747c-3.615,0-6.96,1.137-9.716,3.061
						c-2.044-17.542-16.946-31.159-35.037-31.159c-6.227,0-12.073,1.619-17.152,4.45c-2.67-11.995-13.368-20.967-26.167-20.967
						c-5.893,0-11.338,1.906-15.763,5.128c-5.813-16.477-21.511-28.288-39.977-28.288c-14.133,0-26.642,6.924-34.344,17.558
						c-4.138-2.284-8.893-3.586-13.952-3.586c-15.778,0-28.597,12.635-28.91,28.338c-2.042-0.867-4.287-1.349-6.646-1.349
						c-9.389,0-17,7.611-17,17c0,2.706,0.648,5.255,1.772,7.525c-1.834-0.524-3.764-0.822-5.767-0.822
						c-10.392,0-18.996,7.559-20.675,17.472c-6.464-8.153-16.447-13.39-27.66-13.39c-19.487,0-35.285,15.797-35.285,35.285
						c0,2.466,0.255,4.872,0.736,7.195c-0.596-0.063-1.199-0.099-1.812-0.099c-8.913,0-16.211,6.863-16.929,15.592
						c-3.256-2.184-7.17-3.46-11.384-3.46c-11.303,0-20.465,9.163-20.465,20.465c0,0.813,0.06,1.611,0.152,2.399
						c-3.313-1.466-6.978-2.287-10.834-2.287c-14.81,0-26.815,12.006-26.815,26.816c0,14.81,12.005,26.815,26.815,26.815h392.812
						v-95.692c9.389,0,17-7.611,17-17.001C657.601,504.358,649.989,496.747,640.601,496.747z"/>
				</g>
			</g>
		</g>
	</g>
</g>
<g id="BACKGROUND_1">
	<g>
		<g>
			<g>
				<defs>
					<rect id="SVGID_5_" x="530.467" width="750" height="500"/>
				</defs>
				<clipPath id="SVGID_6_">
					<use xlink:href="#SVGID_5_"  overflow="visible"/>
				</clipPath>
				<path clip-path="url(#SVGID_6_)" fill="#BBE1F3" d="M1281.688,212.823c-5.649,0-10.963,1.433-15.599,3.954
					c-4.361-22.047-23.654-38.805-47.024-39.112c-23.962-0.315-44.087,16.773-48.375,39.541c-3.99-2.567-8.735-4.063-13.833-4.063
					c-14.143,0-25.607,11.465-25.607,25.608c0,0.823,0.042,1.636,0.118,2.439c-3.127-2.35-7.001-3.759-11.213-3.759
					c-4.246,0-8.148,1.431-11.288,3.814c-3.308-11.269-13.718-19.5-26.057-19.5c-8.801,0-16.619,4.189-21.582,10.679
					c-7.234-8.604-18.072-14.078-30.193-14.078c-21.779,0-39.435,17.656-39.435,39.435c0,1.58,0.104,3.136,0.284,4.668
					c-6.305-2.99-13.353-4.668-20.794-4.668c-17.986,0-33.679,9.78-42.081,24.306c-6.898-11.846-19.726-19.814-34.421-19.814
					c-21.989,0-39.815,17.826-39.815,39.815c0,2.459,0.234,4.862,0.661,7.198c-5.871-4.292-13.105-6.832-20.936-6.832
					c-9.354,0-17.856,3.62-24.199,9.529c0.166-0.955,0.27-1.932,0.27-2.935c0-9.39-7.611-17.001-17-17.001
					c-4.687,0-8.93,1.897-12.005,4.965c-1.501-14.564-13.809-25.924-28.77-25.924c-5.245,0-10.159,1.403-14.4,3.844
					c-7.157-10.578-19.267-17.532-32.999-17.532c-6.692,0-12.994,1.659-18.529,4.576c0.021-0.439,0.033-0.881,0.033-1.325
					c0-14.81-12.006-26.816-26.815-26.816c-5.015,0-9.705,1.38-13.72,3.775c-0.586-8.857-7.937-15.866-16.943-15.866
					c-2.887,0-5.604,0.725-7.984,1.995c-7.859-15.022-23.583-25.28-41.711-25.28c-20.144,0-37.321,12.66-44.034,30.455
					c-3.526-1.706-7.482-2.663-11.662-2.663c-14.81,0-26.815,12.005-26.815,26.815v250.573h817.168V245.517
					C1314.381,227.46,1299.743,212.823,1281.688,212.823z M801.705,324.313l-0.361-0.156c0.188-0.097,0.374-0.193,0.557-0.297
					C801.835,324.012,801.769,324.162,801.705,324.313z"/>
				<g opacity="0.5" clip-path="url(#SVGID_6_)">
					<path fill="#CCE8F6" d="M524.028,229.253c4.18,0,8.136,0.957,11.662,2.663c6.713-17.794,23.891-30.455,44.034-30.455
						c18.128,0,33.852,10.258,41.711,25.28c2.381-1.27,5.098-1.995,7.984-1.995c9.007,0,16.357,7.008,16.943,15.866
						c4.015-2.396,8.705-3.776,13.72-3.776c14.81,0,26.815,12.006,26.815,26.815c0,0.444-0.012,0.887-0.033,1.326
						c5.535-2.917,11.837-4.576,18.529-4.576c13.732,0,25.842,6.954,32.999,17.531c4.241-2.44,9.155-3.843,14.4-3.843
						c14.961,0,27.269,11.359,28.77,25.924c3.075-3.067,7.318-4.965,12.005-4.965c8.885,0,16.167,6.818,16.925,15.506
						c0.048-0.495,0.075-0.997,0.075-1.505c0-9.39-7.611-17.001-17-17.001c-4.687,0-8.93,1.897-12.005,4.965
						c-1.501-14.564-13.809-25.924-28.77-25.924c-5.245,0-10.159,1.402-14.4,3.843c-7.157-10.577-19.267-17.531-32.999-17.531
						c-6.692,0-12.994,1.659-18.529,4.576c0.021-0.439,0.033-0.882,0.033-1.326c0-14.81-12.006-26.815-26.815-26.815
						c-5.015,0-9.705,1.38-13.72,3.776c-0.586-8.858-7.937-15.866-16.943-15.866c-2.887,0-5.604,0.725-7.984,1.995
						c-7.859-15.021-23.583-25.28-41.711-25.28c-20.144,0-37.321,12.661-44.034,30.455c-3.526-1.706-7.482-2.663-11.662-2.663
						c-14.81,0-26.815,12.006-26.815,26.815v3C497.213,241.259,509.219,229.253,524.028,229.253z"/>
				</g>
			</g>
		</g>
	</g>
</g>
<g id="DESIGNED_BY_FREEPIK">
</g>
</svg>
