<?xml version="1.0" encoding="utf-8"?>
<!-- Generator: Adobe Illustrator 16.0.0, SVG Export Plug-In . SVG Version: 6.00 Build 0)  -->
<!DOCTYPE svg PUBLIC "-//W3C//DTD SVG 1.1//EN" "http://www.w3.org/Graphics/SVG/1.1/DTD/svg11.dtd">
<svg version="1.1" id="Layer_1" xmlns="http://www.w3.org/2000/svg" xmlns:xlink="http://www.w3.org/1999/xlink" x="0px" y="0px"
	 width="776.961px" height="472.169px" viewBox="0 0 776.961 472.169" enable-background="new 0 0 776.961 472.169"
	 xml:space="preserve">
<polygon fill="#2AA4C0" points="659.512,66.164 642.51,56.475 624.053,62.98 628.98,46.131 615.729,32.695 635.775,31.973 
	646.039,17.162 653.502,33.563 673.102,37.847 657.668,48.706 "/>
<ellipse transform="matrix(0.9789 0.2041 -0.2041 0.9789 55.2527 -74.6388)" fill="none" stroke="#2AA4C0" stroke-miterlimit="10" cx="389.393" cy="230.484" rx="382.253" ry="221.471"/>
<polygon fill="#2AA4C0" points="132.396,60.093 121.686,49.162 106.609,51.785 113.697,38.222 106.541,24.693 121.631,27.242 
	132.286,16.257 134.525,31.396 148.266,38.134 134.559,44.943 "/>
<g>
	
		<ellipse transform="matrix(-0.9789 0.2041 -0.2041 -0.9789 1350.6338 1044.3843)" display="none" fill="#2AA4C0" cx="621.448" cy="591.857" rx="412.986" ry="239.278"/>
	<polygon fill="#2AA4C0" points="384.188,414.397 397.959,406.549 412.909,411.819 408.918,398.171 419.652,387.288 
		403.415,386.702 395.101,374.706 389.056,387.991 373.182,391.461 385.682,400.257 	"/>
</g>
</svg>
