<?xml version="1.0" encoding="utf-8"?>
<!-- Generator: Adobe Illustrator 16.0.0, SVG Export Plug-In . SVG Version: 6.00 Build 0)  -->
<!DOCTYPE svg PUBLIC "-//W3C//DTD SVG 1.1//EN" "http://www.w3.org/Graphics/SVG/1.1/DTD/svg11.dtd">
<svg version="1.1" id="Layer_1" xmlns="http://www.w3.org/2000/svg" xmlns:xlink="http://www.w3.org/1999/xlink" x="0px" y="0px"
	 width="131.674px" height="131.675px" viewBox="0 0 131.674 131.675" enable-background="new 0 0 131.674 131.675"
	 xml:space="preserve">
<rect fill="#F06490" width="131.674" height="131.674"/>
<path d="M76.643,11.787"/>
<circle display="none" fill="#F06490" stroke="#DAF0F2" stroke-miterlimit="10" cx="65.838" cy="65.838" r="65.333"/>
<g opacity="0.2">
	<path fill-rule="evenodd" clip-rule="evenodd" fill="#F06490" d="M46.383,132.287c-10.174-4.013-19.094-9.769-25.844-18.551
		c0.062-0.093,0.125-0.187,0.188-0.28c0.176,0.146,0.362,0.283,0.527,0.44c2.327,2.21,4.65,4.421,6.975,6.633
		c5.051,4.807,10.932,8.311,17.307,11.038c0.342,0.146,0.676,0.307,1.014,0.461C46.493,132.114,46.438,132.201,46.383,132.287z"/>
	<path fill-rule="evenodd" clip-rule="evenodd" fill="#F06490" d="M110.159,17.198c1.052,0.902,2.101,1.805,3.352,2.879
		C111.306,20.132,111.006,18.358,110.159,17.198z"/>
	<path fill-rule="evenodd" clip-rule="evenodd" fill="#F06490" d="M36.851,78.282c2.669-3.42,6.327-5.498,10.423-6.928
		C43.776,73.679,40.278,76.004,36.851,78.282z"/>
	<path fill-rule="evenodd" clip-rule="evenodd" fill="#F06490" d="M76.146,106.624c-0.747,0.611-1.37,1.123-1.993,1.635
		C73.838,107.371,74.496,106.776,76.146,106.624z"/>
	<path fill-rule="evenodd" clip-rule="evenodd" fill="#F06490" d="M50.129,70.642c-0.594,0.254-1.188,0.508-1.781,0.762
		c-0.063-0.134-0.126-0.27-0.189-0.402c0.586-0.261,1.17-0.521,1.755-0.781C49.985,70.36,50.057,70.501,50.129,70.642z"/>
</g>
<text transform="matrix(1 0 0 1 34.8506 74.2588)" fill="#FFFFFF" stroke="#FFFFFF" stroke-miterlimit="10" font-family="'Raleway-Bold'" font-size="20">MENU</text>
<line fill="none" stroke="#FFFFFF" stroke-width="5" stroke-miterlimit="10" x1="16.891" y1="95.984" x2="113.511" y2="95.984"/>
<line fill="none" stroke="#FFFFFF" stroke-width="5" stroke-miterlimit="10" x1="16.891" y1="37.217" x2="113.511" y2="37.217"/>
<line fill="none" stroke="#FFFFFF" stroke-width="5" stroke-miterlimit="10" x1="16.891" y1="37.217" x2="113.511" y2="37.217"/>
<line fill="none" stroke="#FFFFFF" stroke-width="5" stroke-miterlimit="10" x1="98.224" y1="67.217" x2="113.511" y2="67.217"/>
<line fill="none" stroke="#FFFFFF" stroke-width="5" stroke-miterlimit="10" x1="16.891" y1="67.217" x2="29.558" y2="67.217"/>
</svg>
