<?xml version="1.0" encoding="utf-8"?>
<!-- Generator: Adobe Illustrator 16.0.0, SVG Export Plug-In . SVG Version: 6.00 Build 0)  -->
<!DOCTYPE svg PUBLIC "-//W3C//DTD SVG 1.1//EN" "http://www.w3.org/Graphics/SVG/1.1/DTD/svg11.dtd">
<svg version="1.1" id="Layer_1" xmlns="http://www.w3.org/2000/svg" xmlns:xlink="http://www.w3.org/1999/xlink" x="0px" y="0px"
	 width="710.738px" height="876.994px" viewBox="0 0 710.738 876.994" enable-background="new 0 0 710.738 876.994"
	 xml:space="preserve">
<path fill="#ACD7DD" d="M-0.002,778.575c105.693,34.066,218.419,52.468,335.443,52.468c131.86,0,258.264-23.362,375.297-66.174
	c0-98.9,0-504.793,0.002-686.973c-103.305-32.39-213.216-49.849-327.204-49.849C248.576,28.048,119.332,52.521,0,97.273"/>
<g>
	<ellipse fill="#5EAAB6" cx="159.943" cy="128.011" rx="52.408" ry="16.501"/>
	<path fill="#CAE1E5" d="M107.884,127.982c0,0,0.02,0.226,0.057,0.662c0.051,0.429,0.193,0.967,0.524,1.716
		c0.366,0.718,0.968,1.529,1.827,2.35c0.854,0.828,2.013,1.601,3.365,2.346c2.721,1.482,6.355,2.67,10.618,3.475
		c4.258,0.833,9.132,1.34,14.433,1.741c5.3,0.423,11.036,0.793,17.131,1.11c6.062,0.298,12.575,0.689,19.273,0.556
		c6.701-0.138,13.684-0.875,20.413-2.921c3.354-1.002,6.662-2.336,9.604-4.138c1.444-0.925,2.814-1.97,3.836-3.172
		c0.5-0.604,0.908-1.243,1.17-1.874c0.098-0.319,0.24-0.628,0.255-0.934c0.01-0.153,0.072-0.302,0.048-0.451l-0.005-0.221v-0.108
		l0-0.055c0.003,0.05-0.005-0.188,0.007,0.099l-0.099-0.673l-0.024-0.168l-0.041-0.076l-0.071-0.146
		c-0.021-0.049-0.038-0.098-0.053-0.146l-0.108-0.202c-0.079-0.136-0.125-0.273-0.221-0.407c-0.344-0.54-0.816-1.061-1.359-1.551
		c-1.098-0.981-2.514-1.798-3.985-2.507c-1.469-0.729-3.039-1.343-4.647-1.87c-1.603-0.544-3.227-1.05-4.886-1.461
		c-6.616-1.711-13.419-2.598-20.004-3.105c-6.604-0.473-12.996-0.641-19.102-0.607c-6.055,0.021-11.811,0.344-17.108,0.671
		c-5.304,0.331-10.182,0.815-14.438,1.642c-4.261,0.794-7.891,1.98-10.611,3.452c-1.353,0.739-2.511,1.507-3.367,2.327
		c-0.861,0.814-1.465,1.621-1.835,2.334c-0.332,0.727-0.489,1.319-0.537,1.725c-0.038,0.407-0.058,0.617-0.058,0.617
		L107.884,127.982z M107.185,128.011c0,0,0.017-0.24,0.048-0.706c0.044-0.464,0.205-1.145,0.561-1.969
		c0.405-0.795,0.994-1.728,1.875-2.652c0.876-0.927,2.002-1.856,3.344-2.771c2.681-1.836,6.197-3.642,10.381-5.359
		c2.097-0.847,4.359-1.679,6.78-2.452c2.426-0.737,5-1.467,7.719-2.053c5.44-1.219,11.418-1.875,17.791-2.159
		c6.32-0.278,13.057-0.106,19.956,0.72c6.902,0.808,14.007,2.125,21.065,4.413c3.523,1.168,7.034,2.601,10.361,4.704
		c1.646,1.078,3.266,2.293,4.674,3.924c0.696,0.822,1.342,1.741,1.824,2.813c0.125,0.26,0.211,0.559,0.312,0.837l0.141,0.429
		l0.105,0.513l0.089,0.514l0.037,0.253l0.002,0.17l0.01,0.68c-0.13,2.842-1.556,4.604-3.021,6.032
		c-1.484,1.411-3.149,2.396-4.823,3.26c-1.666,0.88-3.377,1.593-5.105,2.205c-1.721,0.629-3.45,1.193-5.185,1.691
		c-3.466,1.02-6.945,1.812-10.39,2.583c-3.447,0.756-6.873,1.445-10.268,2.016c-6.804,1.165-13.419,1.897-19.784,1.884
		c-6.333,0.012-12.33-0.598-17.769-1.721c-2.722-0.547-5.294-1.264-7.724-1.978c-2.419-0.765-4.685-1.581-6.779-2.427
		c-4.183-1.708-7.695-3.512-10.375-5.336c-1.341-0.909-2.467-1.834-3.345-2.754c-0.884-0.918-1.475-1.846-1.884-2.636
		c-0.358-0.802-0.533-1.537-0.574-1.977c-0.033-0.438-0.049-0.662-0.049-0.662L107.185,128.011z"/>
</g>
<g>
	<g>
		<g>
			<g>
				<path fill="#2AA4C0" d="M70.42,326.614c0.072-0.004,0.149-0.008,0.176-0.01C70.224,326.618,70.43,326.615,70.42,326.614z"/>
				<polygon fill="#2AA4C0" points="66.774,326.983 66.835,326.955 66.307,327.07 				"/>
				<path fill="#2AA4C0" d="M63.373,327.419c0.348,0.1,1.226-0.199,1.842-0.224l0.104,0.014l0.257-0.128
					C64.84,327.179,63.897,327.38,63.373,327.419z"/>
				<path fill="#2AA4C0" d="M61.481,327.277c0.127,0.061-0.382,0.112,0.43-0.028c-0.039-0.005-0.055-0.006-0.081-0.009
					C61.757,327.248,61.656,327.259,61.481,327.277z"/>
				<path fill="#2AA4C0" d="M61.831,327.24C62.19,327.192,61.583,327.208,61.831,327.24L61.831,327.24z"/>
				<path fill="#2AA4C0" d="M60.174,327.493l0.461-0.132c-0.109-0.035-0.536,0.003-0.385-0.05
					C59.768,327.407,59.88,327.448,60.174,327.493z"/>
				<path fill="#2AA4C0" d="M59.758,327.716l0.238-0.07C59.949,327.631,59.882,327.634,59.758,327.716z"/>
				<path fill="#2AA4C0" d="M60.503,327.509l-0.507,0.137c0.076,0.026,0.098,0.094,0.234-0.057
					C60.201,327.658,60.291,327.582,60.503,327.509z"/>
				<path fill="#2AA4C0" d="M60.805,327.501c0.275,0.008,0.622-0.017,0.162,0.122C61.864,327.461,61.707,327.353,60.805,327.501z"/>
				<path fill="#2AA4C0" d="M63.229,327.609l0.36-0.013l0.295-0.102C63.737,327.546,63.199,327.563,63.229,327.609z"/>
				<path fill="#2AA4C0" d="M57.19,327.804c-0.017,0.061,0.194,0.121,0.245,0.186l0.334-0.123
					C57.582,327.86,57.233,327.882,57.19,327.804z"/>
				<path fill="#2AA4C0" d="M57.435,327.989l-0.499,0.188C57.404,328.104,57.479,328.044,57.435,327.989z"/>
				<path fill="#2AA4C0" d="M59.726,327.976c0,0,0.205-0.078,0.409-0.156c0.206-0.072,0.412-0.146,0.412-0.146
					s-0.247,0.08-0.494,0.159c-0.246,0.088-0.491,0.175-0.491,0.175L59.726,327.976z"/>
				<polygon fill="#2AA4C0" points="55.186,328.131 55.447,327.937 54.972,328.247 				"/>
				<path fill="#2AA4C0" d="M53.865,328.401c0.187-0.169-0.358-0.156-0.146-0.279c-0.356,0.09-0.634,0.262-0.883,0.42
					C53.114,328.426,53.433,328.379,53.865,328.401z"/>
				<path fill="#2AA4C0" d="M52.413,328.786c0.138-0.062,0.273-0.151,0.423-0.244C52.688,328.604,52.546,328.679,52.413,328.786z"/>
				<path fill="#2AA4C0" d="M56.041,328.306c-0.049-0.027-0.149-0.107-0.452-0.093l0.247,0.131
					C55.898,328.332,55.969,328.319,56.041,328.306z"/>
				<path fill="#2AA4C0" d="M55.844,328.348l-0.009-0.004c-0.223,0.039-0.377,0.065-0.444,0.077
					C55.449,328.412,55.585,328.39,55.844,328.348z"/>
				<path fill="#2AA4C0" d="M56.093,328.298c-0.019,0.003-0.033,0.005-0.052,0.008C56.065,328.319,56.078,328.322,56.093,328.298z"
					/>
				<path fill="#2AA4C0" d="M58.337,328.088c-0.289,0.128-0.898,0.354-0.258,0.356C58.274,328.302,57.905,328.292,58.337,328.088z"
					/>
				<path fill="#2AA4C0" d="M56.397,328.458l0.56-0.068c-0.021-0.039-0.135-0.083,0.006-0.155L56.397,328.458z"/>
				<polygon fill="#2AA4C0" points="56.14,328.562 56.397,328.458 56.189,328.483 				"/>
				<path fill="#2AA4C0" d="M53.41,328.767c-0.216,0.135-0.474,0.199-0.764,0.277c0.326-0.03,0.657-0.084,0.965-0.153
					C53.639,328.821,53.747,328.687,53.41,328.767z"/>
				<path fill="#2AA4C0" d="M54.597,328.573l-0.05,0.021C54.583,328.603,54.611,328.603,54.597,328.573z"/>
				<polygon fill="#2AA4C0" points="49.764,329.753 49.822,329.78 49.821,329.74 				"/>
				<path fill="#2AA4C0" d="M53.673,328.914c0.246-0.017,0.375-0.095,0.494-0.181c-0.172,0.058-0.356,0.111-0.557,0.157
					C53.599,328.922,53.6,328.94,53.673,328.914z"/>
				<path fill="#2AA4C0" d="M51.63,329.063c0.136,0.014,0.286,0.017,0.442,0.015C51.934,329.044,51.659,329,51.63,329.063z"/>
				<path fill="#2AA4C0" d="M54.454,328.56l0.034-0.015C54.399,328.521,54.414,328.538,54.454,328.56z"/>
				<path fill="#2AA4C0" d="M54.454,328.56c-0.116,0.051-0.2,0.114-0.286,0.174c0.141-0.043,0.27-0.09,0.379-0.139
					C54.514,328.587,54.479,328.573,54.454,328.56z"/>
				<path fill="#2AA4C0" d="M49.359,331.422c-0.029-0.223,0.516-0.595,1.102-0.541c0.464-0.311-0.063-0.849-0.639-1.101
					c0.012,0.094,0.036,0.172-0.462,0.442c0.226,0.062,1.267-0.079,0.873,0.231c-0.67,0.312-0.598,0.1-0.977,0.09
					c0.37,0.163-0.769,0.652-0.486,0.996l0.562-0.338C49.363,331.257,49.173,331.422,49.359,331.422z"/>
				<path fill="#2AA4C0" d="M50.858,329.532l0.216-0.079c-0.264,0.03-0.47-0.008-0.853-0.074c-0.342,0.192-0.395,0.288-0.4,0.361
					l1.104-0.256L50.858,329.532z"/>
				<path fill="#2AA4C0" d="M52.075,329.208c-0.117,0.244-0.622,0.47-0.232,0.607c0.643-0.184,0.404-0.293,0.77-0.471
					c-1.039,0.307,0.271-0.188-0.523-0.115c0.197-0.086,0.382-0.138,0.557-0.186c-0.198,0.019-0.39,0.029-0.574,0.034l0.028,0.007
					l0.005-0.002l0,0.004c0.053,0.014,0.072,0.025,0.017,0.023c-0.003,0.003-0.015,0.007-0.021,0.009
					C52.101,329.149,52.088,329.179,52.075,329.208c-0.318,0.031-0.063-0.042,0.026-0.089c0-0.011,0.006-0.022,0.004-0.032
					l-0.004-0.002l-1.026,0.368C51.306,329.427,51.584,329.352,52.075,329.208z"/>
				<path fill="#2AA4C0" d="M57.594,328.897c-0.036-0.006-0.037-0.018-0.042-0.028C57.488,328.904,57.466,328.923,57.594,328.897z"
					/>
				<path fill="#2AA4C0" d="M57.14,328.901c0.071-0.04,0.12-0.118,0.373-0.156c0.226-0.001,0.016,0.075,0.04,0.124
					c0.139-0.076,0.498-0.228,0.011-0.2l-0.069,0.037c-0.435,0.041-1.031-0.051-0.963-0.09
					C56.69,328.739,56.825,328.822,57.14,328.901z"/>
				<path fill="#2AA4C0" d="M54.605,329.123l-0.851,0.301l0.487,0.051l-0.048-0.091C54.7,329.3,54.562,329.211,54.605,329.123z"/>
				<polygon fill="#2AA4C0" points="49.629,329.671 49.673,329.408 49.268,329.87 				"/>
				<polygon fill="#2AA4C0" points="48.495,330.007 48.468,329.785 48.209,329.997 				"/>
				<path fill="#2AA4C0" d="M64.845,362.465l0.274-0.057C64.993,362.417,64.909,362.438,64.845,362.465z"/>
				<path fill="#2AA4C0" d="M63.017,362.058l-0.083,0.178C63.04,362.15,63.09,362.082,63.017,362.058z"/>
				<path fill="#2AA4C0" d="M29.568,350.608c-0.079,0.569-0.254,1.354,0.066,1.073l0.263-0.34
					C29.678,351.088,29.594,350.838,29.568,350.608z"/>
				<path fill="#2AA4C0" d="M47.557,360.108c-0.019-0.052-0.039-0.107-0.059-0.162c-0.138,0.106-0.267,0.205-0.386,0.297
					C47.247,360.202,47.398,360.156,47.557,360.108z"/>
				<path fill="#2AA4C0" d="M48.422,358.521l0.368,0.434C48.718,358.825,48.601,358.681,48.422,358.521z"/>
				<path fill="#2AA4C0" d="M75.001,363.79l0.35-0.355C74.884,363.362,75.063,363.599,75.001,363.79z"/>
				<path fill="#2AA4C0" d="M37.144,334.627c-0.367,0.069-0.638,0.166-0.858,0.276C36.754,334.847,37.187,334.913,37.144,334.627z"
					/>
				<path fill="#2AA4C0" d="M63.245,366.739c0.176-0.046,0.261-0.118,0.274-0.212C63.34,366.568,63.23,366.631,63.245,366.739z"/>
				<path fill="#2AA4C0" d="M35.417,335.446c0.072-0.007,0.133-0.026,0.202-0.038c0.186-0.188,0.381-0.367,0.666-0.505
					C35.938,334.938,35.579,335.066,35.417,335.446z"/>
				<path fill="#2AA4C0" d="M112.248,366.703l0.086,0.021C112.341,366.702,112.303,366.7,112.248,366.703z"/>
				<path fill="#2AA4C0" d="M123.266,366.958c-0.11,0.02-0.282,0.051-0.445,0.079C122.905,367.022,123.03,367,123.266,366.958z"/>
				<path fill="#2AA4C0" d="M43.89,331.339C44.123,331.239,43.916,331.296,43.89,331.339L43.89,331.339z"/>
				<path fill="#2AA4C0" d="M45.437,331.933c-0.039,0.047-0.062,0.096-0.046,0.156C45.386,332.021,45.404,331.971,45.437,331.933z"
					/>
				<path fill="#2AA4C0" d="M34.66,338.646l-0.017,0.013C34.743,338.663,34.725,338.661,34.66,338.646z"/>
				<path fill="#2AA4C0" d="M44.297,331.331c-0.102,0-0.216,0.009-0.337,0.029C44.018,331.363,44.121,331.356,44.297,331.331z"/>
				<path fill="#2AA4C0" d="M44.201,331.228c0.087-0.02,0.155-0.033,0.219-0.047C44.434,331.128,44.396,331.11,44.201,331.228z"/>
				<path fill="#2AA4C0" d="M43.563,331.476c0.135-0.054,0.267-0.091,0.396-0.115c-0.054-0.002-0.079-0.008-0.07-0.021
					C43.821,331.368,43.724,331.408,43.563,331.476z"/>
				<path fill="#2AA4C0" d="M92.145,366.838c0.016,0.011,0.034,0.019,0.051,0.033C92.449,366.75,92.339,366.766,92.145,366.838z"/>
				<path fill="#2AA4C0" d="M37.029,352.708c-0.011-0.003-0.022,0.002-0.032,0l0.017,0.032L37.029,352.708z"/>
				<path fill="#2AA4C0" d="M37.884,352.925c-0.586,0.224-0.719,0.053-0.871-0.185l-0.489,1.116c0,0,0.343-0.23,0.686-0.461
					C37.547,353.16,37.884,352.925,37.884,352.925z"/>
				<path fill="#2AA4C0" d="M69.275,363.185l-0.541-0.479c0.825-0.471,1.312-0.163,0.834-0.786
					c-0.295,1.265-2.346-0.308-2.657,0.967l-0.348-0.346c0.111,0.036,0.143-0.038,0.253-0.004c-0.655-0.771-0.742,0.822-1.705,0.441
					c-0.328-0.168-0.532-0.405-0.267-0.513l-0.834,0.169c-0.22-0.069-0.119-0.285,0.099-0.216l-1.193-0.146l0.017-0.036
					c-0.209,0.168-0.655,0.402-0.87,0.498c-0.259-0.253,0.18-0.106,0.138-0.286l-0.719,0.176c-0.19-0.396,0.419-0.608,0.856-0.463
					c-0.322-1.442-0.613,0.224-1.742-0.847l0.643-0.021c-0.225-0.836-0.755-0.682-1.327-1.31c0.1,0.282,1.097,1.498,0.326,1.657
					c-0.175-0.146-0.422-0.255-0.862-0.081c0.106-0.467-0.288-0.44-0.754-0.523l0.182-0.61c-0.538,0.057-0.575,0.376-0.936,0.58
					c-0.536-0.205-0.527-0.713-0.552-1.149c-0.852-0.328,0.409,0.925-0.663,0.769c-0.674-0.42-1.246-0.32-2.225-0.199
					c-0.45-0.357,0.196-0.352,0.063-0.579l-0.593,0.362c-0.107-0.043-0.028-0.184,0.013-0.254c-0.436,0.079-0.212,0.609-0.861,0.595
					c-0.369,0.623-0.922-1.364-1.898-0.828c-0.126-0.229,0.208-0.347,0.229-0.599c-1.165,0.17-0.972,0.075-2.027,0.466l-0.564-0.634
					c0.356,0.628-0.492,0.942-1.233,1.154c0.104,0.286,0.193,0.535,0.267,0.666l-1.054-0.029c-0.077-0.141,0.096-0.31,0.341-0.502
					c-0.082,0.025-0.161,0.052-0.225,0.079c-0.25-0.345,0.055-0.623,0.416-0.868c0.064,0.161,0.13,0.328,0.195,0.492
					c0.363-0.278,0.721-0.603,0.801-0.972c-0.084,0.048-0.22,0.064-0.358,0.051c0.095-0.077,0.165-0.151,0.16-0.221
					c-0.008-0.075-0.151,0.022-0.357,0.119l0.042-0.742l-0.149,0.246c0,0-0.257-0.214-0.514-0.427
					c-0.258-0.21-0.506-0.434-0.506-0.434c-1.09,0.32-2.246,1.012-3.703,0.652c0.546-0.319,0.421-0.735,0.695-1.282
					c0.094,0.747,1.119,0.215,1.756,0.603c-0.333-0.209-0.139-0.445-0.008-0.503c0,0-0.362,0.009-0.724,0.019
					c-0.361,0-0.722,0-0.722,0c0.233-0.445-0.101-0.457-0.327-0.784c-0.181,1.01-1.176,0.192-1.785,0.21
					c0.119-0.31,0.385-0.555,0.932-0.194c-0.309-0.979-1.351,0.619-1.708-0.261c0.148,0.064,0.202,0.148,0.336,0.027
					c-0.48,0.105-1.16-0.56-0.835-0.699l0.142,0.07c-0.883-0.587-2.738-1.602-3.321-1.048c0.052-0.093,0.67-0.733,0.812-0.837
					c0,0-0.757,0.312-1.554,0.588c-0.8,0.29-1.609,0.492-1.609,0.492c0.555-0.447,1.108-2.125,2.004-1.912
					c-0.127-0.229-0.28-0.498-0.832-0.622c0.062,0.173-0.315,1.031-0.537,0.935c0.002-0.984-0.094-0.593-0.197-1.584
					c0.076,0.271-0.858,0.878-1.136,0.568c0.159-0.072,0.726-0.774,0.907-0.76c0,0-0.365,0.033-0.721,0.042
					c-0.355-0.003-0.711-0.006-0.711-0.006c0.306,0.058,0.686-0.57,0.775-0.911c-0.103,0.207-0.515-0.593-0.709-0.729l0.032,0.451
					c-0.235-0.459-0.691-0.443-1.16-0.465c-0.446-0.027-0.923-0.088-1.182-0.606c0.277,0.038,1.292-0.304,1.219-0.798
					c-0.28,0.004-0.956,0.018-1.682-0.163c-0.676-0.183-1.413-0.596-1.672-1.187l0.276-0.262c0,0-0.097-0.225-0.194-0.448
					c-0.101-0.228-0.177-0.466-0.177-0.466c0.37,0.306,1.017,0.822,1.63,1.211c0.71,0.389,1.304,0.669,1.756,0.828
					c0.09-0.395,0.27-0.197,0.129-0.656c0.236-0.22,0.457,0.139,0.524,0.254c-0.02,0-0.024-0.264-0.05-0.514
					c-0.045-0.252-0.01-0.494-0.01-0.494c-0.595,0.125-0.683-0.758-1.137-0.758c0,0,0.034,0.083,0.084,0.206
					c0.051,0.121,0.161,0.278,0.249,0.426c0.169,0.299,0.372,0.556,0.389,0.555c-0.285,0.078-0.775-0.009-1.119-0.305
					c-0.18-0.146-0.343-0.34-0.459-0.564c-0.101-0.225-0.12-0.479-0.083-0.728c0.245-0.211,1.035,0.299,1.234,0.279
					c-0.229-0.113-0.273-0.854-0.121-0.9c-0.012,0.004,0.247,0.415,0.247,0.415c0.133-0.199-0.017-0.418-0.095-0.663
					c-0.099-0.242-0.123-0.512,0.251-0.678c0.101-0.191,0.906-0.219,0.622-0.404c-0.713-0.032-2.61-0.79-2.893-1.288
					c0.045-0.032,0.359-0.292,0.718-0.521c0.377-0.219,0.778-0.422,0.99-0.446c0.631-0.022,0.636,1.189,1.186,1.158
					c-0.118-0.096-0.17-0.383-0.158-0.486c0.251-0.113,0.322,0.361,0.576-0.089c-0.402-0.431,0.715-0.794-0.22-0.498
					c0.221-0.506,0.449-0.35,0.85-0.817c-0.402-0.101-0.457-1.274-0.107-1.774c0.066,0.126,0.283,0.179,0.383,0.201
					c0.907-0.72,1.556-0.878,2.427-1.485c0.148,0.043,0.66-0.105,0.599,0.198c0.076-0.159,0.1-0.381,0.368-0.569
					c0.76,0.033-0.57,0.453,0.115,0.643c-0.128-0.275,0.478-0.809,0.796-1.194c-0.355-0.324-0.979,0.479-1.257,0.897
					c-0.352-0.529-0.017-1.555,0.868-2.353c0.735-0.568,0.541,0.16,0.639,0.008c1.555-0.694,0.839-1.581,2.33-1.792
					c0.673,0.109,0.328,0.649,0.554,0.84c-0.608,0.424-1.116,0.272-1.564,0.496l0.631-0.107c-0.156,0.215-0.552,0.509-0.837,0.535
					c0.562,0.084,2.584-1.197,3.906-1.402c0.166-0.198,0.489-0.461,0.264-0.518l-0.362,0.203c-0.459-0.114,0.574-0.651,0.04-0.573
					c0.443-0.385,0.928-0.872,1.724-0.993l0.27,0.302c-0.054-0.099-0.562-0.042-0.727,0.146c0.249-0.272,1.303,0.069,1.475-0.5
					l-0.606-0.062c0.464-0.357,1.004-0.926,1.713-1.011c-0.417-0.237-0.14,0.085-0.752-0.163c0.58,0.35-1.725,0.51-0.875,0.82
					c-0.657-0.309-0.913,0.074-1.706-0.111c0.066,0.111,0.313,0.148-0.271,0.281c-0.012,0.043-0.054,0.107-0.082,0.146
					c-0.018,0.002-0.025,0.002-0.042,0.004l0.037,0.004c-0.017,0.025-0.018,0.03,0.014,0c0.154,0.007,0.286,0.031,0.355,0.082
					c-0.172,0.36-1.049,0.684-1.281,0.947c-0.349,0.069,0.077-0.192-0.155-0.252l-0.348,0.388c-0.16-0.259-1.066-0.104-0.363-0.573
					l-0.702,0.268c-0.479,0.01-1.08,0.175-1.366,0.453c-0.358,0.083-0.668,0.678-0.495,0.33c0,0-0.251,0.158-0.494,0.336
					c-0.244,0.175-0.488,0.349-0.488,0.349l-0.048-0.065c-1.092,0.476-1.851,1.589-3.342,1.812c-0.292,0.294-0.58,0.599-1.19,0.93
					l-0.295-0.162c-0.365,0.377-1.481,0.76-1.443,1.157c-0.502-0.106-1.061,0.297-1.544,0.879c-0.25,0.274-0.474,0.602-0.683,0.902
					c-0.215,0.291-0.408,0.564-0.59,0.768l0.33,0.271c-0.215,0.283-0.397,0.58-0.535,0.94c-0.149,0.348-0.275,0.73-0.37,1.188
					l0.376,0.099c-0.017,0.767-0.966,1.757-1.007,3.076c-0.145-0.093-0.077-0.421,0.035-0.637c-0.248,0.353-0.381,0.761-0.359,1.166
					c0.025,0.407,0.138,0.812,0.263,1.194c0.338,0.752,0.696,1.394,0.647,2.118c0.258,0.254,0.287,0.5,0.294,0.751
					c-0.015-0.026-0.034-0.047-0.056-0.062c0.011,0.031,0.033,0.075,0.057,0.12c0.004,0.157,0,0.326,0.02,0.502
					c0.022-0.17,0.034-0.322,0.015-0.439c0.125,0.218,0.349,0.531,0.614,0.801l-0.3,0.372c0.019,0.024,0.033,0.044,0.053,0.07
					c0.066,0.393,0.337,0.121,0.51-0.212c0.163,0.107,0.329,0.191,0.488,0.232c-0.415,0.646,0.703,0.616,0.364,1.365
					c0.221-0.03,0.56,0.255,0.931,0.491c0.372,0.234,0.801,0.372,1.136,0.147c-0.064,0.084-0.029,0.187-0.161,0.068
					c0.202,0.314,0.402,0.653,0.798,0.692l-0.259,0.538c0,0,0.28-0.021,0.56-0.043c0.275-0.026,0.551-0.053,0.551-0.053
					c0.145,0.578,0.186,0.881-0.469,0.922c1.338,0.177,0.921,0.365,2.1,0.376l-0.252,0.288c0.29,0.203,1.04,0.048,1.041,0.431
					c0.253,1.092,3.221,2.021,4.714,3.45c0.131-1.206,0.621,0.854,1.057,0.071c-0.006,0.297,0.185,0.554-0.203,0.638
					c1.027,0.16,1.233,0.992,2.157,0.562c0.005,0.3-0.348,0.291-0.314,0.481c0.098-0.024,0.385-0.099,0.422,0.094
					c0.036,0.191-0.221,0.157-0.414,0.207c0.979,0.346,1.38-0.425,1.729-1.137c0.346,0.532,0.609,0.574,1.131,0.213
					c0.077,0.307,0.267,0.669-0.356,0.535c0.312,0.177,1.923,1.072,2.159,0.482c0.053,0.189,0.453,0.205,0.563,0.164
					c0.741,0.279,0.792,0.35,1.552,0.523l-0.175-0.164c0.52-0.646,0.664,0.027,1.289,0.122l-0.04,0.071
					c1.223,0.922,0.665-0.089,1.854,0.904l0.053-0.482c0.395-0.951,1.044,0.916,1.943,0.732l-0.218-0.337
					c0.516-0.231,0.866,1.666,1.281,1.896c0.075,0.108-0.186,0.106-0.335,0.135c1.014,0.859,0.298-0.57,1.19-0.514
					c0.081,0.363-0.403,0.786,0.164,0.979c0.233,0.33,1.922-0.672,2.576,0.106c-0.121-0.287-0.238-0.574,0.201-0.681
					c0.627,0.033,1.461,1.298,2.176,0.603c0.064,0.083,0.081,0.154,0.072,0.217c0.51-0.117,1.592-0.058,1.952-0.432
					c0.15,1.669,3.049-0.278,2.791,1.173l1.463,0.14l-0.061,0.141c0.915,0.226,1.295-0.071,1.67-0.365
					c0.2,0.127,0.024,0.237-0.004,0.31c1.313,0.477,1.465,0.41,2.692-0.141l0.059,0.469c0.338-0.213,1.879,0.931,3.277,0.537
					c-0.019,0.049-0.056,0.133-0.169,0.184c1.55-0.342,3.49,1.495,4.188-0.015l1.024-0.31c-1.269-0.212,0.249-0.654-0.255-0.949
					c0.508-0.049,1.258,0.563,0.634,0.596l-0.09-0.084c-0.295,0.782,1.566,0.396,1.49,0.93c2.526,0.121,4.968,0.624,7.341,0.689
					l-0.25-0.559l0.824,0.052c0.212,0.13,0.275,0.427-0.314,0.4c0.298,0.31,1-0.25,1.02-0.364c1.146,0.229-0.474,0.621-0.121,0.64
					l0.483-0.039l-0.106-0.062c0.398-0.217,0.44-0.445,1.147-0.412c0.445,0.108,0.221,0.323,0.397,0.345
					c-0.002,0.037,0.057,0.054,0.271,0.016l1.041,0.035l-0.407-0.397c0.466-0.2,0.978,0.018,0.508-0.434
					c0.69,0.701,3.873,0.224,4.302,0.391c0.646-0.284,1.281-0.292,2.07-0.286c-0.197-0.064-0.316-0.449,0.363-0.414
					c-0.241,0.786,1.247,0.307,1.805,0.818c-0.497-0.332,1.932-0.169,1.151-0.619c0.568,0.038,0.041,0.268,0.475,0.408
					c1.341-0.359,2.978-0.066,4.641-0.301c0.022-0.076-0.262-0.171,0.09-0.308l0.897,0.294c0.327-0.068,0.281-0.428,0.894-0.238
					c-0.087-0.05-0.219-0.127,0-0.165c1.637,0.016,3.292-0.279,4.955-0.481c1.628-0.196,3.186-0.384,4.977-0.6
					c-0.448,0.035-0.153-0.022,0.186-0.081c-0.221,0.027-0.001-0.053-0.047-0.073c0,0,0.345-0.035,0.69-0.07
					c0.344-0.043,0.688-0.086,0.688-0.086c0.244-0.087,1.466-0.254,1.606-0.299l-0.433,0.072c0.575-0.1-0.818,0.038-0.742-0.05
					c-0.643,0.134-1.734-0.02-2.788,0.194c-0.239-0.014,0.196-0.059,0.067-0.083c-0.265,0.074-0.59,0.118-1.199,0.127l0.067-0.022
					c-1.7,0.133-2.444,0.029-4.364,0l0.152,0.135c-0.413-0.006-0.502-0.048-0.698-0.08c-0.456,0.235,1.156-0.021,0.744,0.224
					c-0.567-0.271-2.9,0.122-3.292-0.259c-0.632,0.006,0.198,0.207-0.435,0.207l-0.174-0.113l-0.152,0.146
					c-0.417-0.023-0.633-0.172-0.654-0.273c0.102,0.014,0.285-0.023,0.392-0.03c-0.545-0.151-1.514,0.026-1.701-0.021l0.611,0.083
					c-1.722,0.107-3.831-0.079-5.488,0.215l0.129,0.121c-1.269,0.195-1.022-0.156-2.417-0.083l0.05-0.029
					c-0.278,0.12-0.651,0.18-1.033,0.158c0.351-0.145-0.666-0.315-0.204-0.476c-1.376,0.229-0.68,0.187-1.591,0.684l-0.21-0.233
					c-0.311,0.205-0.337,0.316-1.037,0.374c0.574-0.197-0.442-0.368,0.2-0.627c-1.455-0.563-2.178,0.462-2.835-0.356
					c-0.685,0.672,1.258,0.438,0.88,0.57c0.312,0.232-0.563,0.496-1.022,0.416c-0.468-0.031-0.777-0.917-1.948-0.983
					c0.116,0.011,0.126-0.044,0.242-0.033c-0.433-0.215-0.867,0.202-1.395-0.138c-0.317,0.435-0.697-0.068-0.806,0.51l1.082-0.078
					c-0.614,0.111-1.214,0.779-2.209,0.394c0.083-0.114,0.389-0.254,0.599-0.332c-0.287-0.188-0.571,0.083-0.868-0.117
					c0.112-0.585,1.313-0.049,1.982-0.457c-0.306-0.267-1.25,0.349-0.898-0.267c-0.504,0.79-1.146-0.191-1.967,0.383l0.07-0.36
					c-0.128,0.048-0.396,0.201-0.626,0.175l0.441-0.442c-0.661,0.356-1.214-0.455-1.838-0.286c1.284,0.096,0.263,0.475,0.792,0.786
					c-1.618,0.392-0.857-1.056-2.635-1.044c0.242-0.03,0.884,0.316,0.498,0.458c-0.333-0.109-0.768-0.298-0.96-0.521
					c-1.178-0.03,0.152,0.416-0.364,0.608c-0.366-0.511-0.591,0.145-1.119,0.246l0.027-0.401c-1.316-0.399-0.421,0.805-1.603,0.372
					l0.556-0.514l-0.64,0.082l0.169-0.452c-0.71,0.271-0.917,0.169-1.571-0.044c0.128,0.312-0.156,0.744-0.75,0.691
					c-0.38-0.295,0.264-0.372-0.581-0.41c0.216-0.241,0.453-0.545,0.781-0.115c0.05-0.133,0.211-0.24,0.262-0.369
					c-0.406-0.339-1.081-0.201-1.384-0.232c0.115,0.029,0.251,0.069,0.317,0.139l-1.273,0.443c-0.174-0.182-0.009-0.293,0.154-0.401
					c-0.25,0.017-0.441,0.195-0.806,0.183c0.131-0.338,0.148-0.695,0.674-0.794l-1.192,0.23c-0.06-0.162-0.542-0.501-0.378-0.609
					c-0.608-0.306-1.645,0.48-2.453,0.068c-0.053,0.063-0.149,0.116-0.335,0.14c-0.783-0.201-1.421-0.748-2.428-0.4l-0.434-0.745
					c-0.754,0.025,0.597,0.946-0.661,0.989c-0.899,0.068-0.237-0.614-0.512-0.848c-0.479,0.261-1.339,0.818-2.042,0.129
					C68.834,363.052,69.023,363.188,69.275,363.185z M60.253,361.652c0.195-0.057,0.605-0.276,0.669,0.028
					C60.606,362.168,60.511,361.876,60.253,361.652z M46.611,358.771c0.181-0.102,0.343,0.042,0.495,0.293
					C46.936,359.042,46.764,358.958,46.611,358.771z M41.396,332.587l-0.012,0.022C40.947,332.651,41.104,332.641,41.396,332.587z
					 M42.249,332.388c0.062-0.073,0.038-0.112-0.014-0.139c-0.022,0.097-0.198,0.176-0.411,0.238
					C41.916,332.542,42.042,332.552,42.249,332.388z M94.701,369.273l-0.161-0.091C94.912,369.087,94.806,369.175,94.701,369.273z"
					/>
				<path fill="#2AA4C0" d="M48.317,358.703c0.019,0.094,0.001,0.183-0.019,0.271C48.392,358.923,48.424,358.836,48.317,358.703z"/>
				<path fill="#2AA4C0" d="M74.936,363.856l0.027,0.009c0.019-0.023,0.03-0.05,0.038-0.075L74.936,363.856z"/>
				<path fill="#2AA4C0" d="M33.664,341.993c-0.138,0.084-0.231,0.115-0.327,0.117C33.417,342.175,33.511,342.162,33.664,341.993z"
					/>
				<path fill="#2AA4C0" d="M46.333,330.396l-0.498,0.233c0.248-0.093,0.36-0.062,0.503-0.058
					C46.305,330.511,46.171,330.45,46.333,330.396z"/>
				<path fill="#2AA4C0" d="M51.342,330.62c0.066-0.051,0.158-0.051,0.223-0.102l-0.052-0.103
					C51.194,330.515,50.998,330.669,51.342,330.62z"/>
				<path fill="#2AA4C0" d="M47.132,331.134c0.12,0.209,0.413,0.026,0.76-0.126c-0.021,0.008-0.042,0.017-0.064,0.021
					C47.83,330.689,47.476,330.901,47.132,331.134z"/>
				<path fill="#2AA4C0" d="M47.973,330.975c0.108-0.046,0.219-0.087,0.332-0.11C48.305,330.729,48.16,330.881,47.973,330.975z"/>
				<path fill="#2AA4C0" d="M43.191,331.83c0.197-0.003-0.023-0.352,0.115-0.288C43.366,331.159,42.323,332.345,43.191,331.83z"/>
				<polygon fill="#2AA4C0" points="47.679,331.772 47.456,331.54 47.336,331.834 				"/>
				<path fill="#2AA4C0" d="M44.824,332.59l0.592-0.134c-0.027-0.046,0.033-0.102,0.112-0.157
					C45.179,332.422,44.776,332.508,44.824,332.59z"/>
				<path fill="#2AA4C0" d="M45.527,332.299c0.183-0.063,0.351-0.135,0.434-0.22C45.865,332.119,45.659,332.209,45.527,332.299z"/>
				<polygon fill="#2AA4C0" points="46.94,332.134 46.753,332.136 46.348,332.259 				"/>
				<path fill="#2AA4C0" d="M38.927,335.241l-0.519,0.418c0.006,0.143,0.2,0.12,0.385-0.045
					C38.886,335.46,39.074,335.297,38.927,335.241z"/>
				<path fill="#2AA4C0" d="M41.123,335.185c-0.188,0.013-0.234-0.052-0.375-0.111l0.181,0.398L41.123,335.185z"/>
				<path fill="#2AA4C0" d="M39.528,336.17c0.004,0.143-0.61,0.79,0.062,0.35C39.58,336.375,40.085,335.966,39.528,336.17z"/>
				<polygon fill="#2AA4C0" points="31.97,341.971 32.054,341.831 31.312,341.396 				"/>
				<path fill="#2AA4C0" d="M33.975,348.747c-0.095-0.609-0.567,0.164-0.6-0.437c-0.27-0.028,0.03,0.495-0.213,0.459
					C33.557,348.987,33.532,349.215,33.975,348.747z"/>
				<path fill="#2AA4C0" d="M33.162,348.77c-0.062-0.036-0.135-0.071-0.224-0.104C33.047,348.736,33.112,348.76,33.162,348.77z"/>
				<polygon fill="#2AA4C0" points="125.069,366.673 125.56,366.584 125.243,366.634 				"/>
				<path fill="#2AA4C0" d="M126.008,366.478l0.116-0.013l0.294-0.059C126.312,366.425,126.163,366.45,126.008,366.478z"/>
				<path fill="#2AA4C0" d="M59.235,360.074l-0.072,0.142c0.034,0.182,0.141,0.221,0.356,0.299L59.235,360.074z"/>
				<polygon fill="#2AA4C0" points="65.564,361.979 65.456,361.943 65.558,362.547 				"/>
				<path fill="#2AA4C0" d="M71.138,362.29c-0.22-0.062-0.5,0.016-0.721-0.046C70.918,362.229,71.094,362.985,71.138,362.29z"/>
			</g>
		</g>
	</g>
</g>
<g>
	<ellipse fill="#2AA4C0" cx="546.827" cy="121.51" rx="64.088" ry="18.328"/>
	<path fill="#2AA4C0" d="M483.088,121.479c0,0,0.025,0.271,0.074,0.797c0.021,0.268,0.137,0.527,0.217,0.877
		c0.125,0.334,0.289,0.739,0.533,1.156c0.96,1.706,3.259,3.697,6.651,5.308c1.696,0.81,3.653,1.543,5.833,2.181
		c2.171,0.662,4.57,1.22,7.159,1.676c5.174,0.929,11.076,1.537,17.508,1.999c6.431,0.485,13.395,0.903,20.787,1.229
		c7.362,0.312,15.237,0.688,23.342,0.5c8.108-0.193,16.54-1.013,24.758-3.24c2.049-0.562,4.085-1.188,6.087-1.91
		c1.988-0.757,3.938-1.608,5.794-2.593c1.835-1.011,3.584-2.178,4.996-3.543c0.668-0.698,1.298-1.432,1.657-2.2
		c0.118-0.186,0.186-0.378,0.247-0.568c0.063-0.188,0.159-0.373,0.17-0.56c0.021-0.186,0.09-0.366,0.088-0.547l-0.001-0.268
		l0.003-0.133l0.002-0.065c0.004,0.053-0.005-0.211,0.01,0.102l-0.116-0.812c-0.012-0.169-0.06-0.18-0.087-0.252
		c-0.031-0.061-0.058-0.12-0.081-0.181c-0.018-0.101-0.144-0.294-0.228-0.456c-0.083-0.168-0.172-0.335-0.309-0.497
		c-0.432-0.666-1.117-1.281-1.821-1.861c-1.476-1.145-3.261-2.082-5.12-2.881c-3.725-1.625-7.772-2.752-11.811-3.721
		c-8.122-1.887-16.388-2.869-24.394-3.432c-8.021-0.529-15.785-0.713-23.188-0.666c-7.357,0.024-14.336,0.416-20.769,0.777
		c-6.432,0.421-12.339,0.985-17.51,1.914c-2.588,0.451-4.986,1.005-7.156,1.665c-2.179,0.635-4.135,1.364-5.831,2.169
		c-3.392,1.602-5.691,3.577-6.659,5.273c-0.99,1.702-0.769,2.817-0.837,2.792L483.088,121.479z M482.389,121.51
		c0.07,0.036-0.187-1.261,0.875-3.169c1.03-1.901,3.358-4.066,6.715-6.028c1.677-0.986,3.597-1.967,5.731-2.936
		c2.143-0.948,4.499-1.891,7.054-2.796c5.11-1.797,11.012-3.514,17.569-4.734c6.553-1.305,13.736-1.983,21.377-2.282
		c7.592-0.292,15.667-0.104,23.953,0.771c8.289,0.854,16.828,2.263,25.346,4.695c2.125,0.627,4.25,1.325,6.355,2.128
		c2.098,0.832,4.18,1.771,6.218,2.885c2.022,1.142,4.012,2.454,5.813,4.194c0.88,0.903,1.747,1.866,2.391,3.108
		c0.178,0.287,0.318,0.613,0.444,0.95c0.128,0.34,0.269,0.629,0.355,1.068l0.13,0.61c0.035,0.192,0.088,0.439,0.08,0.546
		l0.028,0.819c0.01,0.381-0.005,0.185-0.007,0.306l-0.016,0.138l-0.033,0.275l-0.073,0.547c-0.055,0.361-0.189,0.697-0.289,1.042
		c-0.092,0.353-0.263,0.651-0.412,0.965c-0.149,0.314-0.309,0.617-0.506,0.88c-0.717,1.141-1.639,1.984-2.555,2.77
		c-1.865,1.52-3.891,2.603-5.937,3.532c-2.039,0.946-4.119,1.722-6.213,2.395c-2.09,0.68-4.184,1.305-6.29,1.836
		c-8.422,2.092-16.795,3.663-24.981,4.887c-8.201,1.218-16.166,1.964-23.799,1.938c-7.606,0.003-14.805-0.649-21.359-1.829
		c-3.279-0.579-6.391-1.321-9.33-2.088c-2.933-0.805-5.686-1.666-8.242-2.561c-2.554-0.9-4.909-1.84-7.05-2.785
		c-2.133-0.967-4.052-1.942-5.729-2.924c-3.356-1.952-5.688-4.101-6.725-5.992c-0.265-0.465-0.442-0.908-0.583-1.301
		c-0.098-0.408-0.222-0.77-0.239-1.031c-0.044-0.526-0.067-0.799-0.067-0.799L482.389,121.51z"/>
</g>
<g>
	<ellipse fill="#2AA4C0" cx="159.943" cy="133.628" rx="52.408" ry="16.501"/>
	<g>
		<path fill="#2AA4C0" d="M107.884,133.6c0,0,0.02,0.226,0.057,0.662c0.051,0.429,0.193,0.967,0.524,1.716
			c0.366,0.718,0.968,1.529,1.827,2.35c0.854,0.828,2.013,1.601,3.365,2.346c2.721,1.482,6.355,2.67,10.618,3.475
			c4.258,0.833,9.132,1.34,14.433,1.741c5.3,0.423,11.036,0.793,17.131,1.11c6.062,0.298,12.575,0.689,19.273,0.556
			c6.701-0.138,13.684-0.875,20.413-2.921c3.354-1.002,6.662-2.336,9.604-4.138c1.444-0.925,2.814-1.97,3.836-3.172
			c0.5-0.604,0.908-1.243,1.17-1.874c0.098-0.319,0.24-0.628,0.255-0.934c0.01-0.153,0.072-0.302,0.048-0.451l-0.005-0.221v-0.108
			l0-0.055c0.003,0.05-0.005-0.188,0.007,0.099l-0.099-0.673l-0.024-0.168l-0.041-0.076l-0.071-0.146
			c-0.021-0.049-0.038-0.098-0.053-0.146l-0.108-0.202c-0.079-0.136-0.125-0.273-0.221-0.407c-0.344-0.54-0.816-1.061-1.359-1.551
			c-1.098-0.981-2.514-1.798-3.985-2.507c-1.469-0.729-3.039-1.343-4.647-1.87c-1.603-0.544-3.227-1.05-4.886-1.461
			c-6.616-1.711-13.419-2.598-20.004-3.105c-6.604-0.473-12.996-0.641-19.102-0.607c-6.055,0.021-11.811,0.344-17.108,0.671
			c-5.304,0.331-10.182,0.815-14.438,1.642c-4.261,0.794-7.891,1.98-10.611,3.452c-1.353,0.739-2.511,1.507-3.367,2.327
			c-0.861,0.814-1.465,1.621-1.835,2.334c-0.332,0.727-0.489,1.319-0.537,1.725c-0.038,0.407-0.058,0.617-0.058,0.617L107.884,133.6
			z M107.185,133.628c0,0,0.017-0.24,0.048-0.706c0.044-0.464,0.205-1.145,0.561-1.969c0.405-0.795,0.994-1.728,1.875-2.652
			c0.876-0.927,2.002-1.856,3.344-2.771c2.681-1.836,6.197-3.642,10.381-5.359c2.097-0.847,4.359-1.679,6.78-2.452
			c2.426-0.737,5-1.467,7.719-2.053c5.44-1.219,11.418-1.875,17.791-2.159c6.32-0.278,13.057-0.106,19.956,0.72
			c6.902,0.808,14.007,2.125,21.065,4.413c3.523,1.168,7.034,2.601,10.361,4.704c1.646,1.078,3.266,2.293,4.674,3.924
			c0.696,0.822,1.342,1.741,1.824,2.813c0.125,0.26,0.211,0.559,0.312,0.837l0.141,0.429l0.105,0.513l0.089,0.514l0.037,0.253
			l0.002,0.17l0.01,0.68c-0.13,2.842-1.556,4.604-3.021,6.032c-1.484,1.411-3.149,2.396-4.823,3.26
			c-1.666,0.88-3.377,1.593-5.105,2.205c-1.721,0.629-3.45,1.193-5.185,1.691c-3.466,1.02-6.945,1.812-10.39,2.583
			c-3.447,0.756-6.873,1.445-10.268,2.016c-6.804,1.165-13.419,1.897-19.784,1.884c-6.333,0.012-12.33-0.598-17.769-1.721
			c-2.722-0.547-5.294-1.264-7.724-1.978c-2.419-0.765-4.685-1.581-6.779-2.427c-4.183-1.708-7.695-3.512-10.375-5.336
			c-1.341-0.909-2.467-1.834-3.345-2.754c-0.884-0.918-1.475-1.846-1.884-2.636c-0.358-0.802-0.533-1.537-0.574-1.977
			c-0.033-0.438-0.049-0.662-0.049-0.662L107.185,133.628z"/>
	</g>
</g>
<g>
	<g>
		<path fill="#DAF0F2" d="M465.281,112.125c0,0,0.025,0.29,0.072,0.852c0.064,0.553,0.252,1.273,0.681,2.244
			c0.477,0.934,1.25,1.994,2.358,3.063c1.103,1.078,2.588,2.093,4.326,3.075c1.748,0.972,3.788,1.864,6.075,2.652
			c2.28,0.807,4.813,1.491,7.547,2.083c5.466,1.195,11.737,2.001,18.575,2.621c6.837,0.644,14.252,1.154,22.125,1.515
			c7.84,0.343,16.233,0.686,24.863,0.366c8.63-0.33,17.607-1.371,26.289-4.005c4.324-1.306,8.616-2.958,12.453-5.279
			c1.89-1.181,3.694-2.517,5.075-4.093c0.678-0.792,1.246-1.637,1.625-2.498c0.105-0.213,0.149-0.438,0.23-0.65
			c0.088-0.213,0.134-0.43,0.16-0.646c0.022-0.216,0.109-0.426,0.086-0.641l0.002-0.316l0.004-0.158l0.002-0.078
			c0.004,0.042-0.004-0.205,0.009,0.074l-0.114-0.866l-0.029-0.216l-0.052-0.124l-0.093-0.24l-0.076-0.24l-0.144-0.292
			c-0.105-0.195-0.17-0.396-0.297-0.586c-0.463-0.771-1.094-1.498-1.815-2.175c-1.457-1.355-3.307-2.462-5.224-3.428
			c-1.917-0.983-3.957-1.812-6.043-2.525c-2.08-0.729-4.188-1.402-6.337-1.955c-8.573-2.284-17.366-3.485-25.882-4.182
			c-8.535-0.659-16.806-0.875-24.69-0.798c-7.835,0.059-15.267,0.543-22.105,1.062c-6.837,0.578-13.114,1.339-18.577,2.535
			c-2.733,0.586-5.265,1.268-7.543,2.071c-2.285,0.785-4.324,1.674-6.071,2.642c-1.738,0.976-3.223,1.986-4.328,3.057
			c-1.111,1.063-1.885,2.119-2.366,3.048c-0.431,0.948-0.633,1.724-0.694,2.253c-0.049,0.532-0.074,0.807-0.074,0.807
			L465.281,112.125z M464.583,112.153c0,0,0.021-0.305,0.063-0.896c0.058-0.589,0.263-1.451,0.718-2.497
			c0.516-1.011,1.276-2.192,2.407-3.366c1.124-1.177,2.577-2.35,4.304-3.501c1.727-1.152,3.724-2.293,5.959-3.414
			c2.247-1.093,4.73-2.164,7.427-3.206c5.396-2.068,11.664-3.986,18.642-5.37c6.974-1.469,14.633-2.244,22.783-2.578
			c8.098-0.323,16.715-0.103,25.545,0.909c8.832,0.996,17.927,2.63,26.943,5.489c4.498,1.461,8.982,3.243,13.208,5.854
			c2.092,1.334,4.146,2.84,5.913,4.845c0.874,1.01,1.679,2.135,2.28,3.438c0.157,0.316,0.262,0.678,0.389,1.015l0.176,0.52
			l0.128,0.607l0.111,0.607l0.048,0.301l0.006,0.218l0.026,0.873c-0.134,3.368-1.842,5.605-3.665,7.403
			c-1.843,1.785-3.943,3.061-6.062,4.18c-2.114,1.135-4.296,2.061-6.501,2.859c-2.197,0.819-4.404,1.573-6.634,2.195
			c-4.447,1.295-8.913,2.311-13.341,3.256c-4.431,0.93-8.835,1.748-13.196,2.41c-8.735,1.351-17.23,2.131-25.373,2.073
			c-8.111-0.031-15.788-0.781-22.763-2.125c-3.491-0.657-6.796-1.503-9.917-2.362c-3.112-0.913-6.028-1.896-8.727-2.922
			c-2.695-1.037-5.177-2.105-7.423-3.195c-2.234-1.118-4.23-2.255-5.956-3.402c-1.727-1.145-3.18-2.312-4.306-3.482
			c-1.133-1.166-1.895-2.344-2.416-3.35c-0.456-1.023-0.676-1.94-0.73-2.505c-0.042-0.562-0.064-0.852-0.064-0.852L464.583,112.153z
			"/>
	</g>
</g>
<g>
	<path fill="#DAF0F2" d="M107.884,127.982c0,0,0.02,0.226,0.057,0.662c0.051,0.429,0.193,0.967,0.524,1.716
		c0.366,0.718,0.968,1.529,1.827,2.35c0.854,0.828,2.013,1.601,3.365,2.346c2.721,1.482,6.355,2.67,10.618,3.475
		c4.258,0.833,9.132,1.34,14.433,1.741c5.3,0.423,11.036,0.793,17.131,1.11c6.062,0.298,12.575,0.689,19.273,0.556
		c6.701-0.138,13.684-0.875,20.413-2.921c3.354-1.002,6.662-2.336,9.604-4.138c1.444-0.925,2.814-1.97,3.836-3.172
		c0.5-0.604,0.908-1.243,1.17-1.874c0.098-0.319,0.24-0.628,0.255-0.934c0.01-0.153,0.072-0.302,0.048-0.451l-0.005-0.221v-0.108
		l0-0.055c0.003,0.05-0.005-0.188,0.007,0.099l-0.099-0.673l-0.024-0.168l-0.041-0.076l-0.071-0.146
		c-0.021-0.049-0.038-0.098-0.053-0.146l-0.108-0.202c-0.079-0.136-0.125-0.273-0.221-0.407c-0.344-0.54-0.816-1.061-1.359-1.551
		c-1.098-0.981-2.514-1.798-3.985-2.507c-1.469-0.729-3.039-1.343-4.647-1.87c-1.603-0.544-3.227-1.05-4.886-1.461
		c-6.616-1.711-13.419-2.598-20.004-3.105c-6.604-0.473-12.996-0.641-19.102-0.607c-6.055,0.021-11.811,0.344-17.108,0.671
		c-5.304,0.331-10.182,0.815-14.438,1.642c-4.261,0.794-7.891,1.98-10.611,3.452c-1.353,0.739-2.511,1.507-3.367,2.327
		c-0.861,0.814-1.465,1.621-1.835,2.334c-0.332,0.727-0.489,1.319-0.537,1.725c-0.038,0.407-0.058,0.617-0.058,0.617
		L107.884,127.982z M107.185,128.011c0,0,0.017-0.24,0.048-0.706c0.044-0.464,0.205-1.145,0.561-1.969
		c0.405-0.795,0.994-1.728,1.875-2.652c0.876-0.927,2.002-1.856,3.344-2.771c2.681-1.836,6.197-3.642,10.381-5.359
		c2.097-0.847,4.359-1.679,6.78-2.452c2.426-0.737,5-1.467,7.719-2.053c5.44-1.219,11.418-1.875,17.791-2.159
		c6.32-0.278,13.057-0.106,19.956,0.72c6.902,0.808,14.007,2.125,21.065,4.413c3.523,1.168,7.034,2.601,10.361,4.704
		c1.646,1.078,3.266,2.293,4.674,3.924c0.696,0.822,1.342,1.741,1.824,2.813c0.125,0.26,0.211,0.559,0.312,0.837l0.141,0.429
		l0.105,0.513l0.089,0.514l0.037,0.253l0.002,0.17l0.01,0.68c-0.13,2.842-1.556,4.604-3.021,6.032
		c-1.484,1.411-3.149,2.396-4.823,3.26c-1.666,0.88-3.377,1.593-5.105,2.205c-1.721,0.629-3.45,1.193-5.185,1.691
		c-3.466,1.02-6.945,1.812-10.39,2.583c-3.447,0.756-6.873,1.445-10.268,2.016c-6.804,1.165-13.419,1.897-19.784,1.884
		c-6.333,0.012-12.33-0.598-17.769-1.721c-2.722-0.547-5.294-1.264-7.724-1.978c-2.419-0.765-4.685-1.581-6.779-2.427
		c-4.183-1.708-7.695-3.512-10.375-5.336c-1.341-0.909-2.467-1.834-3.345-2.754c-0.884-0.918-1.475-1.846-1.884-2.636
		c-0.358-0.802-0.533-1.537-0.574-1.977c-0.033-0.438-0.049-0.662-0.049-0.662L107.185,128.011z"/>
</g>
<g>
	<ellipse fill="#2AA4C0" cx="529.827" cy="112.216" rx="64.088" ry="18.328"/>
	<path fill="#2AA4C0" d="M466.088,112.186c0,0,0.025,0.271,0.074,0.798c0.021,0.267,0.137,0.526,0.217,0.876
		c0.125,0.334,0.289,0.739,0.533,1.156c0.96,1.706,3.259,3.697,6.651,5.308c1.696,0.81,3.653,1.543,5.833,2.18
		c2.171,0.663,4.57,1.221,7.159,1.676c5.174,0.93,11.076,1.538,17.508,2c6.431,0.486,13.395,0.903,20.787,1.23
		c7.362,0.312,15.237,0.687,23.342,0.499c8.108-0.193,16.54-1.013,24.758-3.24c2.049-0.562,4.085-1.187,6.087-1.91
		c1.988-0.757,3.938-1.608,5.794-2.593c1.835-1.012,3.584-2.178,4.996-3.543c0.668-0.698,1.298-1.432,1.657-2.2
		c0.118-0.186,0.186-0.378,0.247-0.567c0.063-0.189,0.159-0.373,0.17-0.561c0.021-0.186,0.09-0.366,0.088-0.547l-0.001-0.268
		l0.003-0.133l0.002-0.065c0.004,0.052-0.005-0.212,0.01,0.102l-0.116-0.812c-0.012-0.169-0.06-0.18-0.087-0.252
		c-0.031-0.061-0.058-0.12-0.081-0.181c-0.018-0.101-0.144-0.294-0.228-0.456c-0.083-0.168-0.172-0.336-0.309-0.497
		c-0.432-0.666-1.117-1.281-1.821-1.861c-1.476-1.145-3.261-2.082-5.12-2.881c-3.725-1.625-7.772-2.752-11.811-3.721
		c-8.122-1.887-16.388-2.87-24.394-3.432c-8.021-0.529-15.785-0.713-23.188-0.666c-7.357,0.024-14.336,0.416-20.769,0.777
		c-6.432,0.421-12.339,0.985-17.51,1.913c-2.588,0.452-4.986,1.006-7.156,1.666c-2.179,0.635-4.135,1.364-5.831,2.169
		c-3.392,1.601-5.691,3.577-6.659,5.273c-0.99,1.702-0.769,2.817-0.837,2.792L466.088,112.186z M465.389,112.216
		c0.07,0.036-0.187-1.261,0.875-3.169c1.03-1.901,3.358-4.066,6.715-6.028c1.677-0.986,3.597-1.967,5.731-2.936
		c2.143-0.948,4.499-1.891,7.054-2.796c5.11-1.797,11.012-3.515,17.569-4.734c6.553-1.305,13.736-1.983,21.377-2.282
		c7.592-0.292,15.667-0.104,23.953,0.771c8.289,0.854,16.828,2.262,25.346,4.695c2.125,0.627,4.25,1.325,6.355,2.128
		c2.098,0.833,4.18,1.771,6.218,2.885c2.022,1.142,4.012,2.454,5.813,4.194c0.88,0.903,1.747,1.865,2.391,3.107
		c0.178,0.288,0.318,0.614,0.444,0.951c0.128,0.34,0.269,0.629,0.355,1.068l0.13,0.61c0.035,0.192,0.088,0.439,0.08,0.546
		l0.028,0.819c0.01,0.38-0.005,0.185-0.007,0.306l-0.016,0.138l-0.033,0.274l-0.073,0.548c-0.055,0.361-0.189,0.697-0.289,1.042
		c-0.092,0.354-0.263,0.652-0.412,0.965c-0.149,0.314-0.309,0.617-0.506,0.88c-0.717,1.141-1.639,1.983-2.555,2.769
		c-1.865,1.521-3.891,2.604-5.937,3.533c-2.039,0.945-4.119,1.722-6.213,2.395c-2.09,0.68-4.184,1.305-6.29,1.836
		c-8.422,2.092-16.795,3.664-24.981,4.887c-8.201,1.218-16.166,1.964-23.799,1.938c-7.606,0.003-14.805-0.649-21.359-1.83
		c-3.279-0.578-6.391-1.32-9.33-2.087c-2.933-0.805-5.686-1.666-8.242-2.561c-2.554-0.9-4.909-1.84-7.05-2.785
		c-2.133-0.966-4.052-1.942-5.729-2.925c-3.356-1.951-5.688-4.1-6.725-5.992c-0.265-0.464-0.442-0.907-0.583-1.3
		c-0.098-0.408-0.222-0.77-0.239-1.031c-0.044-0.526-0.067-0.799-0.067-0.799L465.389,112.216z"/>
</g>
<path fill-rule="evenodd" clip-rule="evenodd" fill="#DAF0F2" d="M210.724,119.63c1.379-0.37,1.695,0.75,2.236,1.522
	c1.818,2.595,1.807,5.317,0.016,7.999c-0.35,0.522-0.742,1.067-0.893,1.655c-0.787,3.109-2.803,5.051-5.875,6.045
	c-3.26,1.688-6.164,3.979-9.607,5.356c-5.488,1.159-11.059,1.973-16.445,3.578c-1.879,0.279-3.816,0.183-5.639,0.824
	c-1.535-0.177-2.955,0.367-4.416,0.653c-0.869-0.337-1.707-0.157-2.536,0.151c-4.143,0.508-8.301,0.16-12.451,0.236
	c-4.012-0.076-8.045,0.049-11.982-1.354c4.861-0.467,8.867-2.714,13.039-4.875c2.822-1.462,6.389-1.618,9.648-2.223
	c1.908-0.354,3.632-0.741,5.124-2.18c3.475-3.355,8.131-4.046,12.699-4.759c4.443-0.693,4.5-0.812,4.559-5.026
	c0.016-1.237-0.471-2.749,0.783-3.816c0.785,0.03,1.566,0.031,2.256-0.425c3.219,0.097,6.312-0.143,9.328-1.572
	c1.93-0.915,4.105-1.594,6.402-1.251C208.267,120.363,209.536,120.22,210.724,119.63z"/>
<path fill-rule="evenodd" clip-rule="evenodd" fill="#DAF0F2" stroke="#DAF0F2" stroke-width="7" stroke-linecap="round" stroke-linejoin="round" stroke-miterlimit="10" d="
	M588.642,102.561c1.719,0.001,3.439,0.002,5.158,0.003c1.295,0.605,2.588,1.21,3.883,1.815c0.158,1.38-0.709,3.228,2.059,3.418
	c1.246,2.356,3.766,3.646,0.098,7.208c-9.752,9.477-22.223,13.755-35.59,16.729c-18.098,4.026-36.346,5.822-54.6,0.402
	c-1.328-0.394-3.404-0.11-3.562-1.651c-0.131-1.298,1.863-1.349,2.959-1.915c10.324-5.333,21.777-8.502,32.812-12.357
	c7.42-2.592,15.828-3.046,23.799-4.436c1.291-0.225,2.605-0.34,4.41-0.57c-1.283-0.754-2.162-1.271-3.297-1.938
	c5.334-3.854,11.635-5.258,18.045-6.437C586.091,102.742,587.366,102.651,588.642,102.561z"/>
<path fill="#ACD7DD" d="M182.447,46.429c0,0,11.213-30.992,18.213-32.992s61.25-8.25,66.25,1.75s21.815,24.92,21.815,24.92"/>
<path fill="#ACD7DD" d="M633.216,73.603c0,0-2.666-32.851-8.893-36.621c-6.229-3.771-56.924-24.069-64.379-15.736
	c-7.455,8.332-27.604,18.305-27.604,18.305"/>
<g>
	<ellipse fill="#5EAAB6" cx="449.035" cy="721.08" rx="52.408" ry="16.501"/>
	<path fill="#CAE1E5" d="M501.094,721.108c0,0-0.02-0.226-0.057-0.662c-0.051-0.429-0.193-0.967-0.524-1.716
		c-0.366-0.718-0.968-1.529-1.827-2.351c-0.854-0.827-2.013-1.6-3.365-2.345c-2.721-1.483-6.355-2.67-10.618-3.474
		c-4.258-0.834-9.132-1.341-14.433-1.742c-5.3-0.423-11.036-0.793-17.131-1.109c-6.062-0.299-12.575-0.69-19.273-0.557
		c-6.701,0.138-13.684,0.875-20.413,2.921c-3.354,1.003-6.662,2.337-9.604,4.138c-1.444,0.924-2.814,1.971-3.836,3.172
		c-0.5,0.604-0.909,1.243-1.17,1.874c-0.098,0.319-0.24,0.628-0.255,0.935c-0.01,0.152-0.072,0.301-0.048,0.449l0.005,0.221v0.109
		l0,0.055c-0.003-0.05,0.005,0.188-0.007-0.099l0.099,0.673l0.024,0.168l0.042,0.076l0.07,0.146
		c0.021,0.048,0.038,0.097,0.053,0.146l0.108,0.202c0.08,0.135,0.125,0.273,0.221,0.407c0.344,0.54,0.816,1.061,1.359,1.551
		c1.098,0.981,2.514,1.798,3.985,2.507c1.469,0.729,3.039,1.343,4.647,1.871c1.603,0.543,3.227,1.049,4.886,1.46
		c6.616,1.712,13.419,2.598,20.004,3.105c6.604,0.474,12.996,0.641,19.102,0.607c6.055-0.021,11.811-0.344,17.108-0.671
		c5.304-0.332,10.182-0.815,14.438-1.641c4.261-0.795,7.891-1.981,10.611-3.453c1.353-0.739,2.511-1.506,3.367-2.327
		c0.861-0.814,1.465-1.621,1.835-2.334c0.332-0.727,0.489-1.319,0.537-1.725c0.038-0.407,0.058-0.617,0.058-0.617L501.094,721.108z
		 M501.792,721.08c0,0-0.017,0.24-0.048,0.706c-0.044,0.464-0.205,1.145-0.561,1.969c-0.405,0.795-0.994,1.728-1.875,2.652
		c-0.876,0.928-2.002,1.857-3.344,2.771c-2.681,1.836-6.197,3.642-10.381,5.359c-2.097,0.847-4.359,1.679-6.78,2.452
		c-2.426,0.737-5,1.467-7.719,2.053c-5.44,1.219-11.418,1.875-17.791,2.159c-6.32,0.278-13.058,0.106-19.956-0.72
		c-6.902-0.808-14.007-2.126-21.065-4.413c-3.523-1.168-7.034-2.601-10.361-4.704c-1.646-1.078-3.266-2.293-4.674-3.925
		c-0.696-0.821-1.342-1.74-1.824-2.812c-0.125-0.26-0.211-0.559-0.312-0.837l-0.141-0.429l-0.105-0.513l-0.089-0.514l-0.037-0.253
		l-0.002-0.17l-0.01-0.68c0.13-2.842,1.556-4.604,3.021-6.032c1.484-1.411,3.149-2.396,4.823-3.26
		c1.666-0.88,3.377-1.593,5.105-2.205c1.721-0.629,3.45-1.194,5.185-1.692c3.466-1.019,6.945-1.811,10.39-2.582
		c3.447-0.756,6.873-1.445,10.268-2.016c6.804-1.165,13.419-1.896,19.784-1.884c6.333-0.012,12.33,0.598,17.769,1.721
		c2.722,0.547,5.294,1.264,7.724,1.978c2.419,0.764,4.685,1.581,6.779,2.427c4.183,1.708,7.695,3.512,10.375,5.337
		c1.341,0.908,2.467,1.832,3.345,2.753c0.884,0.917,1.475,1.846,1.884,2.636c0.357,0.802,0.532,1.537,0.573,1.977
		c0.033,0.438,0.049,0.662,0.049,0.662L501.792,721.08z"/>
</g>
<g>
	<g>
		<g>
			<g>
				<path fill="#2AA4C0" d="M648.558,532.478c-0.072,0.004-0.149,0.008-0.176,0.009
					C648.754,532.473,648.548,532.476,648.558,532.478z"/>
				<polygon fill="#2AA4C0" points="652.203,532.107 652.142,532.136 652.67,532.021 				"/>
				<path fill="#2AA4C0" d="M655.605,531.672c-0.348-0.1-1.226,0.2-1.842,0.224l-0.104-0.014l-0.257,0.129
					C654.138,531.912,655.081,531.711,655.605,531.672z"/>
				<path fill="#2AA4C0" d="M657.497,531.813c-0.127-0.061,0.382-0.112-0.43,0.029c0.04,0.004,0.055,0.006,0.081,0.008
					C657.221,531.843,657.322,531.832,657.497,531.813z"/>
				<path fill="#2AA4C0" d="M657.147,531.851C656.787,531.899,657.395,531.883,657.147,531.851L657.147,531.851z"/>
				<path fill="#2AA4C0" d="M658.804,531.598l-0.46,0.132c0.108,0.035,0.535-0.004,0.385,0.051
					C659.209,531.684,659.097,531.643,658.804,531.598z"/>
				<path fill="#2AA4C0" d="M659.22,531.375l-0.238,0.07C659.029,531.46,659.095,531.458,659.22,531.375z"/>
				<path fill="#2AA4C0" d="M658.474,531.582l0.507-0.137c-0.076-0.026-0.098-0.094-0.234,0.057
					C658.777,531.433,658.687,531.509,658.474,531.582z"/>
				<path fill="#2AA4C0" d="M658.173,531.59c-0.275-0.009-0.622,0.017-0.162-0.122C657.113,531.63,657.271,531.737,658.173,531.59z"
					/>
				<path fill="#2AA4C0" d="M655.748,531.481l-0.36,0.013l-0.295,0.101C655.24,531.544,655.779,531.527,655.748,531.481z"/>
				<path fill="#2AA4C0" d="M661.788,531.288c0.017-0.061-0.194-0.122-0.245-0.186l-0.334,0.121
					C661.396,531.23,661.744,531.209,661.788,531.288z"/>
				<path fill="#2AA4C0" d="M661.542,531.103l0.499-0.188C661.574,530.987,661.499,531.047,661.542,531.103z"/>
				<path fill="#2AA4C0" d="M659.251,531.115c0,0-0.205,0.078-0.409,0.156c-0.206,0.072-0.412,0.146-0.412,0.146
					s0.247-0.08,0.494-0.16c0.246-0.087,0.491-0.174,0.491-0.174L659.251,531.115z"/>
				<polygon fill="#2AA4C0" points="663.792,530.96 663.53,531.154 664.005,530.844 				"/>
				<path fill="#2AA4C0" d="M665.112,530.689c-0.187,0.169,0.358,0.156,0.146,0.279c0.356-0.091,0.634-0.262,0.883-0.419
					C665.863,530.665,665.544,530.712,665.112,530.689z"/>
				<path fill="#2AA4C0" d="M666.564,530.304c-0.138,0.063-0.273,0.152-0.423,0.246C666.29,530.487,666.431,530.412,666.564,530.304
					z"/>
				<path fill="#2AA4C0" d="M662.937,530.784c0.049,0.029,0.149,0.108,0.452,0.094l-0.247-0.131
					C663.079,530.759,663.008,530.771,662.937,530.784z"/>
				<path fill="#2AA4C0" d="M663.133,530.743l0.009,0.004c0.223-0.039,0.377-0.066,0.444-0.078
					C663.529,530.679,663.393,530.701,663.133,530.743z"/>
				<path fill="#2AA4C0" d="M662.885,530.793c0.019-0.003,0.033-0.005,0.052-0.009C662.913,530.771,662.899,530.769,662.885,530.793
					z"/>
				<path fill="#2AA4C0" d="M660.641,531.003c0.289-0.127,0.898-0.354,0.258-0.356C660.704,530.789,661.072,530.8,660.641,531.003z"
					/>
				<path fill="#2AA4C0" d="M662.58,530.633l-0.56,0.068c0.021,0.04,0.135,0.083-0.006,0.155L662.58,530.633z"/>
				<polygon fill="#2AA4C0" points="662.837,530.528 662.58,530.633 662.788,530.608 				"/>
				<path fill="#2AA4C0" d="M665.567,530.324c0.216-0.134,0.474-0.199,0.764-0.278c-0.326,0.031-0.656,0.084-0.965,0.154
					C665.339,530.269,665.231,530.404,665.567,530.324z"/>
				<path fill="#2AA4C0" d="M664.38,530.518l0.05-0.021C664.394,530.487,664.367,530.488,664.38,530.518z"/>
				<polygon fill="#2AA4C0" points="669.214,529.337 669.155,529.31 669.156,529.351 				"/>
				<path fill="#2AA4C0" d="M665.304,530.177c-0.246,0.018-0.375,0.094-0.494,0.181c0.172-0.058,0.356-0.11,0.557-0.157
					C665.379,530.169,665.378,530.15,665.304,530.177z"/>
				<path fill="#2AA4C0" d="M667.347,530.028c-0.136-0.015-0.286-0.018-0.442-0.016
					C667.043,530.048,667.319,530.091,667.347,530.028z"/>
				<path fill="#2AA4C0" d="M664.524,530.53l-0.034,0.016C664.579,530.569,664.564,530.553,664.524,530.53z"/>
				<path fill="#2AA4C0" d="M664.524,530.53c0.116-0.049,0.2-0.113,0.286-0.173c-0.141,0.043-0.27,0.09-0.379,0.14
					C664.463,530.504,664.498,530.517,664.524,530.53z"/>
				<path fill="#2AA4C0" d="M669.618,527.669c0.029,0.223-0.516,0.595-1.102,0.541c-0.464,0.311,0.063,0.849,0.639,1.1
					c-0.012-0.092-0.036-0.172,0.462-0.441c-0.226-0.062-1.267,0.079-0.873-0.231c0.67-0.312,0.598-0.1,0.977-0.09
					c-0.37-0.163,0.769-0.652,0.486-0.996l-0.562,0.338C669.615,527.834,669.805,527.669,669.618,527.669z"/>
				<path fill="#2AA4C0" d="M668.12,529.559l-0.216,0.079c0.264-0.03,0.47,0.008,0.853,0.074c0.342-0.191,0.395-0.288,0.4-0.361
					l-1.104,0.256L668.12,529.559z"/>
				<path fill="#2AA4C0" d="M666.903,529.883c0.117-0.243,0.622-0.47,0.233-0.608c-0.644,0.185-0.404,0.294-0.77,0.472
					c1.038-0.308-0.271,0.188,0.522,0.115c-0.197,0.086-0.382,0.138-0.557,0.185c0.198-0.018,0.391-0.028,0.574-0.033l-0.028-0.007
					l-0.005,0.002l0-0.003c-0.053-0.015-0.072-0.026-0.017-0.024c0.003-0.003,0.015-0.007,0.021-0.009
					C666.876,529.941,666.889,529.912,666.903,529.883c0.318-0.031,0.063,0.042-0.025,0.089c-0.001,0.011-0.006,0.021-0.004,0.033
					l0.004,0.001l1.026-0.368C667.671,529.663,667.394,529.739,666.903,529.883z"/>
				<path fill="#2AA4C0" d="M661.384,530.192c0.036,0.007,0.037,0.019,0.042,0.029C661.489,530.187,661.512,530.167,661.384,530.192
					z"/>
				<path fill="#2AA4C0" d="M661.838,530.19c-0.071,0.039-0.12,0.117-0.373,0.155c-0.226,0.001-0.016-0.075-0.04-0.124
					c-0.139,0.076-0.498,0.228-0.011,0.2l0.069-0.038c0.435-0.041,1.031,0.052,0.963,0.091
					C662.287,530.352,662.152,530.269,661.838,530.19z"/>
				<path fill="#2AA4C0" d="M664.372,529.968l0.851-0.301l-0.487-0.051l0.048,0.092C664.278,529.791,664.415,529.88,664.372,529.968
					z"/>
				<polygon fill="#2AA4C0" points="669.349,529.42 669.304,529.683 669.71,529.221 				"/>
				<polygon fill="#2AA4C0" points="670.482,529.084 670.509,529.306 670.769,529.094 				"/>
				<path fill="#2AA4C0" d="M654.133,496.626l-0.274,0.057C653.985,496.674,654.069,496.653,654.133,496.626z"/>
				<path fill="#2AA4C0" d="M655.961,497.033l0.083-0.177C655.938,496.94,655.888,497.009,655.961,497.033z"/>
				<path fill="#2AA4C0" d="M689.41,508.482c0.079-0.569,0.254-1.354-0.067-1.073l-0.263,0.34
					C689.3,508.003,689.384,508.253,689.41,508.482z"/>
				<path fill="#2AA4C0" d="M671.421,498.982c0.019,0.052,0.04,0.107,0.059,0.162c0.139-0.106,0.268-0.206,0.387-0.297
					C671.73,498.889,671.58,498.935,671.421,498.982z"/>
				<path fill="#2AA4C0" d="M670.556,500.57l-0.368-0.434C670.26,500.266,670.377,500.409,670.556,500.57z"/>
				<path fill="#2AA4C0" d="M643.977,495.301l-0.35,0.355C644.094,495.729,643.915,495.492,643.977,495.301z"/>
				<path fill="#2AA4C0" d="M681.834,524.464c0.367-0.069,0.638-0.166,0.859-0.277C682.224,524.243,681.791,524.178,681.834,524.464
					z"/>
				<path fill="#2AA4C0" d="M655.733,492.352c-0.175,0.046-0.261,0.118-0.274,0.212C655.638,492.522,655.747,492.46,655.733,492.352
					z"/>
				<path fill="#2AA4C0" d="M683.56,523.645c-0.072,0.007-0.133,0.026-0.202,0.038c-0.186,0.188-0.381,0.367-0.665,0.504
					C683.04,524.151,683.398,524.024,683.56,523.645z"/>
				<path fill="#2AA4C0" d="M606.73,492.388l-0.086-0.021C606.637,492.39,606.675,492.391,606.73,492.388z"/>
				<path fill="#2AA4C0" d="M595.711,492.133c0.11-0.02,0.282-0.05,0.445-0.079C596.073,492.068,595.947,492.091,595.711,492.133z"
					/>
				<path fill="#2AA4C0" d="M675.088,527.752C674.854,527.852,675.062,527.794,675.088,527.752L675.088,527.752z"/>
				<path fill="#2AA4C0" d="M673.541,527.158c0.039-0.046,0.062-0.097,0.046-0.156C673.591,527.069,673.573,527.12,673.541,527.158z
					"/>
				<path fill="#2AA4C0" d="M684.318,520.444l0.017-0.013C684.235,520.428,684.253,520.43,684.318,520.444z"/>
				<path fill="#2AA4C0" d="M674.681,527.76c0.102,0.001,0.216-0.009,0.337-0.028C674.96,527.728,674.856,527.735,674.681,527.76z"
					/>
				<path fill="#2AA4C0" d="M674.777,527.864c-0.087,0.018-0.155,0.032-0.22,0.046C674.544,527.963,674.582,527.98,674.777,527.864z
					"/>
				<path fill="#2AA4C0" d="M675.414,527.615c-0.135,0.054-0.267,0.091-0.396,0.116c0.054,0.001,0.079,0.007,0.07,0.021
					C675.157,527.724,675.253,527.683,675.414,527.615z"/>
				<path fill="#2AA4C0" d="M626.833,492.253c-0.016-0.011-0.034-0.019-0.051-0.033
					C626.529,492.341,626.638,492.325,626.833,492.253z"/>
				<path fill="#2AA4C0" d="M681.949,506.383c0.011,0.003,0.021-0.002,0.032,0l-0.018-0.032L681.949,506.383z"/>
				<path fill="#2AA4C0" d="M681.093,506.166c0.586-0.224,0.72-0.054,0.871,0.185l0.489-1.116c0,0-0.343,0.23-0.686,0.46
					C681.43,505.931,681.093,506.166,681.093,506.166z"/>
				<path fill="#2AA4C0" d="M649.702,495.907l0.541,0.479c-0.825,0.471-1.312,0.163-0.834,0.786
					c0.295-1.265,2.346,0.308,2.657-0.968l0.348,0.347c-0.111-0.036-0.143,0.038-0.253,0.004c0.655,0.771,0.742-0.822,1.705-0.441
					c0.328,0.168,0.532,0.405,0.267,0.513l0.834-0.169c0.22,0.069,0.119,0.285-0.099,0.216l1.193,0.146l-0.017,0.037
					c0.209-0.169,0.655-0.404,0.87-0.499c0.259,0.253-0.179,0.106-0.138,0.286l0.719-0.176c0.19,0.396-0.419,0.608-0.856,0.463
					c0.322,1.443,0.614-0.224,1.743,0.847l-0.644,0.022c0.225,0.835,0.755,0.681,1.327,1.309c-0.1-0.281-1.097-1.498-0.326-1.657
					c0.175,0.146,0.422,0.255,0.862,0.081c-0.106,0.467,0.288,0.441,0.754,0.523l-0.182,0.61c0.537-0.058,0.574-0.376,0.935-0.58
					c0.537,0.205,0.528,0.713,0.552,1.149c0.852,0.328-0.409-0.925,0.663-0.77c0.674,0.421,1.246,0.321,2.225,0.201
					c0.45,0.355-0.197,0.35-0.064,0.578l0.593-0.362c0.107,0.043,0.028,0.184-0.012,0.255c0.436-0.08,0.211-0.61,0.86-0.596
					c0.369-0.623,0.923,1.364,1.898,0.828c0.126,0.229-0.208,0.346-0.229,0.599c1.165-0.171,0.972-0.075,2.027-0.466l0.564,0.634
					c-0.355-0.628,0.492-0.942,1.233-1.154c-0.104-0.286-0.193-0.536-0.267-0.666l1.054,0.029c0.076,0.14-0.096,0.31-0.341,0.502
					c0.082-0.026,0.16-0.052,0.224-0.079c0.25,0.345-0.055,0.623-0.416,0.869c-0.064-0.162-0.13-0.329-0.195-0.493
					c-0.363,0.278-0.721,0.603-0.801,0.972c0.084-0.047,0.22-0.064,0.358-0.051c-0.096,0.076-0.166,0.15-0.16,0.221
					c0.008,0.074,0.151-0.022,0.357-0.119l-0.042,0.742l0.149-0.246c0,0,0.257,0.214,0.514,0.428
					c0.258,0.209,0.506,0.433,0.506,0.433c1.09-0.32,2.246-1.012,3.703-0.652c-0.546,0.319-0.421,0.735-0.695,1.282
					c-0.094-0.747-1.119-0.215-1.756-0.604c0.333,0.209,0.139,0.446,0.009,0.504c0,0,0.362-0.01,0.724-0.019
					c0.36,0,0.721,0.001,0.721,0.001c-0.233,0.444,0.101,0.456,0.327,0.783c0.181-1.01,1.176-0.191,1.785-0.209
					c-0.119,0.309-0.385,0.554-0.932,0.193c0.31,0.979,1.352-0.619,1.708,0.26c-0.147-0.063-0.202-0.147-0.336-0.027
					c0.48-0.104,1.16,0.561,0.835,0.7l-0.142-0.07c0.883,0.587,2.738,1.602,3.321,1.048c-0.052,0.092-0.67,0.733-0.812,0.837
					c0,0,0.756-0.312,1.554-0.588c0.8-0.29,1.61-0.492,1.61-0.492c-0.555,0.446-1.108,2.125-2.004,1.912
					c0.127,0.229,0.28,0.497,0.831,0.622c-0.061-0.174,0.315-1.031,0.537-0.935c-0.002,0.984,0.094,0.593,0.197,1.584
					c-0.076-0.272,0.858-0.878,1.137-0.568c-0.159,0.072-0.726,0.774-0.907,0.76c0,0,0.364-0.033,0.721-0.042
					c0.356,0.003,0.711,0.006,0.711,0.006c-0.306-0.058-0.687,0.57-0.775,0.91c0.103-0.207,0.515,0.594,0.709,0.729l-0.032-0.45
					c0.235,0.458,0.692,0.443,1.161,0.466c0.445,0.025,0.923,0.087,1.182,0.605c-0.277-0.039-1.293,0.305-1.22,0.797
					c0.28-0.004,0.956-0.017,1.682,0.164c0.676,0.182,1.413,0.596,1.673,1.187l-0.276,0.263c0,0,0.097,0.223,0.194,0.447
					c0.101,0.228,0.177,0.466,0.177,0.466c-0.37-0.306-1.016-0.822-1.63-1.212c-0.71-0.389-1.304-0.668-1.756-0.827
					c-0.09,0.396-0.27,0.197-0.129,0.655c-0.236,0.221-0.457-0.139-0.524-0.253c0.019-0.001,0.024,0.263,0.049,0.514
					c0.046,0.252,0.01,0.494,0.01,0.494c0.595-0.125,0.683,0.757,1.137,0.757c0,0-0.034-0.082-0.084-0.205
					c-0.051-0.121-0.161-0.278-0.249-0.426c-0.169-0.299-0.372-0.556-0.389-0.555c0.286-0.078,0.775,0.008,1.119,0.305
					c0.18,0.146,0.343,0.34,0.459,0.564c0.101,0.225,0.12,0.479,0.083,0.727c-0.245,0.212-1.035-0.299-1.234-0.278
					c0.229,0.113,0.273,0.854,0.121,0.9c0.012-0.005-0.247-0.415-0.247-0.415c-0.133,0.199,0.017,0.418,0.095,0.663
					c0.099,0.242,0.123,0.511-0.251,0.678c-0.101,0.19-0.906,0.219-0.622,0.404c0.713,0.032,2.61,0.79,2.893,1.288
					c-0.045,0.032-0.359,0.292-0.718,0.521c-0.377,0.219-0.778,0.422-0.99,0.445c-0.631,0.023-0.636-1.188-1.186-1.158
					c0.118,0.097,0.17,0.384,0.158,0.487c-0.251,0.113-0.322-0.361-0.576,0.089c0.402,0.431-0.715,0.794,0.22,0.498
					c-0.221,0.506-0.449,0.35-0.85,0.817c0.402,0.101,0.457,1.274,0.107,1.774c-0.066-0.126-0.283-0.179-0.383-0.201
					c-0.907,0.72-1.556,0.879-2.427,1.485c-0.148-0.042-0.66,0.105-0.599-0.198c-0.076,0.158-0.1,0.381-0.368,0.568
					c-0.76-0.032,0.57-0.452-0.115-0.642c0.128,0.274-0.478,0.809-0.796,1.194c0.355,0.324,0.979-0.48,1.257-0.897
					c0.352,0.529,0.017,1.556-0.868,2.353c-0.735,0.568-0.541-0.16-0.639-0.008c-1.555,0.695-0.839,1.581-2.33,1.792
					c-0.673-0.11-0.328-0.649-0.554-0.84c0.608-0.424,1.116-0.272,1.564-0.496l-0.631,0.107c0.156-0.215,0.552-0.509,0.837-0.536
					c-0.562-0.083-2.584,1.199-3.906,1.403c-0.166,0.198-0.489,0.462-0.264,0.517l0.362-0.203c0.459,0.115-0.574,0.652-0.04,0.574
					c-0.443,0.385-0.928,0.872-1.724,0.993l-0.269-0.302c0.053,0.099,0.562,0.041,0.726-0.146c-0.249,0.272-1.303-0.069-1.475,0.501
					l0.606,0.061c-0.464,0.357-1.004,0.926-1.713,1.012c0.417,0.238,0.14-0.085,0.752,0.164c-0.58-0.351,1.725-0.511,0.875-0.821
					c0.657,0.31,0.913-0.074,1.706,0.111c-0.066-0.111-0.313-0.147,0.271-0.281c0.012-0.043,0.054-0.107,0.082-0.146
					c0.018-0.002,0.025-0.002,0.042-0.004l-0.037-0.003c0.017-0.026,0.018-0.031-0.014-0.002c-0.154-0.006-0.286-0.03-0.355-0.081
					c0.172-0.36,1.049-0.683,1.281-0.947c0.349-0.069-0.077,0.192,0.155,0.253l0.349-0.389c0.159,0.259,1.065,0.104,0.363,0.573
					l0.702-0.268c0.479-0.01,1.08-0.175,1.366-0.453c0.358-0.083,0.668-0.677,0.495-0.33c0,0,0.251-0.158,0.494-0.337
					c0.244-0.174,0.488-0.348,0.488-0.348l0.048,0.066c1.092-0.477,1.851-1.59,3.342-1.812c0.292-0.294,0.58-0.6,1.19-0.93
					l0.295,0.162c0.365-0.377,1.481-0.76,1.443-1.156c0.502,0.105,1.061-0.297,1.544-0.88c0.25-0.274,0.474-0.601,0.683-0.902
					c0.215-0.291,0.408-0.565,0.59-0.768l-0.33-0.271c0.215-0.283,0.398-0.58,0.535-0.94c0.149-0.348,0.275-0.731,0.37-1.188
					l-0.376-0.099c0.017-0.767,0.966-1.757,1.007-3.076c0.145,0.093,0.077,0.421-0.035,0.637c0.248-0.352,0.381-0.76,0.359-1.166
					c-0.025-0.406-0.138-0.812-0.263-1.194c-0.338-0.751-0.695-1.394-0.647-2.118c-0.258-0.254-0.286-0.5-0.294-0.751
					c0.015,0.026,0.034,0.047,0.057,0.062c-0.011-0.031-0.033-0.075-0.058-0.12c-0.003-0.157,0-0.327-0.019-0.502
					c-0.022,0.17-0.035,0.322-0.016,0.439c-0.124-0.218-0.349-0.531-0.614-0.801l0.3-0.372c-0.019-0.025-0.033-0.044-0.053-0.07
					c-0.066-0.393-0.337-0.121-0.511,0.212c-0.163-0.107-0.328-0.191-0.488-0.231c0.414-0.646-0.703-0.617-0.364-1.367
					c-0.221,0.031-0.56-0.254-0.931-0.49c-0.372-0.234-0.801-0.372-1.136-0.148c0.064-0.082,0.029-0.186,0.161-0.067
					c-0.202-0.315-0.402-0.653-0.799-0.692l0.259-0.539c0,0-0.28,0.021-0.56,0.043c-0.276,0.027-0.551,0.054-0.551,0.054
					c-0.145-0.578-0.185-0.881,0.469-0.923c-1.338-0.176-0.921-0.364-2.1-0.375l0.252-0.288c-0.29-0.203-1.04-0.048-1.041-0.431
					c-0.253-1.092-3.221-2.021-4.714-3.45c-0.131,1.206-0.621-0.854-1.057-0.071c0.006-0.297-0.185-0.555,0.203-0.638
					c-1.027-0.16-1.233-0.992-2.157-0.562c-0.005-0.3,0.348-0.291,0.314-0.48c-0.097,0.023-0.385,0.098-0.422-0.095
					c-0.035-0.191,0.221-0.157,0.414-0.206c-0.979-0.348-1.38,0.424-1.729,1.136c-0.346-0.532-0.608-0.575-1.131-0.214
					c-0.077-0.307-0.266-0.668,0.356-0.534c-0.312-0.177-1.923-1.072-2.159-0.483c-0.053-0.189-0.453-0.204-0.563-0.164
					c-0.741-0.278-0.792-0.349-1.551-0.522l0.174,0.163c-0.52,0.646-0.664-0.026-1.289-0.121l0.04-0.07
					c-1.224-0.923-0.666,0.088-1.854-0.905l-0.054,0.482c-0.395,0.951-1.044-0.915-1.943-0.733l0.218,0.338
					c-0.516,0.231-0.866-1.666-1.281-1.896c-0.075-0.108,0.186-0.106,0.336-0.135c-1.014-0.859-0.298,0.571-1.19,0.513
					c-0.081-0.363,0.403-0.785-0.164-0.979c-0.233-0.329-1.922,0.672-2.577-0.105c0.121,0.287,0.239,0.574-0.201,0.681
					c-0.627-0.034-1.461-1.298-2.176-0.603c-0.064-0.083-0.081-0.154-0.072-0.217c-0.51,0.117-1.592,0.059-1.952,0.432
					c-0.15-1.67-3.049,0.278-2.791-1.172l-1.463-0.141l0.061-0.141c-0.915-0.227-1.295,0.071-1.67,0.365
					c-0.2-0.127-0.024-0.237,0.004-0.31c-1.313-0.478-1.465-0.41-2.692,0.14l-0.059-0.468c-0.338,0.214-1.879-0.931-3.278-0.537
					c0.019-0.049,0.056-0.132,0.169-0.185c-1.55,0.343-3.49-1.494-4.188,0.016l-1.024,0.31c1.269,0.212-0.249,0.654,0.255,0.949
					c-0.508,0.048-1.258-0.563-0.634-0.595l0.09,0.084c0.295-0.783-1.566-0.397-1.49-0.93c-2.526-0.122-4.968-0.625-7.341-0.689
					l0.25,0.558l-0.824-0.052c-0.211-0.13-0.275-0.427,0.315-0.4c-0.299-0.311-1,0.25-1.021,0.364
					c-1.146-0.229,0.474-0.622,0.121-0.64l-0.483,0.039l0.106,0.062c-0.398,0.217-0.44,0.445-1.147,0.412
					c-0.445-0.109-0.221-0.323-0.396-0.345c0.002-0.036-0.058-0.054-0.271-0.016l-1.041-0.035l0.407,0.397
					c-0.466,0.2-0.978-0.018-0.508,0.434c-0.69-0.701-3.873-0.224-4.302-0.391c-0.646,0.284-1.281,0.292-2.07,0.287
					c0.197,0.063,0.316,0.448-0.363,0.412c0.241-0.785-1.247-0.307-1.805-0.817c0.497,0.331-1.932,0.169-1.151,0.619
					c-0.568-0.038-0.041-0.267-0.475-0.408c-1.341,0.358-2.978,0.065-4.641,0.301c-0.022,0.075,0.262,0.171-0.09,0.308l-0.897-0.293
					c-0.327,0.066-0.281,0.428-0.894,0.237c0.087,0.05,0.219,0.127,0,0.165c-1.637-0.016-3.292,0.279-4.955,0.481
					c-1.628,0.196-3.186,0.384-4.977,0.6c0.448-0.036,0.153,0.022-0.186,0.081c0.221-0.027,0.001,0.053,0.047,0.073
					c0,0-0.345,0.035-0.69,0.07c-0.344,0.043-0.688,0.085-0.688,0.085c-0.244,0.088-1.466,0.255-1.606,0.299l0.433-0.071
					c-0.575,0.1,0.818-0.038,0.742,0.05c0.643-0.134,1.734,0.02,2.788-0.194c0.239,0.014-0.196,0.06-0.067,0.083
					c0.265-0.074,0.59-0.117,1.199-0.127l-0.067,0.023c1.7-0.133,2.444-0.029,4.364-0.001l-0.152-0.135
					c0.413,0.006,0.502,0.048,0.698,0.08c0.457-0.235-1.156,0.021-0.744-0.224c0.567,0.271,2.9-0.123,3.292,0.259
					c0.632-0.006-0.198-0.207,0.435-0.206l0.174,0.113l0.152-0.146c0.417,0.021,0.633,0.171,0.654,0.272
					c-0.102-0.013-0.285,0.024-0.392,0.03c0.545,0.15,1.514-0.026,1.701,0.021l-0.611-0.084c1.722-0.107,3.831,0.079,5.488-0.215
					l-0.129-0.121c1.269-0.195,1.022,0.156,2.417,0.083l-0.05,0.029c0.278-0.12,0.651-0.18,1.033-0.158
					c-0.351,0.145,0.666,0.315,0.204,0.476c1.376-0.229,0.68-0.186,1.591-0.684l0.21,0.232c0.311-0.204,0.337-0.315,1.037-0.373
					c-0.574,0.197,0.442,0.368-0.2,0.627c1.455,0.563,2.178-0.462,2.835,0.357c0.685-0.672-1.258-0.439-0.88-0.571
					c-0.312-0.233,0.563-0.495,1.022-0.415c0.469,0.029,0.777,0.916,1.948,0.982c-0.117-0.011-0.126,0.044-0.242,0.033
					c0.433,0.215,0.867-0.201,1.395,0.139c0.317-0.436,0.697,0.067,0.806-0.511l-1.082,0.078c0.614-0.11,1.214-0.78,2.209-0.394
					c-0.083,0.114-0.389,0.254-0.599,0.332c0.287,0.188,0.571-0.084,0.868,0.117c-0.112,0.585-1.313,0.049-1.982,0.457
					c0.306,0.267,1.25-0.35,0.898,0.267c0.504-0.79,1.146,0.191,1.967-0.383l-0.07,0.36c0.128-0.048,0.396-0.201,0.626-0.176
					l-0.441,0.443c0.661-0.356,1.214,0.455,1.838,0.286c-1.284-0.095-0.263-0.474-0.792-0.786c1.618-0.392,0.857,1.056,2.635,1.043
					c-0.242,0.031-0.884-0.315-0.498-0.457c0.333,0.109,0.768,0.298,0.96,0.521c1.177,0.031-0.152-0.416,0.364-0.608
					c0.366,0.511,0.59-0.145,1.118-0.246l-0.027,0.401c1.316,0.399,0.421-0.805,1.602-0.373l-0.556,0.515l0.64-0.082l-0.168,0.452
					c0.71-0.271,0.917-0.168,1.571,0.044c-0.128-0.312,0.156-0.743,0.751-0.69c0.38,0.295-0.264,0.371,0.58,0.408
					c-0.216,0.242-0.453,0.545-0.781,0.117c-0.05,0.131-0.211,0.239-0.262,0.369c0.405,0.338,1.08,0.2,1.383,0.231
					c-0.115-0.03-0.251-0.069-0.317-0.138l1.273-0.444c0.174,0.182,0.009,0.293-0.154,0.401c0.25-0.017,0.441-0.195,0.806-0.183
					c-0.131,0.338-0.148,0.695-0.674,0.794l1.191-0.23c0.06,0.162,0.542,0.501,0.378,0.609c0.608,0.306,1.644-0.48,2.452-0.068
					c0.053-0.062,0.149-0.115,0.335-0.141c0.783,0.202,1.421,0.749,2.428,0.402l0.434,0.744c0.754-0.025-0.597-0.945,0.661-0.99
					c0.899-0.066,0.237,0.615,0.512,0.85c0.479-0.262,1.339-0.819,2.042-0.13C650.144,496.038,649.955,495.902,649.702,495.907z
					 M658.725,497.438c-0.195,0.057-0.605,0.275-0.669-0.029C658.371,496.923,658.467,497.215,658.725,497.438z M672.367,500.32
					c-0.182,0.103-0.344-0.042-0.495-0.292C672.042,500.05,672.214,500.133,672.367,500.32z M677.582,526.503l0.012-0.021
					C678.031,526.439,677.874,526.45,677.582,526.503z M676.729,526.702c-0.062,0.074-0.038,0.113,0.014,0.141
					c0.022-0.098,0.198-0.177,0.411-0.239C677.062,526.549,676.936,526.538,676.729,526.702z M624.276,489.817l0.161,0.09
					C624.066,490.004,624.171,489.915,624.276,489.817z"/>
				<path fill="#2AA4C0" d="M670.66,500.388c-0.019-0.094-0.001-0.183,0.019-0.271C670.586,500.167,670.553,500.255,670.66,500.388z
					"/>
				<path fill="#2AA4C0" d="M644.042,495.234l-0.027-0.009c-0.019,0.023-0.03,0.049-0.038,0.075L644.042,495.234z"/>
				<path fill="#2AA4C0" d="M685.314,517.097c0.138-0.084,0.231-0.115,0.327-0.117C685.561,516.915,685.467,516.929,685.314,517.097
					z"/>
				<path fill="#2AA4C0" d="M672.644,528.695l0.498-0.233c-0.248,0.093-0.36,0.061-0.503,0.059
					C672.673,528.579,672.806,528.641,672.644,528.695z"/>
				<path fill="#2AA4C0" d="M667.635,528.472c-0.066,0.051-0.158,0.049-0.223,0.1l0.053,0.104
					C667.783,528.576,667.979,528.421,667.635,528.472z"/>
				<path fill="#2AA4C0" d="M671.846,527.957c-0.12-0.21-0.413-0.026-0.76,0.126c0.021-0.008,0.041-0.016,0.063-0.021
					C671.147,528.401,671.502,528.189,671.846,527.957z"/>
				<path fill="#2AA4C0" d="M671.005,528.116c-0.108,0.045-0.219,0.087-0.332,0.11C670.672,528.362,670.817,528.21,671.005,528.116z
					"/>
				<path fill="#2AA4C0" d="M675.787,527.261c-0.197,0.002,0.023,0.352-0.116,0.289
					C675.612,527.932,676.654,526.746,675.787,527.261z"/>
				<polygon fill="#2AA4C0" points="671.299,527.318 671.522,527.551 671.642,527.257 				"/>
				<path fill="#2AA4C0" d="M674.154,526.501l-0.592,0.135c0.027,0.045-0.033,0.101-0.112,0.156
					C673.799,526.669,674.202,526.583,674.154,526.501z"/>
				<path fill="#2AA4C0" d="M673.45,526.792c-0.183,0.062-0.351,0.135-0.434,0.22C673.113,526.972,673.319,526.882,673.45,526.792z"
					/>
				<polygon fill="#2AA4C0" points="672.038,526.957 672.225,526.955 672.629,526.832 				"/>
				<path fill="#2AA4C0" d="M680.05,523.85l0.52-0.418c-0.006-0.143-0.2-0.12-0.386,0.045
					C680.092,523.631,679.903,523.794,680.05,523.85z"/>
				<path fill="#2AA4C0" d="M677.854,523.907c0.188-0.014,0.234,0.051,0.375,0.111l-0.181-0.4L677.854,523.907z"/>
				<path fill="#2AA4C0" d="M679.45,522.921c-0.004-0.143,0.61-0.79-0.062-0.35C679.397,522.716,678.892,523.126,679.45,522.921z"/>
				<polygon fill="#2AA4C0" points="687.008,517.12 686.923,517.26 687.665,517.694 				"/>
				<path fill="#2AA4C0" d="M685.003,510.344c0.095,0.609,0.567-0.164,0.6,0.437c0.271,0.028-0.03-0.495,0.213-0.459
					C685.421,510.104,685.445,509.876,685.003,510.344z"/>
				<path fill="#2AA4C0" d="M685.815,510.321c0.063,0.035,0.135,0.07,0.224,0.104C685.931,510.354,685.866,510.331,685.815,510.321z
					"/>
				<polygon fill="#2AA4C0" points="593.908,492.417 593.417,492.507 593.735,492.456 				"/>
				<path fill="#2AA4C0" d="M592.97,492.613l-0.117,0.013l-0.293,0.059C592.666,492.666,592.815,492.641,592.97,492.613z"/>
				<path fill="#2AA4C0" d="M659.742,499.017l0.072-0.143c-0.034-0.181-0.141-0.219-0.356-0.298L659.742,499.017z"/>
				<polygon fill="#2AA4C0" points="653.413,497.112 653.522,497.147 653.419,496.544 				"/>
				<path fill="#2AA4C0" d="M647.84,496.801c0.219,0.062,0.5-0.017,0.721,0.046C648.06,496.861,647.883,496.105,647.84,496.801z"/>
			</g>
		</g>
	</g>
</g>
<g>
	<ellipse fill="#2AA4C0" cx="172.15" cy="737.581" rx="64.088" ry="18.328"/>
	<path fill="#2AA4C0" d="M235.89,737.612c0,0-0.025-0.272-0.074-0.799c-0.021-0.266-0.137-0.526-0.217-0.876
		c-0.125-0.334-0.289-0.739-0.533-1.156c-0.96-1.706-3.259-3.697-6.651-5.308c-1.696-0.81-3.653-1.543-5.833-2.18
		c-2.171-0.663-4.57-1.221-7.159-1.676c-5.174-0.93-11.076-1.538-17.508-2c-6.431-0.486-13.395-0.903-20.787-1.23
		c-7.362-0.312-15.237-0.687-23.342-0.499c-8.108,0.193-16.54,1.013-24.758,3.24c-2.049,0.562-4.085,1.187-6.087,1.91
		c-1.988,0.757-3.938,1.608-5.794,2.593c-1.835,1.012-3.584,2.178-4.996,3.543c-0.668,0.698-1.298,1.432-1.657,2.2
		c-0.118,0.187-0.186,0.378-0.247,0.567c-0.063,0.189-0.159,0.373-0.17,0.561c-0.021,0.186-0.09,0.366-0.088,0.547l0.001,0.268
		l-0.003,0.133l-0.002,0.066c-0.004-0.053,0.005,0.211-0.01-0.102l0.116,0.811c0.012,0.169,0.06,0.18,0.087,0.252
		c0.031,0.061,0.058,0.12,0.081,0.181c0.018,0.101,0.144,0.294,0.228,0.456c0.083,0.168,0.172,0.336,0.309,0.497
		c0.432,0.666,1.117,1.281,1.821,1.861c1.476,1.145,3.261,2.082,5.12,2.881c3.725,1.625,7.772,2.752,11.811,3.721
		c8.122,1.886,16.388,2.87,24.394,3.433c8.021,0.528,15.785,0.712,23.188,0.665c7.357-0.024,14.336-0.416,20.769-0.777
		c6.432-0.421,12.339-0.985,17.51-1.913c2.588-0.452,4.986-1.006,7.156-1.666c2.179-0.635,4.135-1.364,5.831-2.169
		c3.392-1.601,5.691-3.577,6.659-5.273c0.99-1.702,0.769-2.817,0.837-2.792L235.89,737.612z M236.588,737.581
		c-0.07-0.037,0.187,1.262-0.875,3.169c-1.03,1.901-3.358,4.066-6.715,6.028c-1.677,0.986-3.597,1.967-5.731,2.936
		c-2.143,0.948-4.499,1.891-7.054,2.796c-5.11,1.797-11.012,3.515-17.569,4.734c-6.553,1.305-13.736,1.983-21.377,2.282
		c-7.592,0.291-15.667,0.104-23.953-0.771c-8.289-0.854-16.828-2.262-25.346-4.695c-2.125-0.627-4.25-1.325-6.355-2.127
		c-2.098-0.834-4.18-1.772-6.218-2.886c-2.023-1.142-4.012-2.454-5.813-4.194c-0.88-0.903-1.747-1.865-2.391-3.107
		c-0.178-0.288-0.318-0.614-0.444-0.951c-0.128-0.34-0.269-0.629-0.355-1.068l-0.13-0.61c-0.035-0.192-0.088-0.44-0.08-0.546
		l-0.028-0.819c-0.01-0.38,0.005-0.185,0.007-0.306l0.016-0.138l0.033-0.274l0.073-0.548c0.055-0.361,0.189-0.697,0.289-1.042
		c0.092-0.354,0.263-0.652,0.412-0.965c0.149-0.314,0.309-0.617,0.506-0.88c0.717-1.14,1.639-1.983,2.555-2.769
		c1.865-1.521,3.891-2.604,5.937-3.533c2.039-0.945,4.118-1.723,6.213-2.395c2.09-0.68,4.184-1.305,6.29-1.836
		c8.422-2.092,16.795-3.664,24.982-4.887c8.201-1.218,16.165-1.964,23.799-1.938c7.606-0.003,14.805,0.649,21.359,1.83
		c3.279,0.578,6.391,1.32,9.33,2.086c2.933,0.806,5.686,1.667,8.242,2.562c2.554,0.9,4.909,1.84,7.05,2.785
		c2.133,0.966,4.052,1.942,5.729,2.925c3.356,1.951,5.688,4.1,6.725,5.992c0.265,0.464,0.442,0.907,0.583,1.3
		c0.098,0.408,0.222,0.771,0.239,1.031c0.044,0.526,0.067,0.798,0.067,0.798L236.588,737.581z"/>
</g>
<g>
	<ellipse fill="#2AA4C0" cx="449.035" cy="715.463" rx="52.408" ry="16.501"/>
	<g>
		<path fill="#2AA4C0" d="M501.094,715.491c0,0-0.02-0.226-0.057-0.662c-0.051-0.429-0.193-0.967-0.524-1.716
			c-0.366-0.718-0.968-1.529-1.827-2.351c-0.854-0.827-2.013-1.6-3.365-2.345c-2.721-1.483-6.355-2.67-10.618-3.474
			c-4.258-0.834-9.132-1.341-14.433-1.742c-5.3-0.423-11.036-0.793-17.131-1.109c-6.062-0.299-12.575-0.69-19.273-0.557
			c-6.701,0.138-13.684,0.875-20.413,2.921c-3.354,1.003-6.662,2.337-9.604,4.138c-1.444,0.924-2.814,1.971-3.836,3.172
			c-0.5,0.604-0.909,1.243-1.17,1.874c-0.098,0.319-0.24,0.628-0.255,0.935c-0.01,0.152-0.072,0.301-0.048,0.449l0.005,0.221v0.109
			l0,0.055c-0.003-0.05,0.005,0.188-0.007-0.099l0.099,0.673l0.024,0.168l0.042,0.076l0.07,0.146
			c0.021,0.048,0.038,0.097,0.053,0.146l0.108,0.202c0.08,0.135,0.125,0.273,0.221,0.407c0.344,0.54,0.816,1.061,1.359,1.551
			c1.098,0.981,2.514,1.798,3.985,2.507c1.469,0.729,3.039,1.343,4.647,1.871c1.603,0.543,3.227,1.049,4.886,1.46
			c6.616,1.712,13.419,2.598,20.004,3.105c6.604,0.474,12.996,0.641,19.102,0.607c6.055-0.021,11.811-0.344,17.108-0.671
			c5.304-0.332,10.182-0.815,14.438-1.641c4.261-0.795,7.891-1.981,10.611-3.453c1.353-0.739,2.511-1.506,3.367-2.327
			c0.861-0.814,1.465-1.621,1.835-2.334c0.332-0.727,0.489-1.319,0.537-1.725c0.038-0.407,0.058-0.617,0.058-0.617L501.094,715.491z
			 M501.792,715.463c0,0-0.017,0.24-0.048,0.706c-0.044,0.464-0.205,1.145-0.561,1.969c-0.405,0.795-0.994,1.728-1.875,2.652
			c-0.876,0.928-2.002,1.857-3.344,2.771c-2.681,1.836-6.197,3.642-10.381,5.359c-2.097,0.847-4.359,1.679-6.78,2.452
			c-2.426,0.737-5,1.467-7.719,2.053c-5.44,1.219-11.418,1.875-17.791,2.159c-6.32,0.278-13.058,0.106-19.956-0.72
			c-6.902-0.808-14.007-2.126-21.065-4.413c-3.523-1.168-7.034-2.601-10.361-4.704c-1.646-1.078-3.266-2.293-4.674-3.925
			c-0.696-0.821-1.342-1.74-1.824-2.812c-0.125-0.26-0.211-0.559-0.312-0.837l-0.141-0.429l-0.105-0.513l-0.089-0.514l-0.037-0.253
			l-0.002-0.17l-0.01-0.68c0.13-2.842,1.556-4.604,3.021-6.032c1.484-1.411,3.149-2.396,4.823-3.26
			c1.666-0.88,3.377-1.593,5.105-2.205c1.721-0.629,3.45-1.194,5.185-1.692c3.466-1.019,6.945-1.811,10.39-2.582
			c3.447-0.756,6.873-1.445,10.268-2.016c6.804-1.165,13.419-1.896,19.784-1.884c6.333-0.012,12.33,0.598,17.769,1.721
			c2.722,0.547,5.294,1.264,7.724,1.978c2.419,0.764,4.685,1.581,6.779,2.427c4.183,1.708,7.695,3.512,10.375,5.337
			c1.341,0.908,2.467,1.832,3.345,2.753c0.884,0.917,1.475,1.846,1.884,2.636c0.357,0.802,0.532,1.537,0.573,1.977
			c0.033,0.438,0.049,0.662,0.049,0.662L501.792,715.463z"/>
	</g>
</g>
<g>
	<g>
		<path fill="#DAF0F2" d="M253.696,746.966c0,0-0.025-0.29-0.072-0.852c-0.064-0.553-0.252-1.273-0.681-2.244
			c-0.477-0.934-1.25-1.994-2.358-3.063c-1.103-1.078-2.588-2.093-4.326-3.075c-1.748-0.972-3.788-1.865-6.075-2.652
			c-2.28-0.807-4.813-1.492-7.547-2.082c-5.466-1.197-11.737-2.002-18.575-2.622c-6.837-0.644-14.252-1.154-22.125-1.515
			c-7.84-0.342-16.233-0.686-24.863-0.366c-8.63,0.329-17.607,1.371-26.289,4.005c-4.324,1.306-8.616,2.958-12.453,5.279
			c-1.89,1.181-3.694,2.517-5.075,4.093c-0.678,0.792-1.246,1.637-1.625,2.499c-0.105,0.213-0.149,0.436-0.23,0.649
			c-0.088,0.213-0.134,0.431-0.16,0.646c-0.022,0.216-0.11,0.426-0.086,0.64l-0.002,0.318l-0.004,0.157l-0.002,0.078
			c-0.004-0.042,0.004,0.205-0.009-0.074l0.114,0.866l0.028,0.217l0.052,0.123l0.093,0.24l0.076,0.24l0.144,0.292
			c0.105,0.195,0.17,0.396,0.297,0.586c0.463,0.771,1.094,1.497,1.815,2.175c1.457,1.355,3.307,2.463,5.224,3.428
			c1.917,0.984,3.957,1.811,6.043,2.525c2.08,0.729,4.188,1.402,6.337,1.955c8.573,2.283,17.366,3.485,25.882,4.182
			c8.535,0.658,16.806,0.875,24.69,0.797c7.835-0.058,15.267-0.542,22.105-1.061c6.837-0.579,13.114-1.34,18.577-2.535
			c2.733-0.587,5.265-1.27,7.543-2.072c2.285-0.785,4.324-1.674,6.071-2.642c1.738-0.976,3.223-1.986,4.328-3.057
			c1.111-1.063,1.885-2.118,2.367-3.048c0.43-0.948,0.632-1.723,0.693-2.253c0.049-0.532,0.074-0.807,0.074-0.807L253.696,746.966z
			 M254.395,746.938c0,0-0.021,0.305-0.063,0.896c-0.058,0.588-0.263,1.451-0.718,2.497c-0.516,1.011-1.275,2.192-2.407,3.366
			c-1.124,1.178-2.577,2.35-4.304,3.5c-1.727,1.153-3.724,2.294-5.959,3.414c-2.247,1.094-4.73,2.165-7.427,3.207
			c-5.396,2.068-11.664,3.986-18.642,5.37c-6.974,1.469-14.633,2.244-22.783,2.578c-8.098,0.323-16.715,0.103-25.545-0.909
			c-8.832-0.996-17.927-2.629-26.943-5.489c-4.498-1.46-8.982-3.243-13.208-5.854c-2.092-1.335-4.146-2.84-5.913-4.845
			c-0.874-1.01-1.679-2.135-2.28-3.438c-0.157-0.316-0.262-0.678-0.389-1.016l-0.176-0.519l-0.128-0.607l-0.111-0.607l-0.048-0.3
			l-0.006-0.219l-0.026-0.873c0.134-3.368,1.842-5.605,3.665-7.402c1.843-1.785,3.943-3.061,6.062-4.181
			c2.114-1.135,4.296-2.061,6.501-2.86c2.197-0.818,4.404-1.572,6.634-2.194c4.447-1.296,8.913-2.311,13.341-3.256
			c4.431-0.93,8.835-1.747,13.196-2.41c8.735-1.351,17.23-2.132,25.373-2.073c8.111,0.031,15.788,0.781,22.763,2.125
			c3.491,0.657,6.796,1.503,9.917,2.362c3.112,0.913,6.028,1.896,8.727,2.922c2.695,1.037,5.177,2.105,7.423,3.195
			c2.233,1.118,4.23,2.255,5.956,3.402c1.727,1.145,3.18,2.312,4.306,3.482c1.133,1.167,1.895,2.344,2.416,3.35
			c0.456,1.023,0.676,1.94,0.73,2.505c0.042,0.562,0.064,0.852,0.064,0.852L254.395,746.938z"/>
	</g>
</g>
<g>
	<path fill="#DAF0F2" d="M501.094,721.108c0,0-0.02-0.226-0.057-0.662c-0.051-0.429-0.193-0.967-0.524-1.716
		c-0.366-0.718-0.968-1.529-1.827-2.351c-0.854-0.827-2.013-1.6-3.365-2.345c-2.721-1.483-6.355-2.67-10.618-3.474
		c-4.258-0.834-9.132-1.341-14.433-1.742c-5.3-0.423-11.036-0.793-17.131-1.109c-6.062-0.299-12.575-0.69-19.273-0.557
		c-6.701,0.138-13.684,0.875-20.413,2.921c-3.354,1.003-6.662,2.337-9.604,4.138c-1.444,0.924-2.814,1.971-3.836,3.172
		c-0.5,0.604-0.909,1.243-1.17,1.874c-0.098,0.319-0.24,0.628-0.255,0.935c-0.01,0.152-0.072,0.301-0.048,0.449l0.005,0.221v0.109
		l0,0.055c-0.003-0.05,0.005,0.188-0.007-0.099l0.099,0.673l0.024,0.168l0.042,0.076l0.07,0.146
		c0.021,0.048,0.038,0.097,0.053,0.146l0.108,0.202c0.08,0.135,0.125,0.273,0.221,0.407c0.344,0.54,0.816,1.061,1.359,1.551
		c1.098,0.981,2.514,1.798,3.985,2.507c1.469,0.729,3.039,1.343,4.647,1.871c1.603,0.543,3.227,1.049,4.886,1.46
		c6.616,1.712,13.419,2.598,20.004,3.105c6.604,0.474,12.996,0.641,19.102,0.607c6.055-0.021,11.811-0.344,17.108-0.671
		c5.304-0.332,10.182-0.815,14.438-1.641c4.261-0.795,7.891-1.981,10.611-3.453c1.353-0.739,2.511-1.506,3.367-2.327
		c0.861-0.814,1.465-1.621,1.835-2.334c0.332-0.727,0.489-1.319,0.537-1.725c0.038-0.407,0.058-0.617,0.058-0.617L501.094,721.108z
		 M501.792,721.08c0,0-0.017,0.24-0.048,0.706c-0.044,0.464-0.205,1.145-0.561,1.969c-0.405,0.795-0.994,1.728-1.875,2.652
		c-0.876,0.928-2.002,1.857-3.344,2.771c-2.681,1.836-6.197,3.642-10.381,5.359c-2.097,0.847-4.359,1.679-6.78,2.452
		c-2.426,0.737-5,1.467-7.719,2.053c-5.44,1.219-11.418,1.875-17.791,2.159c-6.32,0.278-13.058,0.106-19.956-0.72
		c-6.902-0.808-14.007-2.126-21.065-4.413c-3.523-1.168-7.034-2.601-10.361-4.704c-1.646-1.078-3.266-2.293-4.674-3.925
		c-0.696-0.821-1.342-1.74-1.824-2.812c-0.125-0.26-0.211-0.559-0.312-0.837l-0.141-0.429l-0.105-0.513l-0.089-0.514l-0.037-0.253
		l-0.002-0.17l-0.01-0.68c0.13-2.842,1.556-4.604,3.021-6.032c1.484-1.411,3.149-2.396,4.823-3.26
		c1.666-0.88,3.377-1.593,5.105-2.205c1.721-0.629,3.45-1.194,5.185-1.692c3.466-1.019,6.945-1.811,10.39-2.582
		c3.447-0.756,6.873-1.445,10.268-2.016c6.804-1.165,13.419-1.896,19.784-1.884c6.333-0.012,12.33,0.598,17.769,1.721
		c2.722,0.547,5.294,1.264,7.724,1.978c2.419,0.764,4.685,1.581,6.779,2.427c4.183,1.708,7.695,3.512,10.375,5.337
		c1.341,0.908,2.467,1.832,3.345,2.753c0.884,0.917,1.475,1.846,1.884,2.636c0.357,0.802,0.532,1.537,0.573,1.977
		c0.033,0.438,0.049,0.662,0.049,0.662L501.792,721.08z"/>
</g>
<g>
	<ellipse fill="#2AA4C0" cx="189.15" cy="746.875" rx="64.088" ry="18.328"/>
	<path fill="#2AA4C0" d="M252.89,746.905c0,0-0.025-0.271-0.074-0.797c-0.021-0.268-0.137-0.527-0.217-0.877
		c-0.125-0.334-0.289-0.739-0.533-1.156c-0.96-1.706-3.259-3.697-6.651-5.308c-1.696-0.81-3.653-1.543-5.833-2.181
		c-2.171-0.662-4.57-1.22-7.159-1.676c-5.174-0.928-11.076-1.537-17.508-1.999c-6.431-0.485-13.395-0.903-20.787-1.229
		c-7.362-0.312-15.237-0.688-23.342-0.5c-8.108,0.193-16.54,1.013-24.758,3.24c-2.049,0.562-4.085,1.188-6.087,1.91
		c-1.988,0.757-3.938,1.608-5.794,2.593c-1.835,1.011-3.584,2.178-4.996,3.543c-0.668,0.698-1.298,1.432-1.657,2.2
		c-0.118,0.186-0.186,0.378-0.247,0.568c-0.063,0.188-0.159,0.373-0.17,0.56c-0.021,0.186-0.09,0.366-0.088,0.547l0.001,0.268
		l-0.003,0.133l-0.002,0.065c-0.004-0.053,0.005,0.211-0.01-0.102l0.116,0.812c0.012,0.169,0.06,0.18,0.087,0.252
		c0.031,0.061,0.058,0.12,0.081,0.181c0.018,0.101,0.144,0.294,0.228,0.456c0.083,0.167,0.172,0.335,0.309,0.497
		c0.432,0.666,1.117,1.281,1.821,1.861c1.476,1.145,3.261,2.082,5.12,2.881c3.725,1.625,7.772,2.752,11.811,3.721
		c8.122,1.887,16.388,2.869,24.394,3.432c8.021,0.529,15.785,0.713,23.188,0.666c7.357-0.024,14.336-0.416,20.769-0.777
		c6.432-0.421,12.339-0.985,17.51-1.914c2.588-0.451,4.986-1.005,7.156-1.665c2.179-0.636,4.135-1.364,5.831-2.169
		c3.392-1.602,5.691-3.578,6.659-5.273c0.99-1.702,0.769-2.817,0.837-2.792L252.89,746.905z M253.588,746.875
		c-0.07-0.036,0.187,1.261-0.875,3.169c-1.03,1.901-3.358,4.066-6.715,6.028c-1.677,0.986-3.597,1.967-5.731,2.936
		c-2.143,0.948-4.499,1.892-7.054,2.796c-5.11,1.797-11.012,3.514-17.569,4.734c-6.553,1.305-13.736,1.983-21.377,2.282
		c-7.592,0.292-15.667,0.104-23.953-0.771c-8.289-0.854-16.828-2.263-25.346-4.694c-2.125-0.628-4.25-1.326-6.355-2.129
		c-2.098-0.832-4.18-1.771-6.218-2.885c-2.023-1.142-4.012-2.454-5.813-4.194c-0.88-0.903-1.747-1.866-2.391-3.108
		c-0.178-0.287-0.318-0.613-0.444-0.95c-0.128-0.34-0.269-0.63-0.355-1.067l-0.13-0.611c-0.035-0.192-0.088-0.439-0.08-0.546
		l-0.028-0.819c-0.01-0.381,0.005-0.185,0.007-0.305l0.016-0.139l0.033-0.275l0.073-0.547c0.055-0.361,0.189-0.697,0.289-1.042
		c0.092-0.353,0.263-0.651,0.412-0.964c0.149-0.315,0.309-0.617,0.506-0.881c0.717-1.141,1.639-1.984,2.555-2.77
		c1.865-1.52,3.891-2.603,5.937-3.532c2.039-0.946,4.118-1.722,6.213-2.395c2.09-0.68,4.184-1.305,6.29-1.836
		c8.422-2.091,16.795-3.663,24.982-4.887c8.201-1.218,16.165-1.964,23.799-1.938c7.606-0.003,14.805,0.649,21.359,1.829
		c3.279,0.579,6.391,1.321,9.33,2.088c2.933,0.805,5.686,1.666,8.242,2.561c2.554,0.9,4.909,1.84,7.05,2.785
		c2.133,0.967,4.052,1.942,5.729,2.924c3.356,1.952,5.688,4.101,6.725,5.992c0.265,0.465,0.442,0.908,0.583,1.301
		c0.098,0.408,0.222,0.77,0.239,1.031c0.044,0.526,0.067,0.799,0.067,0.799L253.588,746.875z"/>
</g>
<path fill-rule="evenodd" clip-rule="evenodd" fill="#DAF0F2" d="M398.254,729.461c-1.379,0.37-1.695-0.75-2.236-1.522
	c-1.818-2.595-1.807-5.317-0.016-7.999c0.35-0.522,0.742-1.067,0.893-1.655c0.787-3.109,2.803-5.051,5.875-6.045
	c3.26-1.688,6.164-3.979,9.607-5.356c5.488-1.159,11.059-1.973,16.445-3.578c1.879-0.279,3.816-0.183,5.639-0.824
	c1.535,0.177,2.955-0.367,4.416-0.653c0.869,0.337,1.707,0.157,2.536-0.151c4.143-0.508,8.301-0.16,12.451-0.236
	c4.012,0.076,8.045-0.049,11.982,1.354c-4.861,0.467-8.867,2.714-13.039,4.875c-2.822,1.462-6.389,1.618-9.648,2.223
	c-1.908,0.354-3.632,0.741-5.124,2.18c-3.475,3.355-8.131,4.046-12.699,4.759c-4.443,0.693-4.5,0.812-4.559,5.026
	c-0.016,1.237,0.471,2.749-0.783,3.816c-0.785-0.03-1.566-0.031-2.256,0.425c-3.219-0.097-6.312,0.143-9.328,1.572
	c-1.93,0.915-4.105,1.594-6.402,1.251C400.711,728.728,399.441,728.871,398.254,729.461z"/>
<path fill-rule="evenodd" clip-rule="evenodd" fill="#DAF0F2" stroke="#DAF0F2" stroke-width="7" stroke-linecap="round" stroke-linejoin="round" stroke-miterlimit="10" d="
	M130.336,756.53c-1.719-0.001-3.439-0.002-5.158-0.003c-1.295-0.605-2.588-1.21-3.883-1.815c-0.158-1.38,0.709-3.228-2.059-3.418
	c-1.246-2.356-3.766-3.646-0.098-7.208c9.752-9.477,22.223-13.755,35.59-16.729c18.098-4.026,36.346-5.822,54.6-0.402
	c1.328,0.394,3.404,0.11,3.562,1.651c0.131,1.298-1.863,1.349-2.959,1.915c-10.324,5.333-21.777,8.502-32.812,12.357
	c-7.42,2.592-15.828,3.046-23.799,4.436c-1.291,0.225-2.605,0.34-4.41,0.57c1.283,0.754,2.162,1.271,3.297,1.938
	c-5.334,3.854-11.635,5.258-18.045,6.437C132.887,756.349,131.611,756.439,130.336,756.53z"/>
<path fill="#ACD7DD" d="M536.53,812.662c0,0-11.213,30.992-18.213,32.992s-61.25,8.25-66.25-1.75s-21.815-24.92-21.815-24.92"/>
<path fill="#ACD7DD" d="M85.762,785.488c0,0,2.666,32.851,8.893,36.621c6.229,3.771,56.924,24.069,64.379,15.736
	c7.455-8.332,27.604-18.305,27.604-18.305"/>
<circle fill="#2AA4C0" cx="110.116" cy="656.906" r="15.914"/>
<circle fill="#2AA4C0" cx="118.907" cy="551.703" r="25.556"/>
<g>
	<path fill="#2AA4C0" d="M699.788,292.205c0,9.765,4.371,14.938,10.95,17.352v-29.432
		C703.956,283.007,699.788,286.809,699.788,292.205z"/>
	<path fill="#2AA4C0" d="M710.738,325.876c-10.979,2.552-20.859,5.204-26.95,8.141c-21,10.123-96,6.774-101,47.123
		c-0.727,18.317,45,46.349,118.502,45.349c3.167,0.056,6.315,0.048,9.448-0.006V325.876z"/>
	<path fill="#2AA4C0" d="M710.738,207.68v-39.938c-37.766-4.145-68.301-0.871-74.929,9.883
		C626.976,191.958,666.243,200.149,710.738,207.68z"/>
</g>
<g>
	<path fill="#CAE1E5" d="M710.74,599.094c-23.734,3.38-40.251,10.898-40.251,19.633c0,8.735,16.521,16.249,40.251,19.63V599.094z"/>
	<path fill="#2AA4C0" d="M710.74,599.094c-3.87,0.784-7.71,1.644-11.506,2.654c-1.898,0.498-3.781,1.048-5.645,1.643
		c-1.866,0.586-3.717,1.214-5.531,1.921c-3.613,1.431-7.177,3.029-10.299,5.184c-1.546,1.079-2.984,2.294-4.101,3.679
		c-1.108,1.387-1.81,2.974-1.789,4.552c0.034,1.617,0.777,3.091,1.894,4.466c1.126,1.351,2.575,2.525,4.138,3.55
		c3.15,2.047,6.721,3.553,10.34,4.881c3.641,1.299,7.391,2.349,11.187,3.222c3.789,0.912,7.631,1.633,11.493,2.243l-1.462,1.27
		l0.195-9.815c0.056-3.272,0.173-6.544,0.263-9.815c0.082-3.272,0.23-6.544,0.344-9.816
		C710.4,605.638,710.552,602.366,710.74,599.094z M710.74,599.094c0.188,3.272,0.34,6.544,0.48,9.815
		c0.113,3.272,0.262,6.544,0.344,9.816c0.09,3.271,0.207,6.543,0.263,9.815l0.195,9.815l-1.462,1.27
		c-3.937-0.521-7.864-1.155-11.762-1.989c-3.893-0.851-7.753-1.901-11.548-3.217c-3.79-1.325-7.513-2.962-10.968-5.233
		c-1.715-1.149-3.366-2.482-4.753-4.172c-0.698-0.838-1.292-1.808-1.731-2.868c-0.23-0.532-0.385-1.077-0.516-1.679
		c-0.05-0.305-0.113-0.652-0.136-0.923l-0.037-0.819c0.03-2.402,1.145-4.567,2.526-6.202c1.396-1.655,3.058-2.949,4.79-4.043
		c3.482-2.165,7.211-3.71,11.007-4.935c3.799-1.222,7.663-2.161,11.559-2.874c1.944-0.376,3.902-0.668,5.86-0.935
		C706.808,599.456,708.778,599.282,710.74,599.094z"/>
</g>
<g>
	<path fill="#2AA4C0" d="M17.688,432.603c-5.958-0.105-11.856-0.003-17.689,0.276v102.2c14.146-3.131,27.605-6.348,35.191-10.005
		c21-10.123,96-6.774,101-47.123C136.916,459.634,91.189,431.603,17.688,432.603z"/>
	<path fill="#2AA4C0" d="M19.189,566.886c0-13.434-8.266-18.186-19.191-18.999v33.853C11.488,578.603,19.189,574.218,19.189,566.886
		z"/>
	<path fill="#2AA4C0" d="M-0.002,650.03v40.312c41.499,5.584,76.067,2.649,83.17-8.876C92.544,666.253,47.734,657.96-0.002,650.03z"
		/>
</g>
<g>
	<path fill="#CAE1E5" d="M0,262.313c24.026-3.341,48.488-13.147,48.488-21.949c0-9.715-20.426-17.924-48.49-20.609"/>
	<path fill="#2AA4C0" d="M0,262.313c0,0,1.708-0.335,4.666-1.011c1.481-0.327,3.268-0.774,5.312-1.286
		c2.044-0.517,4.331-1.17,6.813-1.9c2.482-0.733,5.14-1.625,7.922-2.621c2.78-1.001,5.669-2.164,8.57-3.519
		c2.898-1.344,5.83-2.89,8.484-4.802c1.312-0.964,2.581-1.998,3.583-3.176c0.994-1.157,1.703-2.523,1.658-3.664
		c-0.038-2.819-2.301-5.334-4.85-7.235c-2.596-1.912-5.546-3.381-8.459-4.644c-5.877-2.469-11.708-4.071-16.725-5.306
		c-5.031-1.207-9.287-2.015-12.272-2.564c-2.994-0.529-4.704-0.831-4.704-0.831s0.435,0.013,1.25,0.036
		c0.815,0.03,2.012,0.061,3.531,0.165c3.04,0.188,7.385,0.558,12.557,1.418c2.588,0.417,5.376,0.983,8.303,1.713
		c2.93,0.717,5.987,1.647,9.085,2.849c3.097,1.198,6.248,2.682,9.175,4.807c1.456,1.066,2.862,2.305,4.031,3.86
		c0.579,0.78,1.088,1.65,1.45,2.609c0.183,0.479,0.323,0.98,0.429,1.492c0.042,0.265,0.092,0.5,0.114,0.798
		c0.033,0.312,0.037,0.527,0.041,0.736c0.013,2.392-1.193,4.218-2.407,5.655c-1.264,1.437-2.685,2.595-4.156,3.602
		c-2.952,2.001-6.045,3.51-9.081,4.818c-3.045,1.287-6.058,2.314-8.931,3.207c-2.874,0.894-5.634,1.575-8.184,2.167
		c-2.55,0.597-4.913,1.018-7.004,1.38c-2.093,0.361-3.93,0.592-5.44,0.783c-1.511,0.187-2.704,0.283-3.516,0.359
		C0.433,262.277,0,262.313,0,262.313z"/>
</g>
</svg>
