<?xml version="1.0" encoding="utf-8"?>
<!-- Generator: Adobe Illustrator 16.0.0, SVG Export Plug-In . SVG Version: 6.00 Build 0)  -->
<!DOCTYPE svg PUBLIC "-//W3C//DTD SVG 1.1//EN" "http://www.w3.org/Graphics/SVG/1.1/DTD/svg11.dtd">
<svg version="1.1" id="Layer_1" xmlns="http://www.w3.org/2000/svg" xmlns:xlink="http://www.w3.org/1999/xlink" x="0px" y="0px"
	 width="710.738px" height="232.249px" viewBox="0 0 710.738 232.249" enable-background="new 0 0 710.738 232.249"
	 xml:space="preserve">
<g id="Moon">
	<path fill="#ACD7DD" d="M-702.512,823.869C-568.891,371.546-150.351,41.473,345.283,41.473
		c496.392,0,915.455,331.088,1048.405,784.479"/>
	<g>
		<ellipse fill="#5EAAB6" cx="231.689" cy="151.436" rx="52.408" ry="16.501"/>
		<path fill="#CAE1E5" d="M179.631,151.407c0,0,0.019,0.226,0.057,0.662c0.051,0.429,0.193,0.967,0.524,1.716
			c0.366,0.718,0.968,1.529,1.827,2.351c0.854,0.827,2.014,1.6,3.366,2.345c2.721,1.483,6.355,2.67,10.618,3.475
			c4.258,0.833,9.133,1.34,14.434,1.741c5.3,0.423,11.036,0.793,17.13,1.11c6.062,0.298,12.576,0.689,19.273,0.556
			c6.701-0.138,13.685-0.875,20.413-2.921c3.354-1.002,6.662-2.336,9.604-4.138c1.443-0.924,2.813-1.97,3.836-3.172
			c0.5-0.604,0.908-1.243,1.17-1.874c0.097-0.319,0.239-0.628,0.255-0.935c0.01-0.152,0.071-0.301,0.048-0.449l-0.006-0.221v-0.109
			l0.001-0.055c0.003,0.05-0.005-0.188,0.007,0.099l-0.098-0.673l-0.025-0.168l-0.042-0.076l-0.07-0.146
			c-0.021-0.048-0.038-0.097-0.054-0.146l-0.108-0.202c-0.08-0.136-0.125-0.273-0.22-0.407c-0.345-0.54-0.816-1.061-1.36-1.551
			c-1.098-0.981-2.514-1.798-3.984-2.507c-1.469-0.729-3.039-1.343-4.647-1.871c-1.603-0.543-3.227-1.049-4.886-1.46
			c-6.616-1.711-13.419-2.598-20.005-3.105c-6.603-0.473-12.995-0.641-19.101-0.607c-6.056,0.021-11.811,0.344-17.109,0.671
			c-5.304,0.332-10.182,0.815-14.438,1.641c-4.261,0.795-7.891,1.981-10.611,3.453c-1.353,0.739-2.51,1.507-3.367,2.327
			c-0.861,0.814-1.464,1.621-1.835,2.334c-0.332,0.727-0.488,1.319-0.536,1.725c-0.039,0.407-0.059,0.617-0.059,0.617
			L179.631,151.407z M178.932,151.436c0,0,0.017-0.24,0.048-0.706c0.044-0.464,0.204-1.145,0.561-1.969
			c0.404-0.795,0.994-1.728,1.876-2.652c0.876-0.928,2.002-1.857,3.343-2.771c2.681-1.836,6.197-3.642,10.381-5.359
			c2.096-0.847,4.359-1.679,6.78-2.452c2.427-0.737,4.999-1.467,7.719-2.053c5.441-1.219,11.419-1.875,17.791-2.159
			c6.32-0.278,13.058-0.106,19.956,0.72c6.902,0.808,14.007,2.126,21.066,4.413c3.522,1.168,7.034,2.601,10.361,4.704
			c1.646,1.078,3.266,2.293,4.674,3.924c0.696,0.822,1.342,1.741,1.824,2.813c0.125,0.26,0.211,0.559,0.312,0.837l0.14,0.429
			l0.106,0.513l0.089,0.514l0.037,0.253l0.002,0.17l0.01,0.68c-0.13,2.842-1.556,4.604-3.021,6.032
			c-1.484,1.411-3.149,2.396-4.823,3.26c-1.666,0.88-3.378,1.593-5.105,2.205c-1.721,0.629-3.45,1.194-5.185,1.692
			c-3.466,1.019-6.945,1.811-10.39,2.582c-3.447,0.756-6.873,1.445-10.268,2.016c-6.804,1.165-13.419,1.897-19.784,1.884
			c-6.333,0.012-12.331-0.598-17.769-1.721c-2.722-0.547-5.295-1.264-7.724-1.978c-2.42-0.764-4.685-1.581-6.779-2.427
			c-4.183-1.708-7.695-3.512-10.375-5.337c-1.342-0.908-2.467-1.832-3.345-2.753c-0.884-0.917-1.475-1.846-1.884-2.636
			c-0.357-0.802-0.532-1.537-0.573-1.977c-0.033-0.438-0.05-0.662-0.05-0.662L178.932,151.436z"/>
	</g>
	<g>
		<path fill="#CAE1E5" d="M-86.742,234.211c8.693-1.26,18.371-1.962,28.568-1.962c37.781,0,68.408,9.644,68.408,21.54
			c0,8.802-16.768,16.371-40.794,19.712"/>
		<path fill="#2AA4C0" d="M-86.742,234.211c0,0,0.585-0.102,1.684-0.292c1.099-0.185,2.707-0.486,4.762-0.808
			c2.07-0.255,4.583-0.564,7.467-0.92c1.447-0.126,2.986-0.261,4.61-0.402c0.813-0.065,1.646-0.133,2.5-0.201
			c0.855-0.036,1.729-0.074,2.623-0.112c1.79-0.068,3.645-0.172,5.584-0.221c1.917-0.045,3.909-0.038,5.972-0.02
			c4.105,0.054,8.436,0.208,12.905,0.588c4.467,0.379,9.085,0.866,13.737,1.676c4.651,0.809,9.358,1.797,13.988,3.161
			c4.615,1.395,9.185,3.082,13.405,5.493c2.097,1.221,4.131,2.607,5.834,4.443c0.844,0.92,1.628,1.925,2.21,3.088
			c0.55,1.166,0.998,2.449,0.994,3.79c0.061,1.245-0.256,2.662-0.771,3.78c-0.513,1.15-1.222,2.143-1.996,3.015
			c-1.568,1.731-3.37,3.022-5.175,4.114c-3.624,2.18-7.32,3.552-10.744,4.662c-3.43,1.107-6.638,1.857-9.49,2.43
			c-2.853,0.578-5.354,0.979-7.415,1.283c-2.062,0.302-3.692,0.459-4.801,0.576c-1.11,0.108-1.702,0.166-1.702,0.166
			s0.583-0.113,1.677-0.327c1.09-0.229,2.688-0.563,4.721-0.99c4.048-0.892,9.829-2.306,16.443-4.764
			c3.284-1.26,6.803-2.788,10.119-4.933c1.646-1.076,3.236-2.33,4.496-3.834c0.615-0.756,1.148-1.566,1.511-2.422
			c0.36-0.881,0.538-1.676,0.485-2.656c-0.073-1.809-1.128-3.562-2.583-5.048c-1.458-1.498-3.314-2.74-5.253-3.859
			c-3.926-2.209-8.342-3.812-12.818-5.133c-4.477-1.356-9.077-2.359-13.633-3.185c-4.561-0.807-9.085-1.452-13.485-1.904
			c-4.4-0.445-8.671-0.782-12.727-0.98c-2.02-0.099-3.997-0.158-5.922-0.213c-1.902-0.049-3.757-0.04-5.53-0.062
			c-0.888-0.008-1.758-0.015-2.607-0.022c-0.849,0.02-1.679,0.038-2.488,0.056c-1.62,0.027-3.157,0.053-4.601,0.076
			c-2.884,0.149-5.399,0.28-7.47,0.389c-2.07,0.195-3.703,0.298-4.814,0.391C-86.149,234.165-86.742,234.211-86.742,234.211z"/>
	</g>
	<g>
		<ellipse fill="#2AA4C0" cx="508.574" cy="134.935" rx="64.088" ry="18.328"/>
		<path fill="#2AA4C0" d="M444.834,134.904c0,0,0.025,0.271,0.074,0.798c0.021,0.267,0.136,0.526,0.217,0.876
			c0.125,0.334,0.29,0.739,0.533,1.156c0.96,1.706,3.258,3.697,6.651,5.308c1.696,0.81,3.653,1.543,5.833,2.18
			c2.171,0.663,4.57,1.221,7.159,1.676c5.175,0.93,11.076,1.538,17.509,2c6.431,0.486,13.395,0.903,20.787,1.23
			c7.362,0.312,15.236,0.687,23.342,0.499c8.108-0.193,16.54-1.013,24.758-3.24c2.049-0.562,4.085-1.187,6.087-1.91
			c1.987-0.757,3.938-1.608,5.794-2.593c1.836-1.012,3.584-2.178,4.996-3.543c0.669-0.698,1.298-1.432,1.657-2.2
			c0.118-0.186,0.186-0.378,0.248-0.567c0.063-0.189,0.158-0.373,0.17-0.561c0.021-0.186,0.09-0.366,0.088-0.547l-0.001-0.268
			l0.003-0.133l0.003-0.065c0.004,0.052-0.005-0.212,0.011,0.102l-0.116-0.812c-0.012-0.169-0.06-0.18-0.088-0.252
			c-0.03-0.061-0.058-0.12-0.08-0.181c-0.019-0.101-0.145-0.294-0.229-0.456c-0.083-0.168-0.172-0.336-0.309-0.497
			c-0.432-0.666-1.117-1.281-1.821-1.861c-1.476-1.145-3.261-2.082-5.12-2.881c-3.725-1.625-7.772-2.752-11.811-3.721
			c-8.121-1.887-16.388-2.87-24.394-3.432c-8.021-0.529-15.785-0.713-23.188-0.666c-7.357,0.024-14.336,0.416-20.769,0.777
			c-6.432,0.421-12.339,0.985-17.51,1.913c-2.588,0.452-4.986,1.006-7.156,1.666c-2.179,0.635-4.135,1.364-5.83,2.169
			c-3.392,1.601-5.691,3.577-6.659,5.273c-0.99,1.702-0.769,2.817-0.837,2.792L444.834,134.904z M444.136,134.935
			c0.07,0.036-0.188-1.261,0.875-3.169c1.029-1.901,3.358-4.066,6.715-6.028c1.677-0.986,3.597-1.967,5.731-2.936
			c2.143-0.948,4.499-1.891,7.053-2.796c5.111-1.797,11.013-3.515,17.569-4.734c6.554-1.305,13.736-1.983,21.378-2.282
			c7.593-0.292,15.668-0.104,23.953,0.771c8.288,0.854,16.827,2.262,25.346,4.695c2.125,0.627,4.249,1.325,6.355,2.128
			c2.098,0.833,4.18,1.771,6.218,2.885c2.022,1.142,4.012,2.454,5.812,4.194c0.88,0.903,1.748,1.865,2.392,3.107
			c0.177,0.288,0.317,0.614,0.444,0.951c0.128,0.34,0.269,0.629,0.354,1.068l0.13,0.61c0.035,0.192,0.089,0.439,0.08,0.546
			l0.028,0.819c0.011,0.38-0.005,0.185-0.007,0.306l-0.016,0.138l-0.033,0.274l-0.074,0.548c-0.055,0.361-0.188,0.697-0.288,1.042
			c-0.092,0.354-0.263,0.652-0.412,0.965c-0.149,0.314-0.309,0.617-0.506,0.88c-0.717,1.141-1.64,1.983-2.555,2.769
			c-1.865,1.521-3.891,2.604-5.937,3.533c-2.039,0.945-4.119,1.722-6.213,2.395c-2.091,0.68-4.185,1.305-6.29,1.836
			c-8.422,2.092-16.795,3.664-24.981,4.887c-8.201,1.218-16.166,1.964-23.8,1.938c-7.605,0.003-14.804-0.649-21.359-1.83
			c-3.28-0.578-6.391-1.32-9.331-2.087c-2.932-0.805-5.686-1.666-8.241-2.561c-2.554-0.9-4.909-1.84-7.05-2.785
			c-2.133-0.966-4.052-1.942-5.729-2.925c-3.356-1.951-5.687-4.1-6.724-5.992c-0.265-0.464-0.442-0.907-0.583-1.3
			c-0.099-0.408-0.223-0.77-0.239-1.031c-0.044-0.526-0.067-0.799-0.067-0.799L444.136,134.935z"/>
	</g>
	<g>
		<ellipse fill="#2AA4C0" cx="231.689" cy="157.053" rx="52.408" ry="16.501"/>
		<g>
			<path fill="#2AA4C0" d="M179.631,157.024c0,0,0.019,0.226,0.057,0.662c0.051,0.429,0.193,0.967,0.524,1.716
				c0.366,0.718,0.968,1.529,1.827,2.351c0.854,0.827,2.014,1.6,3.366,2.345c2.721,1.483,6.355,2.67,10.618,3.475
				c4.258,0.833,9.133,1.34,14.434,1.741c5.3,0.423,11.036,0.793,17.13,1.11c6.062,0.298,12.576,0.689,19.273,0.556
				c6.701-0.138,13.685-0.875,20.413-2.921c3.354-1.002,6.662-2.336,9.604-4.138c1.443-0.924,2.813-1.97,3.836-3.172
				c0.5-0.604,0.908-1.243,1.17-1.874c0.097-0.319,0.239-0.628,0.255-0.935c0.01-0.152,0.071-0.301,0.048-0.449l-0.006-0.221v-0.109
				l0.001-0.055c0.003,0.05-0.005-0.188,0.007,0.099l-0.098-0.673l-0.025-0.168l-0.042-0.076l-0.07-0.146
				c-0.021-0.048-0.038-0.097-0.054-0.146l-0.108-0.202c-0.08-0.136-0.125-0.273-0.22-0.407c-0.345-0.54-0.816-1.061-1.36-1.551
				c-1.098-0.981-2.514-1.798-3.984-2.507c-1.469-0.729-3.039-1.343-4.647-1.871c-1.603-0.543-3.227-1.049-4.886-1.46
				c-6.616-1.711-13.419-2.598-20.005-3.105c-6.603-0.473-12.995-0.641-19.101-0.607c-6.056,0.021-11.811,0.344-17.109,0.671
				c-5.304,0.332-10.182,0.815-14.438,1.641c-4.261,0.795-7.891,1.981-10.611,3.453c-1.353,0.739-2.51,1.507-3.367,2.327
				c-0.861,0.814-1.464,1.621-1.835,2.334c-0.332,0.727-0.488,1.319-0.536,1.725c-0.039,0.407-0.059,0.617-0.059,0.617
				L179.631,157.024z M178.932,157.053c0,0,0.017-0.24,0.048-0.706c0.044-0.464,0.204-1.145,0.561-1.969
				c0.404-0.795,0.994-1.728,1.876-2.652c0.876-0.928,2.002-1.857,3.343-2.771c2.681-1.836,6.197-3.642,10.381-5.359
				c2.096-0.847,4.359-1.679,6.78-2.452c2.427-0.737,4.999-1.467,7.719-2.053c5.441-1.219,11.419-1.875,17.791-2.159
				c6.32-0.278,13.058-0.106,19.956,0.72c6.902,0.808,14.007,2.126,21.066,4.413c3.522,1.168,7.034,2.601,10.361,4.704
				c1.646,1.078,3.266,2.293,4.674,3.924c0.696,0.822,1.342,1.741,1.824,2.813c0.125,0.26,0.211,0.559,0.312,0.837l0.14,0.429
				l0.106,0.513l0.089,0.514l0.037,0.253l0.002,0.17l0.01,0.68c-0.13,2.842-1.556,4.604-3.021,6.032
				c-1.484,1.411-3.149,2.396-4.823,3.26c-1.666,0.88-3.378,1.593-5.105,2.205c-1.721,0.629-3.45,1.194-5.185,1.692
				c-3.466,1.019-6.945,1.811-10.39,2.582c-3.447,0.756-6.873,1.445-10.268,2.016c-6.804,1.165-13.419,1.897-19.784,1.884
				c-6.333,0.012-12.331-0.598-17.769-1.721c-2.722-0.547-5.295-1.264-7.724-1.978c-2.42-0.764-4.685-1.581-6.779-2.427
				c-4.183-1.708-7.695-3.512-10.375-5.337c-1.342-0.908-2.467-1.832-3.345-2.753c-0.884-0.917-1.475-1.846-1.884-2.636
				c-0.357-0.802-0.532-1.537-0.573-1.977c-0.033-0.438-0.05-0.662-0.05-0.662L178.932,157.053z"/>
		</g>
	</g>
	<g>
		<g>
			<path fill="#DAF0F2" d="M427.028,125.55c0,0,0.024,0.29,0.072,0.852c0.064,0.553,0.252,1.273,0.681,2.244
				c0.477,0.934,1.249,1.994,2.358,3.063c1.103,1.078,2.588,2.093,4.326,3.075c1.749,0.972,3.788,1.865,6.075,2.652
				c2.28,0.807,4.813,1.492,7.547,2.082c5.466,1.197,11.737,2.002,18.575,2.622c6.837,0.644,14.251,1.154,22.125,1.515
				c7.84,0.342,16.233,0.686,24.863,0.366c8.63-0.329,17.607-1.371,26.288-4.005c4.324-1.306,8.617-2.958,12.454-5.279
				c1.889-1.181,3.694-2.517,5.075-4.093c0.677-0.792,1.246-1.637,1.625-2.498c0.105-0.214,0.149-0.437,0.23-0.65
				c0.088-0.213,0.134-0.431,0.16-0.646c0.022-0.216,0.109-0.426,0.086-0.64l0.002-0.318l0.003-0.157l0.003-0.078
				c0.004,0.042-0.004-0.205,0.009,0.074l-0.114-0.866l-0.029-0.217l-0.052-0.123l-0.094-0.24l-0.076-0.24l-0.144-0.292
				c-0.105-0.195-0.17-0.396-0.297-0.586c-0.463-0.771-1.094-1.497-1.815-2.175c-1.457-1.355-3.307-2.463-5.224-3.428
				c-1.917-0.984-3.957-1.812-6.043-2.525c-2.081-0.729-4.188-1.402-6.336-1.955c-8.574-2.283-17.367-3.485-25.883-4.182
				c-8.535-0.658-16.807-0.875-24.69-0.797c-7.835,0.058-15.267,0.542-22.105,1.061c-6.837,0.579-13.114,1.34-18.577,2.536
				c-2.732,0.586-5.265,1.269-7.543,2.071c-2.285,0.785-4.324,1.674-6.072,2.642c-1.737,0.976-3.223,1.986-4.327,3.057
				c-1.111,1.063-1.885,2.119-2.366,3.048c-0.431,0.948-0.633,1.724-0.694,2.253c-0.048,0.532-0.073,0.807-0.073,0.807
				L427.028,125.55z M426.329,125.578c0,0,0.021-0.305,0.063-0.896c0.058-0.588,0.263-1.451,0.718-2.497
				c0.515-1.011,1.275-2.192,2.406-3.366c1.124-1.177,2.577-2.35,4.304-3.501c1.727-1.152,3.724-2.293,5.959-3.413
				c2.247-1.094,4.73-2.165,7.427-3.207c5.396-2.068,11.664-3.986,18.642-5.37c6.974-1.469,14.634-2.244,22.783-2.578
				c8.099-0.323,16.715-0.103,25.545,0.909c8.832,0.996,17.928,2.629,26.943,5.489c4.498,1.46,8.982,3.243,13.208,5.854
				c2.092,1.335,4.146,2.84,5.913,4.845c0.874,1.01,1.679,2.135,2.28,3.438c0.157,0.316,0.262,0.678,0.389,1.016l0.176,0.519
				l0.129,0.607l0.111,0.607l0.048,0.301l0.006,0.218l0.026,0.873c-0.134,3.368-1.842,5.605-3.666,7.403
				c-1.842,1.785-3.942,3.06-6.062,4.18c-2.114,1.135-4.296,2.061-6.501,2.859c-2.197,0.819-4.403,1.573-6.634,2.195
				c-4.447,1.295-8.913,2.311-13.341,3.256c-4.432,0.93-8.836,1.747-13.197,2.41c-8.736,1.351-17.23,2.132-25.373,2.073
				c-8.112-0.031-15.788-0.781-22.764-2.125c-3.49-0.657-6.796-1.503-9.918-2.362c-3.111-0.913-6.027-1.896-8.727-2.922
				c-2.695-1.037-5.178-2.105-7.423-3.195c-2.234-1.118-4.23-2.255-5.956-3.402c-1.728-1.145-3.18-2.312-4.306-3.482
				c-1.134-1.167-1.895-2.344-2.415-3.35c-0.457-1.023-0.677-1.94-0.731-2.505c-0.042-0.562-0.065-0.852-0.065-0.852
				L426.329,125.578z"/>
		</g>
	</g>
	<g>
		<path fill="#DAF0F2" d="M179.631,151.407c0,0,0.019,0.226,0.057,0.662c0.051,0.429,0.193,0.967,0.524,1.716
			c0.366,0.718,0.968,1.529,1.827,2.351c0.854,0.827,2.014,1.6,3.366,2.345c2.721,1.483,6.355,2.67,10.618,3.475
			c4.258,0.833,9.133,1.34,14.434,1.741c5.3,0.423,11.036,0.793,17.13,1.11c6.062,0.298,12.576,0.689,19.273,0.556
			c6.701-0.138,13.685-0.875,20.413-2.921c3.354-1.002,6.662-2.336,9.604-4.138c1.443-0.924,2.813-1.97,3.836-3.172
			c0.5-0.604,0.908-1.243,1.17-1.874c0.097-0.319,0.239-0.628,0.255-0.935c0.01-0.152,0.071-0.301,0.048-0.449l-0.006-0.221v-0.109
			l0.001-0.055c0.003,0.05-0.005-0.188,0.007,0.099l-0.098-0.673l-0.025-0.168l-0.042-0.076l-0.07-0.146
			c-0.021-0.048-0.038-0.097-0.054-0.146l-0.108-0.202c-0.08-0.136-0.125-0.273-0.22-0.407c-0.345-0.54-0.816-1.061-1.36-1.551
			c-1.098-0.981-2.514-1.798-3.984-2.507c-1.469-0.729-3.039-1.343-4.647-1.871c-1.603-0.543-3.227-1.049-4.886-1.46
			c-6.616-1.711-13.419-2.598-20.005-3.105c-6.603-0.473-12.995-0.641-19.101-0.607c-6.056,0.021-11.811,0.344-17.109,0.671
			c-5.304,0.332-10.182,0.815-14.438,1.641c-4.261,0.795-7.891,1.981-10.611,3.453c-1.353,0.739-2.51,1.507-3.367,2.327
			c-0.861,0.814-1.464,1.621-1.835,2.334c-0.332,0.727-0.488,1.319-0.536,1.725c-0.039,0.407-0.059,0.617-0.059,0.617
			L179.631,151.407z M178.932,151.436c0,0,0.017-0.24,0.048-0.706c0.044-0.464,0.204-1.145,0.561-1.969
			c0.404-0.795,0.994-1.728,1.876-2.652c0.876-0.928,2.002-1.857,3.343-2.771c2.681-1.836,6.197-3.642,10.381-5.359
			c2.096-0.847,4.359-1.679,6.78-2.452c2.427-0.737,4.999-1.467,7.719-2.053c5.441-1.219,11.419-1.875,17.791-2.159
			c6.32-0.278,13.058-0.106,19.956,0.72c6.902,0.808,14.007,2.126,21.066,4.413c3.522,1.168,7.034,2.601,10.361,4.704
			c1.646,1.078,3.266,2.293,4.674,3.924c0.696,0.822,1.342,1.741,1.824,2.813c0.125,0.26,0.211,0.559,0.312,0.837l0.14,0.429
			l0.106,0.513l0.089,0.514l0.037,0.253l0.002,0.17l0.01,0.68c-0.13,2.842-1.556,4.604-3.021,6.032
			c-1.484,1.411-3.149,2.396-4.823,3.26c-1.666,0.88-3.378,1.593-5.105,2.205c-1.721,0.629-3.45,1.194-5.185,1.692
			c-3.466,1.019-6.945,1.811-10.39,2.582c-3.447,0.756-6.873,1.445-10.268,2.016c-6.804,1.165-13.419,1.897-19.784,1.884
			c-6.333,0.012-12.331-0.598-17.769-1.721c-2.722-0.547-5.295-1.264-7.724-1.978c-2.42-0.764-4.685-1.581-6.779-2.427
			c-4.183-1.708-7.695-3.512-10.375-5.337c-1.342-0.908-2.467-1.832-3.345-2.753c-0.884-0.917-1.475-1.846-1.884-2.636
			c-0.357-0.802-0.532-1.537-0.573-1.977c-0.033-0.438-0.05-0.662-0.05-0.662L178.932,151.436z"/>
	</g>
	<g>
		<ellipse fill="#2AA4C0" cx="491.574" cy="125.641" rx="64.088" ry="18.328"/>
		<path fill="#2AA4C0" d="M427.834,125.61c0,0,0.025,0.271,0.074,0.797c0.021,0.268,0.136,0.527,0.217,0.877
			c0.125,0.334,0.29,0.739,0.533,1.156c0.96,1.706,3.258,3.697,6.651,5.308c1.696,0.81,3.653,1.543,5.833,2.181
			c2.171,0.662,4.57,1.22,7.159,1.676c5.175,0.929,11.076,1.537,17.509,1.999c6.431,0.485,13.395,0.903,20.787,1.229
			c7.362,0.312,15.236,0.688,23.342,0.5c8.108-0.193,16.54-1.013,24.758-3.24c2.049-0.562,4.085-1.188,6.087-1.91
			c1.987-0.757,3.938-1.608,5.794-2.593c1.836-1.011,3.584-2.178,4.996-3.543c0.669-0.698,1.298-1.432,1.657-2.2
			c0.118-0.186,0.186-0.378,0.248-0.568c0.063-0.188,0.158-0.373,0.17-0.56c0.021-0.186,0.09-0.366,0.088-0.547l-0.001-0.268
			l0.003-0.133l0.003-0.065c0.004,0.053-0.005-0.211,0.011,0.102l-0.116-0.812c-0.012-0.169-0.06-0.18-0.088-0.252
			c-0.03-0.061-0.058-0.12-0.08-0.181c-0.019-0.101-0.145-0.294-0.229-0.456c-0.083-0.168-0.172-0.335-0.309-0.497
			c-0.432-0.666-1.117-1.281-1.821-1.861c-1.476-1.145-3.261-2.082-5.12-2.881c-3.725-1.625-7.772-2.752-11.811-3.721
			c-8.121-1.887-16.388-2.869-24.394-3.432c-8.021-0.529-15.785-0.713-23.188-0.666c-7.357,0.024-14.336,0.416-20.769,0.777
			c-6.432,0.421-12.339,0.985-17.51,1.914c-2.588,0.451-4.986,1.005-7.156,1.665c-2.179,0.635-4.135,1.364-5.83,2.169
			c-3.392,1.602-5.691,3.577-6.659,5.273c-0.99,1.702-0.769,2.817-0.837,2.792L427.834,125.61z M427.136,125.641
			c0.07,0.036-0.188-1.261,0.875-3.169c1.029-1.901,3.358-4.066,6.715-6.028c1.677-0.986,3.597-1.967,5.731-2.936
			c2.143-0.948,4.499-1.891,7.053-2.796c5.111-1.797,11.013-3.514,17.569-4.734c6.554-1.305,13.736-1.983,21.378-2.282
			c7.593-0.292,15.668-0.104,23.953,0.771c8.288,0.854,16.827,2.263,25.346,4.695c2.125,0.627,4.249,1.325,6.355,2.128
			c2.098,0.832,4.18,1.771,6.218,2.885c2.022,1.142,4.012,2.454,5.812,4.194c0.88,0.903,1.748,1.866,2.392,3.108
			c0.177,0.287,0.317,0.613,0.444,0.95c0.128,0.34,0.269,0.629,0.354,1.068l0.13,0.61c0.035,0.192,0.089,0.439,0.08,0.546
			l0.028,0.819c0.011,0.381-0.005,0.185-0.007,0.306l-0.016,0.138l-0.033,0.275l-0.074,0.547c-0.055,0.361-0.188,0.697-0.288,1.042
			c-0.092,0.353-0.263,0.651-0.412,0.965c-0.149,0.314-0.309,0.617-0.506,0.88c-0.717,1.141-1.64,1.984-2.555,2.77
			c-1.865,1.52-3.891,2.603-5.937,3.532c-2.039,0.946-4.119,1.722-6.213,2.395c-2.091,0.68-4.185,1.305-6.29,1.836
			c-8.422,2.092-16.795,3.663-24.981,4.887c-8.201,1.218-16.166,1.964-23.8,1.938c-7.605,0.003-14.804-0.649-21.359-1.829
			c-3.28-0.579-6.391-1.321-9.331-2.088c-2.932-0.805-5.686-1.666-8.241-2.561c-2.554-0.9-4.909-1.84-7.05-2.785
			c-2.133-0.967-4.052-1.942-5.729-2.924c-3.356-1.952-5.687-4.101-6.724-5.992c-0.265-0.465-0.442-0.908-0.583-1.301
			c-0.099-0.408-0.223-0.77-0.239-1.031c-0.044-0.526-0.067-0.799-0.067-0.799L427.136,125.641z"/>
	</g>
	<path fill-rule="evenodd" clip-rule="evenodd" fill="#DAF0F2" d="M282.47,143.055c1.379-0.37,1.695,0.75,2.236,1.522
		c1.818,2.595,1.807,5.317,0.016,7.999c-0.35,0.522-0.742,1.067-0.893,1.655c-0.787,3.109-2.803,5.051-5.875,6.045
		c-3.26,1.688-6.164,3.979-9.607,5.356c-5.488,1.159-11.059,1.973-16.445,3.578c-1.879,0.279-3.816,0.183-5.639,0.824
		c-1.535-0.177-2.955,0.367-4.416,0.653c-0.869-0.337-1.707-0.157-2.536,0.151c-4.143,0.508-8.301,0.16-12.451,0.236
		c-4.012-0.076-8.045,0.049-11.982-1.354c4.861-0.467,8.867-2.714,13.039-4.875c2.822-1.462,6.389-1.618,9.648-2.223
		c1.908-0.354,3.632-0.741,5.124-2.18c3.475-3.355,8.131-4.046,12.699-4.759c4.443-0.693,4.5-0.812,4.559-5.026
		c0.016-1.237-0.471-2.749,0.783-3.816c0.785,0.03,1.566,0.031,2.256-0.425c3.219,0.097,6.312-0.143,9.328-1.572
		c1.93-0.915,4.105-1.594,6.402-1.251C280.013,143.788,281.283,143.645,282.47,143.055z"/>
	
		<path fill-rule="evenodd" clip-rule="evenodd" fill="#DAF0F2" stroke="#DAF0F2" stroke-width="7" stroke-linecap="round" stroke-linejoin="round" stroke-miterlimit="10" d="
		M550.388,115.985c1.719,0.001,3.439,0.002,5.158,0.003c1.295,0.605,2.588,1.21,3.883,1.815c0.158,1.38-0.709,3.228,2.059,3.418
		c1.246,2.356,3.766,3.646,0.098,7.208c-9.752,9.477-22.223,13.755-35.59,16.729c-18.098,4.026-36.346,5.822-54.6,0.402
		c-1.328-0.394-3.404-0.11-3.562-1.651c-0.131-1.298,1.863-1.349,2.959-1.915c10.324-5.333,21.777-8.502,32.812-12.357
		c7.42-2.592,15.828-3.046,23.799-4.436c1.291-0.225,2.605-0.34,4.41-0.57c-1.283-0.754-2.162-1.271-3.297-1.938
		c5.334-3.854,11.635-5.258,18.045-6.437C547.837,116.167,549.113,116.076,550.388,115.985z"/>
	<path fill="#ACD7DD" d="M144.194,59.854c0,0,11.213-30.992,18.213-32.992s61.25-8.25,66.25,1.75s21.815,24.92,21.815,24.92"/>
	<path fill="#2AA4C0" d="M597.556,191.049c-19.021,30.864,184.979,33.25,183.979,61.883c-1.416,40.506-120,23.913-120,52.698
		c0,39.935,73,3.206,72,14.07s-7,17.618-28,27.741s-96,6.774-101,47.123c-0.727,18.317,45,46.349,118.502,45.349
		c113.498,2,146.826-67,128.162-158S616.578,160.185,597.556,191.049z"/>
	<path fill="#ACD7DD" d="M594.962,87.027c0,0-2.666-32.851-8.893-36.621c-6.229-3.771-56.924-24.069-64.379-15.736
		c-7.455,8.332-27.604,18.305-27.604,18.305"/>
</g>
</svg>
