<?xml version="1.0" encoding="utf-8"?>
<!-- Generator: Adobe Illustrator 16.0.0, SVG Export Plug-In . SVG Version: 6.00 Build 0)  -->
<!DOCTYPE svg PUBLIC "-//W3C//DTD SVG 1.1//EN" "http://www.w3.org/Graphics/SVG/1.1/DTD/svg11.dtd">
<svg version="1.1" id="Layer_1" xmlns="http://www.w3.org/2000/svg" xmlns:xlink="http://www.w3.org/1999/xlink" x="0px" y="0px"
	 width="646.199px" height="285.786px" viewBox="0 0 646.199 285.786" enable-background="new 0 0 646.199 285.786"
	 xml:space="preserve">
<g>
	<g>
		<g>
			<path fill="#EADFE4" d="M343.061,219.774c-20.696,6.451-29.491,29.324-35.43,52.022c18.119-8.671,23.31-10.579,39.897-11.593
				c55.709-3.404,112.229-14.816,50.596-111.562"/>
			<path fill="#EADFE4" d="M423.912,173.455c-48.733-77.397-109.986,31.125-107.502,47.763c6.798-7.968,25.68-22.031,33.729-15.69
				c-3.797,17.233-8.258,17.367-4.486,22.703c6.151-1.524,7.254-2.025,32.045,3.485c-3.436,8.739,13.527,11.808,3.037,15.261
				C392.833,259.666,465.556,239.597,423.912,173.455z"/>
			<path fill="#EAC3D1" d="M354.994,239.55c8.121-3.051,24.402-13.797,21.727-21.859c-7.613-8.127-12.627,17.111-46.172,3.227
				c11.712-11.524,14.734-15.098,20.066-27.344c1.274-19.601,35.787-70.661,71.887-24.323
				C469.072,229.028,367.259,246.174,354.994,239.55z"/>
			<path fill="#F06490" d="M426.97,176.291c-31.331-49.758-59.614,12.45-58.02,23.148c4.373-5.123,15.57-13.282,20.742-9.202
				c-0.367,10.305-15.121,13.265-13.036,21.27c5.387-4.468,11.483-4.672,20.603,2.238c-0.773,3.531-4.434,6.481-10.398,6.785
				C394.642,228.687,453.746,218.815,426.97,176.291z"/>
		</g>
		<path fill="#2AA4C0" d="M539.746,174.014c0,0,13.135,76.399-18.368,92.641c-31.502,16.245-38.767,19.132-38.767,19.132
			l-18.41-72.814L539.746,174.014z"/>
		<path fill="#2AA4C0" d="M498.602,95.646c0,0-54.624-55-86.126-38.753c-31.5,16.24-38.066,20.485-38.066,20.485l48.646,57.225
			L498.602,95.646z"/>
		<path fill="#2AA4C0" d="M645.987,70.654l0.212-1.308l-1.189-0.586c-14.04-6.821-88.617-39.814-154.328-5.93
			c-72.881,37.581-88.51,46.547-88.51,46.547s-4.229,48.531,11.842,79.697c16.07,31.163,58.06,55.858,58.06,55.858
			s16.369-7.531,89.247-45.113C627.033,165.937,643.4,86.05,645.987,70.654z"/>
		<circle fill="#FFFFFF" cx="512.965" cy="138.048" r="35.333"/>
	</g>
	<polygon fill="#FFFFFF" points="228.699,262.228 222.903,257.071 215.369,258.924 218.481,251.818 214.391,245.226 
		222.112,245.989 227.118,240.062 228.777,247.641 235.96,250.57 229.265,254.49 	"/>
	<polygon fill="#FFFFFF" points="221.372,155.771 214.16,152.913 207.717,157.234 208.206,149.492 202.105,144.699 209.621,142.772 
		212.293,135.489 216.448,142.041 224.201,142.333 219.253,148.309 	"/>
	<polygon fill="#FFFFFF" points="144.54,102.263 136.792,102.654 132.722,109.258 129.956,102.01 122.417,100.181 128.456,95.309 
		127.866,87.573 134.364,91.812 141.54,88.861 139.516,96.352 	"/>
	<polygon fill="#FFFFFF" points="12.532,241.169 7.743,235.066 0,235.552 4.324,229.111 1.47,221.897 8.932,224.02 14.91,219.076 
		15.198,226.829 21.747,230.987 14.463,233.655 	"/>
	<polygon fill="#FFFFFF" points="126.268,219.96 119.167,209.167 106.252,208.902 114.319,198.813 110.582,186.447 122.67,191.002 
		133.276,183.626 132.679,196.531 142.97,204.34 130.513,207.758 	"/>
	<polygon fill="#FFFFFF" points="50.899,117.256 37.091,124.336 35.1,139.72 24.101,128.779 8.85,131.638 15.858,117.796 
		8.427,104.176 23.758,106.562 34.416,95.289 36.88,110.605 	"/>
	<g>
		<polygon fill="#FFFFFF" points="279.009,201.793 282.413,210.024 279.009,218.646 276.74,210.22 		"/>
		<polyline fill="#FFFFFF" points="271.149,211.354 279.576,209.085 288.003,211.354 		"/>
	</g>
	<g>
		<polygon fill="#FFFFFF" points="104.08,270.389 103.504,261.5 109.5,254.432 108.938,263.14 		"/>
		<polyline fill="#FFFFFF" points="114.596,263.864 105.887,263.302 98.638,258.442 		"/>
	</g>
	<g>
		<polygon fill="#FFFFFF" points="170.432,158.61 161.571,157.705 155.594,150.62 164.089,152.618 		"/>
		<polyline fill="#FFFFFF" points="165.741,147.158 163.743,155.653 157.75,161.997 		"/>
	</g>
	<g>
		<polygon fill="#FFFFFF" points="8.335,15.957 7.76,7.068 13.756,0 13.194,8.708 		"/>
		<polyline fill="#FFFFFF" points="18.852,9.433 10.143,8.87 2.894,4.011 		"/>
	</g>
	<g>
		<polygon fill="#FFFFFF" points="91.568,171.085 91.26,171.039 83.245,169.849 76.912,164.792 76.668,164.597 76.977,164.644 
			84.992,165.835 91.324,170.891 		"/>
		<polygon fill="#FFFFFF" points="81.145,175.403 81.33,175.152 86.155,168.644 87.058,160.59 87.092,160.278 86.907,160.53 
			82.082,167.041 81.18,175.093 		"/>
	</g>
	<g>
		<polygon fill="#FFFFFF" points="58.172,53.892 58.37,54.134 63.489,60.415 64.761,68.419 64.81,68.727 64.612,68.483 
			59.493,62.202 58.22,54.2 		"/>
		<polygon fill="#FFFFFF" points="68.783,57.726 68.478,57.786 60.528,59.345 54.433,64.687 54.197,64.893 54.505,64.832 
			62.456,63.272 68.548,57.931 		"/>
	</g>
	<g>
		<polygon fill="#FFFFFF" points="201.538,200.658 204.942,208.89 201.538,217.512 199.269,209.085 		"/>
		<polyline fill="#FFFFFF" points="193.679,210.22 202.105,207.95 210.532,210.22 		"/>
		<polyline fill="#FFFFFF" points="193.679,209.95 202.105,212.22 210.532,209.95 		"/>
	</g>
	<g>
		<polygon fill="#FFFFFF" points="102.937,18.695 106.34,26.927 102.937,35.549 100.667,27.122 		"/>
		<polyline fill="#FFFFFF" points="95.077,28.257 103.504,25.987 111.931,28.257 		"/>
		<polyline fill="#FFFFFF" points="95.077,27.987 103.504,30.257 111.931,27.987 		"/>
	</g>
</g>
<text transform="matrix(1 0 0 1 220.2158 102.9258)" display="none"><tspan x="0" y="0" display="inline" fill="#FFFFFF" font-family="'SFNewRepublic'" font-size="20">Let’s take off together</tspan><tspan x="97.998" y="36" display="inline" fill="#FFFFFF" font-family="'Arvo'" font-size="30"> </tspan></text>
<g display="none">
	<path display="inline" fill="#FFFFFF" d="M463.158,166.447c0,8.787-6.076,15.908-13.569,15.908H200.061
		c-7.494,0-13.569-7.121-13.569-15.908v-18.561c0-8.787,6.075-15.909,13.569-15.909h249.527c7.493,0,13.569,7.122,13.569,15.909
		V166.447z"/>
	<text transform="matrix(1 0 0 1 226.377 164.75)" display="inline"><tspan x="0" y="0" fill="#3D52A0" font-family="'Raleway-Bold'" font-size="27.4716">see my work </tspan><tspan x="172.684" y="4.157" fill="#3D52A0" font-family="'Raleway-Medium'" font-size="40">&gt;</tspan><tspan x="193.084" y="0" fill="#3D52A0" font-family="'Raleway-Bold'" font-size="40"> </tspan><tspan x="202.684" y="0" fill="#3D52A0" font-family="'Raleway-Bold'" font-size="27.4716"> </tspan></text>
</g>
</svg>
