<?xml version="1.0" encoding="utf-8"?>
<!-- Generator: Adobe Illustrator 16.0.0, SVG Export Plug-In . SVG Version: 6.00 Build 0)  -->
<!DOCTYPE svg PUBLIC "-//W3C//DTD SVG 1.1//EN" "http://www.w3.org/Graphics/SVG/1.1/DTD/svg11.dtd">
<svg version="1.1" id="Layer_1" xmlns="http://www.w3.org/2000/svg" xmlns:xlink="http://www.w3.org/1999/xlink" x="0px" y="0px"
	 width="798.126px" height="515.974px" viewBox="0 0 798.126 515.974" enable-background="new 0 0 798.126 515.974"
	 xml:space="preserve">
<polygon fill="#2AA4C0" points="661.07,83.813 644.069,74.124 625.612,80.63 630.539,63.78 617.287,50.345 637.333,49.622 
	647.598,34.812 655.061,51.213 674.66,55.496 659.226,66.355 "/>
<ellipse transform="matrix(0.9789 0.2041 -0.2041 0.9789 58.8885 -74.5854)" fill="none" stroke="#2AA4C0" stroke-miterlimit="10" cx="390.952" cy="248.134" rx="382.253" ry="221.472"/>
<polygon fill="#2AA4C0" points="203.504,481.224 161.217,475.932 132.883,507.765 124.851,465.911 85.819,448.8 123.141,428.228 
	127.352,385.819 158.452,414.957 200.087,405.857 181.986,444.438 "/>
<polygon fill="#2AA4C0" points="204.961,37.646 195.557,33.66 186.942,39.146 187.828,28.97 179.948,22.471 189.899,20.17 
	193.644,10.667 198.909,19.42 209.104,20.046 202.406,27.757 "/>
<polygon fill="#2AA4C0" points="133.955,77.742 123.245,66.812 108.167,69.435 115.255,55.871 108.1,42.343 123.19,44.892 
	133.845,33.906 136.083,49.045 149.825,55.783 136.118,62.593 "/>
<polygon fill="#EAC3D1" points="570.367,384.275 583.36,359.791 570.558,335.206 597.86,339.999 617.286,320.227 621.166,347.672 
	645.973,360.037 621.069,372.207 616.975,399.623 597.705,379.697 "/>
</svg>
