<?xml version="1.0" encoding="utf-8"?>
<!-- Generator: Adobe Illustrator 16.0.0, SVG Export Plug-In . SVG Version: 6.00 Build 0)  -->
<!DOCTYPE svg PUBLIC "-//W3C//DTD SVG 1.1//EN" "http://www.w3.org/Graphics/SVG/1.1/DTD/svg11.dtd">
<svg version="1.1" id="Layer_1" xmlns="http://www.w3.org/2000/svg" xmlns:xlink="http://www.w3.org/1999/xlink" x="0px" y="0px"
	 width="340px" height="340px" viewBox="0 0 340 340" enable-background="new 0 0 340 340" xml:space="preserve">
<g>
	<g>
		<path fill="#EADFE4" d="M36.146,222.986c-20.696,6.451-29.491,29.324-35.43,52.022c18.119-8.671,23.31-10.579,39.897-11.593
			c55.709-3.404,112.229-14.816,50.596-111.562"/>
		<path fill="#EADFE4" d="M116.997,176.667C68.263,99.27,7.01,207.792,9.495,224.43c6.798-7.968,25.68-22.031,33.729-15.69
			c-3.797,17.233-8.258,17.367-4.486,22.703c6.151-1.524,7.254-2.025,32.045,3.485c-3.436,8.739,13.527,11.808,3.037,15.261
			C85.918,262.878,158.641,242.809,116.997,176.667z"/>
		<path fill="#EAC3D1" d="M48.079,242.762c8.121-3.051,24.402-13.797,21.727-21.859c-7.613-8.127-12.627,17.111-46.172,3.227
			c11.712-11.524,14.734-15.098,20.066-27.344c1.274-19.601,35.787-70.661,71.887-24.323
			C162.157,232.24,60.344,249.386,48.079,242.762z"/>
		<path fill="#F06490" d="M120.055,179.503c-31.331-49.758-59.614,12.45-58.02,23.148c4.373-5.123,15.57-13.282,20.742-9.202
			c-0.367,10.305-15.121,13.265-13.036,21.27c5.387-4.468,11.483-4.672,20.603,2.238c-0.773,3.531-4.434,6.481-10.398,6.785
			C87.727,231.898,146.831,222.027,120.055,179.503z"/>
	</g>
	<path fill="#2AA4C0" d="M232.831,177.226c0,0,13.135,76.399-18.368,92.641c-31.502,16.245-38.767,19.132-38.767,19.132
		l-18.41-72.814L232.831,177.226z"/>
	<path fill="#2AA4C0" d="M191.687,98.858c0,0-54.624-55-86.126-38.753c-31.5,16.24-38.066,20.485-38.066,20.485l48.646,57.225
		L191.687,98.858z"/>
	<path fill="#2AA4C0" d="M339.072,73.866l0.212-1.308l-1.189-0.586c-14.04-6.821-88.617-39.814-154.328-5.93
		c-72.881,37.581-88.51,46.547-88.51,46.547s-4.229,48.531,11.842,79.697c16.07,31.163,58.06,55.858,58.06,55.858
		s16.369-7.531,89.247-45.113C320.118,169.148,336.485,89.262,339.072,73.866z"/>
	<circle fill="#FFFFFF" cx="206.05" cy="141.26" r="35.333"/>
</g>
</svg>
